<?xml version="1.0" encoding="UTF-8"?>
<svg id="Layer_1" data-name="Layer 1" xmlns="http://www.w3.org/2000/svg" viewBox="0 0 3019.89 3500.14">
  <defs>
    <style>
      .cls-1 {
        stroke-width: 0px;
      }
    </style>
  </defs>
  <path class="cls-1" d="m566.89,2242.22l3.89-.73c1.29-.22,2.61-.33,3.93-.47,2.67-.14,5.36-.26,8.17-.04,5.57.29,11.45,1.36,17.52,2.92,6.08,1.53,12.39,3.62,18.92,5.94,6.49,2.31,13.44,4.92,20.31,7.44,6.88,2.53,13.77,5.08,20.66,7.62,27.57,10.16,55.21,20.35,82.5,30.4,6.83,2.52,13.64,5.03,20.42,7.51,7.14,2.59,14.74,5.2,23.01,7.37,8.26,2.17,17.28,3.93,27.38,4.33l3.8.11c1.31-.02,2.64-.07,3.96-.12,2.61-.04,5.34-.37,8.12-.7,1.37-.13,2.84-.43,4.27-.71s2.88-.58,4.32-.9c1.41-.37,2.82-.79,4.22-1.21,1.4-.43,2.82-.82,4.18-1.39,2.72-1.08,5.48-2.1,8.05-3.52,1.31-.68,2.6-1.35,3.88-2.07,1.27-.72,2.5-1.53,3.73-2.31,1.21-.82,2.4-1.67,3.59-2.52,1.17-.89,2.31-1.8,3.45-2.72,1.11-.95,2.22-1.91,3.3-2.89,1.06-1,2.05-1.95,2.99-2.88,7.47-7.55,12.64-14.99,16.95-21.41,7.48-11.48,14.81-22.74,21.97-33.74,14.08-21.68,27.48-42.3,39.95-61.5,49.85-76.83,84.83-131.02,89.44-138.95.35-.6.66-1.19.99-1.79,20.85,8.58,42.51,15.35,64.54,20.09,29.87,6.39,59.4,8.97,87.33,9.59,27.98.62,54.48-.6,79.4-2.02,24.92-1.45,48.31-3.09,70.14-3.96,21.83-.89,42.08-.97,60.64.18,2.3.16,4.6.32,6.88.48,2.29.15,4.56.29,6.72.57,4.36.52,8.69.85,12.96,1.56,3.08.46,6.14.88,9.17,1.39-1.54,2.31-3.06,4.67-4.55,7.06-6.01,9.63-11.59,19.99-16.65,30.85-5.04,10.87-9.59,22.24-13.74,33.93-2.29,6.41-4.43,12.92-6.5,19.5-2.64-.64-5.51-1.28-8.61-1.86-1.56-.32-3.23-.56-4.92-.83-1.73-.24-3.51-.5-5.34-.69-3.66-.41-7.55-.62-11.6-.69-8.11-.05-17.01.69-26.34,3.11-4.64,1.21-9.39,2.8-14.07,4.97-4.66,2.15-9.35,4.89-13.42,7.91-8.17,6.07-14.25,12.88-19.47,18.9-5.26,6.16-9.58,11.19-14.89,16.16-10.35,9.96-22.67,18.18-35.16,24.41-12.51,6.23-25.26,10.17-36.47,12.51-1.41.29-2.79.57-4.13.85-1.37.21-2.68.41-3.98.61-2.6.4-5.08.78-7.42.95-2.33.19-4.55.47-6.59.55-2.05.07-3.93.13-5.62.19-1.71.09-3.23.05-4.55.01-1.33-.04-2.46-.06-3.37-.08-1.84-.05-2.82-.07-2.82-.07,0,0,.95.27,2.71.77.89.24,1.98.56,3.27.92,1.29.37,2.78.79,4.48,1.13,1.7.37,3.58.78,5.62,1.24,2.07.44,4.3.72,6.72,1.13,2.41.44,4.99.69,7.75.97,1.38.14,2.79.28,4.24.42,1.45.07,2.94.14,4.46.21,12.16.54,26.68-.14,42.09-3.48,15.39-3.33,31.76-9.01,47.09-17.71,3.91-2.07,7.57-4.53,11.34-6.92,3.72-2.45,7.09-4.94,10.29-7.16,6.37-4.53,11.97-8.03,16.7-9.79,2.37-.89,4.41-1.33,6.59-1.67,2.17-.33,4.4-.41,6.62-.36,4.43.09,8.93.9,13.1,2.03,2.09.61,4.11,1.24,6.01,1.98.96.35,1.88.75,2.79,1.12.95.42,1.84.78,2.74,1.21,2.91,1.33,5.57,2.72,7.97,4.04-6.42,23.15-13.17,46.27-22.56,67.84-2.44,5.74-5.17,11.26-7.99,16.77l-2.23,4.04c-.75,1.34-1.47,2.73-2.26,3.99-1.57,2.58-3.08,5.23-4.82,7.75-6.71,10.22-14.57,20.03-23.54,29.04-8.94,9.04-18.84,17.43-29.62,24.8-10.75,7.41-22.26,13.97-34.35,19.34l-4.54,2.02-4.61,1.86c-3.06,1.31-6.21,2.31-9.32,3.48-6.28,2.1-12.64,4.07-19.08,5.6-12.87,3.16-25.99,5.19-39.11,5.83-13.1.68-26.22.21-38.98-1.7-12.62-1.71-25.96-5.33-40.16-7.96-7.09-1.31-14.42-2.38-21.96-2.79-7.51-.41-15.26-.12-22.84,1.23-7.6,1.36-14.79,3.73-21.4,6.74-6.62,3.01-12.66,6.64-18.2,10.56-11.12,7.86-20.21,16.87-28.37,25.78-8.16,8.98-15.19,17.86-22.1,26.1-3.44,4.12-6.83,8.1-10.22,11.87-3.38,3.78-6.77,7.35-10.21,10.66-6.84,6.67-13.88,12.29-21.04,16.74-7.05,4.47-14.46,7.34-21.53,9.2-7.08,1.84-13.85,2.53-19.96,2.39-1.52-.09-3.02-.05-4.46-.26-1.43-.17-2.84-.35-4.19-.51-1.34-.28-2.64-.56-3.88-.82-.32-.07-.63-.13-.93-.2-.3-.09-.6-.19-.9-.28-.6-.19-1.18-.36-1.74-.54-2.33-.62-4.3-1.62-6.21-2.38-1.83-.89-3.42-1.86-4.89-2.64-1.37-.96-2.57-1.81-3.61-2.54-1.05-.73-1.77-1.53-2.45-2.08-1.29-1.16-1.97-1.76-1.97-1.76,0,0,.61.67,1.77,1.95.61.62,1.27,1.51,2.25,2.35.98.85,2.11,1.84,3.4,2.95,1.41.95,2.93,2.11,4.73,3.21,1.85.98,3.82,2.24,6.16,3.11.57.24,1.17.49,1.76.75.3.13.61.26.91.39.32.11.63.2.95.3,1.28.41,2.61.84,3.98,1.27,1.4.33,2.85.65,4.34.99,1.49.37,3.07.49,4.67.75,6.43.82,13.71.82,21.5-.37,7.77-1.21,16.17-3.51,24.47-7.64,8.23-4.01,16.49-9.32,24.45-15.66,8.03-6.3,15.8-13.58,23.63-21.22,7.84-7.62,15.73-15.7,24.12-23.23,8.44-7.5,17.48-14.71,27.36-20.25,9.85-5.57,20.46-9.42,31.22-10.19,10.77-.78,22.3,1.45,34.58,5.06,6.15,1.8,12.5,3.92,19.16,6.09,6.64,2.17,13.7,4.38,21.12,6.2,14.72,3.76,30.05,5.89,45.61,6.67,15.56.8,31.35.01,47.05-2.19,15.72-2.16,31.33-5.87,46.55-10.93,15.26-5.02,30.09-11.54,44.29-19.34,14.22-7.76,27.71-16.95,40.26-27.31,3.61-2.96,7.12-6.04,10.55-9.2,1.25,8.73,2.6,18.14,4.05,28.15,1.82,12.61,3.78,26.17,5.85,40.44,1.94,13.76,3.36,27.03,2.01,39.14-.35,3.02-.86,5.95-1.61,8.89-.28,1.49-.79,2.95-1.25,4.43-.23.73-.43,1.49-.7,2.23l-.86,2.22c-2.3,5.93-5.47,11.88-9.38,17.7-7.79,11.69-18.46,22.79-30.16,33.31-11.64,10.5-24.7,20.73-37.1,31.71-12.44,10.93-24.4,22.81-34.02,36.11-4.8,6.65-9.04,13.59-12.38,20.8-.85,1.79-1.54,3.64-2.31,5.44-.37.9-.74,1.8-1.11,2.7l-.55,1.34-.44,1.38c-1.16,3.66-2.46,7.22-3.22,10.85-3.58,14.41-4.45,28.22-4.12,40.68.34,12.48,1.82,23.71,3.44,33.53,1.65,9.82,3.42,18.26,5.01,25.17,1.55,6.92,2.89,12.31,3.8,15.98s1.4,5.64,1.4,5.64c0,0-.24-1.99-.7-5.75s-1.12-9.26-1.83-16.29c-.74-7.02-1.47-15.56-1.91-25.34-.42-9.77-.51-20.8.6-32.61,1.12-11.8,3.51-24.38,8.21-36.66,1.04-3.11,2.59-6.07,3.94-9.1l.52-1.13.61-1.1,1.24-2.19c.84-1.46,1.6-2.95,2.51-4.39,3.56-5.75,7.89-11.2,12.69-16.4,9.66-10.42,21.47-19.69,34.37-28.54,12.89-8.91,26.8-17.33,40.88-27.23,13.98-9.87,27.93-21.01,40.05-35.06,6.04-7.01,11.59-14.77,16.16-23.26,4.56-8.46,8.17-17.77,10.38-27.08,1.09-4.63,1.9-9.22,2.5-13.71.57-4.48.95-8.86,1.19-13.13.44-8.52.37-16.54.21-24.06-.4-14.54-.78-28.35-1.13-41.2-1.46-51.23-2.59-87.3-3.02-92.41-.06-.69-.14-1.36-.22-2.04,6.14-11.46,11.5-22.9,16.3-34.08,5.65-13.1,10.63-25.85,15.31-38.06,4.68-12.18,9.08-23.88,13.42-34.73,4.35-10.89,8.69-21.09,13.11-30.53,4.42-9.44,8.94-18.08,13.52-25.89,4.61-7.78,9.29-14.69,13.97-20.77,4.67-6.08,9.29-11.35,13.86-15.77.56-.56,1.12-1.13,1.67-1.68.55-.48,1.1-.97,1.63-1.43,1.06-.95,2.1-1.88,3.13-2.8,1.09-.85,2.15-1.69,3.19-2.51.51-.42,1.03-.83,1.53-1.24.62-.07,1.28-.15,1.9-.22,3.19,1.51,6.31,3.03,9.37,4.59,2.38,1.26,4.75,2.45,7.07,3.69,47.23,49.37,79.68,105.49,92.91,180.3,16.88,95.49,3.13,193.44-10.64,289.43-20.52,143.05-41.04,286.08-61.57,429.13-12.31,85.77-25.61,174.35-71.47,247.87-64.88,104-184.25,160.69-301.89,195.16-74.81,21.92-151.96,37.31-226.6,59.35h1395.77c-39.41-13.46-76.49-32.14-109.61-58.39-111.25-88.18-148.89-237.87-179.79-376.44-24.97-111.94-50.06-225.13-48.51-339.82,1.55-114.68,21.21-208.38,62.28-268.2,25.56-37.24,54.51-83.65,92.31-116.4.88-.24,1.71-.48,2.63-.72,1.16.13,2.32.26,3.52.42,11.59,1.54,25.18,4.53,39.55,10.31,7.16,2.94,14.57,6.63,22.13,11.05,7.45,4.58,15,9.93,22.38,16.16,14.69,12.52,28.54,28.75,39.27,48.1,1.26,2.45,2.61,4.89,3.85,7.4,1.17,2.54,2.33,5.1,3.51,7.67,1.04,2.63,2.08,5.27,3.13,7.92,1,2.75,1.98,5.67,3,8.86,2.04,6.34,4.12,13.41,6.84,21.22,2.74,7.78,5.97,16.25,10.87,25.06,2.35,4.38,5.31,8.81,8.48,13.1l2.57,3.19c.86,1.06,1.74,2.1,2.71,3.11l2.86,3.03c.97.99,1.99,1.9,3.01,2.86,8.12,7.53,17.35,13.21,26.8,17.4,9.47,4.22,19.2,6.78,28.93,8.31,4.86.68,9.74,1.19,14.61,1.28,2.44.11,4.86.06,7.3.01,2.42-.07,4.74-.21,7.08-.4,18.75-1.56,35.92-6.66,51.46-12.72,7.81-3.03,15.25-6.32,22.42-9.7,7.23-3.35,14.27-6.84,21.25-10.34,27.79-14.04,53.89-28.62,80.15-39.69,6.56-2.82,13.13-5.32,19.68-7.68,1.63-.55,3.27-1.1,4.9-1.64l2.45-.82,2.46-.73c1.64-.49,3.28-.98,4.92-1.47,1.64-.43,3.29-.86,4.94-1.3,6.58-1.75,13.2-3.02,19.79-4.13,6.59-.93,13.17-1.76,19.67-1.98,13.01-.61,25.82.22,37.85,2.99,12.06,2.7,23.31,7.15,33.51,13.16,20.42,12.26,36.81,30.28,50.75,47.25,6.87,8.62,13.06,17.24,18.57,25.69,1.34,2.15,2.66,4.26,3.95,6.34.65,1.05,1.3,2.09,1.94,3.11.61,1.05,1.21,2.1,1.81,3.13,1.19,2.08,2.37,4.13,3.52,6.15,1.1,2.05,2.17,4.08,3.23,6.07,8.46,15.97,14.35,30.7,18.66,42.99,4.35,12.31,6.8,22.3,8.59,29.07,1.54,6.85,2.36,10.49,2.36,10.49,0,0-.45-3.71-1.32-10.69-1.11-6.93-2.58-17.19-5.74-30.01-3.13-12.82-7.62-28.33-14.65-45.51-.89-2.15-1.79-4.33-2.71-6.55-.98-2.18-1.98-4.41-3-6.66-.51-1.13-1.03-2.26-1.54-3.41-.55-1.12-1.11-2.26-1.67-3.39-1.13-2.29-2.27-4.6-3.44-6.94-4.84-9.28-10.36-18.84-16.65-28.54-1.62-2.39-3.26-4.82-4.9-7.27-1.66-2.44-3.47-4.82-5.23-7.27-3.52-4.9-7.36-9.74-11.43-14.6-8.19-9.66-17.61-19.23-28.91-27.63-11.36-8.35-24.58-15.18-38.76-19.82-14.18-4.75-29.28-7.21-44.59-8-7.68-.47-15.38-.28-23.14.07-7.72.52-15.49,1.26-23.22,2.52-1.92.32-3.87.6-5.81.93-1.92.37-3.85.75-5.79,1.12l-2.91.56-2.88.65c-1.92.44-3.85.89-5.78,1.33-7.6,1.91-15.18,3.99-22.62,6.37-29.93,9.36-58.38,21.88-86.22,32.68-6.95,2.68-13.88,5.32-20.76,7.72-6.89,2.46-13.66,4.69-20.28,6.53-13.22,3.75-25.87,5.89-37.3,5.66-1.42-.04-2.86-.09-4.21-.2-1.33-.13-2.66-.21-3.97-.43-2.64-.32-5.2-.9-7.71-1.49-4.95-1.35-9.61-3.15-13.48-5.46-3.87-2.29-7.09-4.9-9.39-7.72-.28-.36-.61-.68-.88-1.04-.24-.37-.5-.72-.76-1.07-.27-.33-.51-.72-.75-1.13l-.75-1.17c-.91-1.73-1.87-3.43-2.7-5.57-1.74-4.07-3.23-9.23-4.66-15.06-1.42-5.81-2.73-12.47-4.3-19.65-.78-3.58-1.66-7.39-2.66-11.25-.11-.36-.2-.71-.3-1.06,2.44.77,4.99,1.54,7.67,2.31,8.39,2.39,17.89,4.67,28.43,6.21,10.58,1.54,22.09,2.35,34.2,1.61,12.09-.65,24.8-2.85,37.33-7.17,6.27-2.15,12.43-4.98,18.4-8.28,1.47-.88,2.94-1.75,4.42-2.63,1.45-.92,2.86-1.92,4.28-2.89,1.45-.95,2.8-2.01,4.15-3.07.68-.52,1.36-1.05,2.03-1.59l1.95-1.67c10.43-8.95,18.88-19.5,26.41-30.1,7.55-10.62,14.21-21.39,21.29-31.38,7.04-10.05,14.37-19.65,21.93-28.55,7.54-8.93,15.2-17.23,22.74-24.85,7.55-7.61,15.04-14.44,22.06-20.62,14.16-12.23,26.76-21.47,35.75-27.67,2.25-1.54,4.27-2.91,6.02-4.11,1.79-1.16,3.29-2.14,4.53-2.93,2.45-1.59,3.77-2.44,3.77-2.44,0,0-1.36.75-3.94,2.14-1.28.7-2.88,1.55-4.75,2.57-1.84,1.05-3.97,2.26-6.35,3.63-9.47,5.5-22.83,13.77-38.09,24.98-7.57,5.68-15.68,12.01-23.95,19.12-8.25,7.13-16.72,14.97-25.12,23.49-8.42,8.51-16.72,17.75-24.76,27.52-8.1,9.75-15.62,20.02-23.57,29.54-7.92,9.52-16.32,18.34-25.59,25.11l-1.73,1.27c-.58.41-1.18.78-1.77,1.18-1.18.78-2.35,1.58-3.58,2.24-1.23.69-2.4,1.41-3.64,2.07-1.25.62-2.5,1.23-3.75,1.84-5.05,2.29-10.22,4.22-15.49,5.59-10.55,2.74-21.27,3.79-31.51,3.56-10.24-.15-20-1.59-28.89-3.56-8.95-1.99-17.16-4.61-24.47-7.28-7.32-2.67-13.73-5.39-19.17-7.84-4.17-1.87-7.75-3.56-10.69-4.96-12.37-27.06-28.99-50.55-47.58-69.77-9.85-10.12-20.21-19.09-30.72-26.99-5.45-3.97-10.94-7.67-16.43-11.07,34.14-17.96,70.41-36.74,104.71-60.33,17.96-12.33,35.39-26.16,51.02-41.02,4.7-4.45,9.24-9,13.65-13.6,30.3-9.15,136.75-42.68,249.83-78.44,2.42.84,5.37,1.98,8.76,3.51,1.08.43,2.16,1.03,3.28,1.61,1.12.61,2.33,1.16,3.51,1.85s2.4,1.43,3.66,2.19c1.27.73,2.47,1.67,3.78,2.53,5.11,3.58,10.48,8.1,15.51,13.7,2.51,2.8,4.94,5.87,7.17,9.2,2.25,3.27,4.39,7.05,6.55,11.17,2.15,4.12,4.32,8.63,6.7,13.31,2.38,4.69,4.92,9.6,8.09,14.58,3.15,4.96,6.88,10,11.68,14.53,4.76,4.54,10.68,8.34,17.12,10.71,1.61.63,3.26,1.04,4.89,1.49,1.63.34,3.29.75,4.91.93,3.28.51,6.48.62,9.6.62,6.24-.06,12.12-.83,17.71-1.66,2.74-.41,5.48-.83,8.21-1.24l3.98-.56,3.91-.35,3.91-.35,1.96-.17,1.96-.04c2.61-.04,5.23-.08,7.83-.12,10.41.33,20.64,1.8,30.37,4.13,2.42.67,4.81,1.32,7.19,1.97,1.2.29,2.35.75,3.5,1.13,1.16.4,2.3.8,3.44,1.2s2.27.79,3.41,1.19c1.11.44,2.19.92,3.29,1.39,2.17.93,4.34,1.82,6.44,2.77,2.07,1.05,4.1,2.08,6.09,3.09.99.52,2.02.98,2.96,1.54s1.89,1.12,2.82,1.68c1.87,1.12,3.71,2.22,5.52,3.29,1.74,1.19,3.43,2.37,5.1,3.51,13.31,9.29,22.74,19.26,28.69,26.66,3.11,3.62,5.14,6.77,6.63,8.86,1.47,2.1,2.25,3.22,2.25,3.22,0,0-.68-1.18-1.95-3.41-1.3-2.22-3.05-5.57-5.85-9.46-5.32-7.98-13.94-18.96-26.78-29.74-1.61-1.34-3.26-2.71-4.94-4.1-1.75-1.31-3.56-2.59-5.4-3.92-.92-.67-1.84-1.33-2.79-2.01-.93-.68-1.95-1.25-2.94-1.88-1.99-1.25-4.01-2.51-6.07-3.79-2.1-1.19-4.28-2.31-6.48-3.5-1.1-.58-2.2-1.19-3.33-1.76-1.16-.52-2.31-1.04-3.47-1.58-1.17-.52-2.33-1.05-3.51-1.59-1.18-.52-2.36-1.11-3.59-1.53-2.45-.91-4.94-1.84-7.43-2.78-10.13-3.39-20.99-5.98-32.32-7.34-2.85-.21-5.7-.43-8.58-.64l-2.16-.15h-10.9s-4.29.22-4.29.22c-2.78.17-5.57.34-8.34.51-5.45.33-10.7.5-15.55.11-2.42-.22-4.76-.51-6.92-1.07-1.12-.21-2.12-.61-3.16-.9-.98-.4-2.01-.72-2.92-1.2-3.73-1.83-6.99-4.33-9.79-7.53-2.81-3.19-5.23-7.01-7.37-11.18-2.16-4.15-4.02-8.67-5.88-13.27-1.86-4.61-3.63-9.3-5.6-14.05-1.98-4.74-4.12-9.5-6.73-14.12-2.53-4.6-5.34-8.84-8.28-12.78-5.89-7.85-12.37-14.32-18.64-19.57-.57-.46-1.14-.92-1.7-1.39.83-.27,1.66-.52,2.5-.79,17.79-5.64,35.55-11.26,53-16.78,8.58-2.77,17.94-5.41,27.27-10.05,4.61-2.3,9.26-5.18,13.31-8.6,4.06-3.37,7.51-7.09,10.54-10.85,6.04-7.56,10.49-15.25,14.77-22.35,4.29-7.16,8.48-14.15,12.57-20.97,8.16-13.62,15.86-26.47,22.96-38.34,28.39-47.41,47.2-78.84,47.2-78.84,0,0-22.06,29.25-55.35,73.36-8.32,11.04-17.35,23.01-26.9,35.68-4.78,6.34-9.7,12.86-14.71,19.52-5.04,6.69-9.96,13.31-15.41,18.76-2.72,2.73-5.55,5.15-8.53,7.11-2.93,1.97-6.09,3.48-9.64,4.8-7.05,2.64-15.41,4.19-24.49,6.06-17.93,3.65-36.18,7.37-54.47,11.11-82.87,16.91-166.64,34.04-225.76,46.27,1.47-2.45,2.93-4.9,4.35-7.35,9.63-16.72,17.91-33.46,25.2-49.92,7.28-16.46,13.59-32.64,19.09-48.38,5.46-15.75,10.2-31.05,14.41-45.75,8.25-29.45,14.44-56.51,19.31-80.52,4.88-24.01,8.55-44.93,11.47-62.16,2.91-17.22,5.01-30.75,6.45-39.97,1.42-9.22,2.18-14.13,2.18-14.13,0,0-1.59,4.7-4.57,13.55-3.01,8.82-7.4,21.78-13.2,38.2-5.8,16.4-12.97,36.28-21.77,58.79-8.77,22.51-19.32,47.59-31.99,74.15-6.42,13.24-13.36,26.85-20.97,40.59-7.64,13.73-16.02,27.55-25.14,41.24-9.14,13.69-19.06,27.23-29.9,40.25-10.86,13-22.62,25.49-35.29,37.11-12.66,11.62-26.24,22.35-40.64,31.89-14.41,9.57-29.55,17.8-45.85,25.28-32.54,14.99-68.97,26.52-107.73,39.12-10.59,3.45-21.39,7.01-32.31,10.78.2-1.87.39-3.87.56-6.04.83-10.17,1.03-23.52.04-39.1-.14-1.94-.28-3.92-.42-5.94-.16-1.95-.34-3.94-.5-5.97-.33-3.83-.68-7.79-1.04-11.92-.68-8.12-1.26-16.57-1.48-25.2-.21-8.62-.01-17.41,1.03-25.94,1.05-8.53,2.96-16.75,6.22-24.01,1.63-3.63,3.58-7.04,5.92-10.22,2.33-3.21,5.06-6.1,8.45-9.01,6.72-5.8,15.94-11.11,26.74-16.12,10.8-5.08,23.14-9.86,36.35-15.91,6.6-3.05,13.46-6.45,20.38-10.63,6.91-4.18,13.94-9.15,20.48-15.37,6.56-6.16,12.46-13.78,16.84-22.17l1.61-3.16c.54-1.05.95-2.22,1.41-3.31l1.34-3.36.65-1.69.5-1.73c.64-2.32,1.38-4.62,1.86-6.97.43-2.35.84-4.7,1.21-7.06,1.12-9.44.57-18.77-1.14-27.59-1.71-8.83-4.56-17.2-8.17-25.05-1.2-2.55-2.51-5.04-3.87-7.49.2-.66.41-1.33.6-2.02.23-.89.83-3.21,1.77-6.9.88-3.61,2.26-8.4,3.95-14.25,3.49-11.67,9-27.34,17.15-45.08,4.14-8.83,8.93-18.19,14.44-27.77,1.42-2.37,2.86-4.77,4.32-7.2,1.46-2.43,3.06-4.8,4.6-7.25,1.53-2.46,3.22-4.83,4.88-7.27.83-1.21,1.67-2.43,2.51-3.65.84-1.17,1.68-2.36,2.55-3.5,3.44-4.62,7.13-8.95,11.12-12.72,4.01-3.71,8.33-6.81,12.89-8.65,2.29-.88,4.61-1.62,7-1.84.6-.13,1.2-.12,1.81-.14l1.83-.08,1.83.14c.62.05,1.24.06,1.86.21,4.94.8,10.02,2.86,14.88,6.02,4.88,3.12,9.57,7.04,14.11,11.27,2.26,2.15,4.5,4.34,6.73,6.59l3.35,3.41,1.68,1.71,1.77,1.77c4.75,4.69,9.77,9.07,15.21,12.87,5.44,3.79,11.31,7.07,17.65,9.22,1.54.61,3.23.92,4.84,1.37,1.63.38,3.33.56,4.97.83,1.69.05,3.36.23,5.04.13,1.68-.16,3.35-.14,4.98-.56.82-.16,1.62-.34,2.44-.5.8-.16,1.56-.5,2.35-.75.71-.26,1.88-.68,2.59-.93.64-.28,1.28-.56,1.9-.89,2.87-1.43,5.39-3.22,7.69-5.09,4.57-3.78,8.23-7.89,11.76-11.66,3.55-3.8,6.97-7.48,10.24-11,26.24-28.2,43.66-46.89,43.66-46.89,0,0-18.78,17.31-47.11,43.41-3.55,3.27-7.23,6.67-11.06,10.2-3.84,3.54-7.68,7.19-11.9,10.15-2.11,1.46-4.32,2.75-6.61,3.69-.57.26-1.16.43-1.74.65l-1.81.47c-.61.14-1.19.37-1.81.43l-1.86.23c-1.23.24-2.5.08-3.75.13-1.26-.01-2.53-.28-3.79-.38-1.26-.33-2.53-.54-3.79-.95-1.25-.47-2.53-.77-3.76-1.39-4.98-2.12-9.78-5.26-14.29-8.95-4.53-3.69-8.75-7.99-12.74-12.58-8.1-9.44-16.46-20.18-27.99-28.9-5.73-4.36-12.62-8.07-20.42-9.95-7.76-1.95-16.32-1.47-23.91.96-7.63,2.41-14.14,6.52-19.78,10.98-5.59,4.52-10.42,9.45-14.75,14.43-1.1,1.24-2.14,2.5-3.17,3.73-.99,1.24-1.98,2.47-2.96,3.7-1.95,2.46-3.94,4.87-5.76,7.35-1.84,2.47-3.72,4.89-5.47,7.36-1.75,2.47-3.48,4.92-5.18,7.34-6.66,9.79-12.53,19.45-17.68,28.63-10.16,18.43-17.34,35-21.99,47.43-.34.93-.67,1.84-.99,2.73l-3.15-3.01c-12.05-11.04-25.12-19.93-37.95-27.94-12.86-8-25.54-15.23-37.4-22.84-5.96-3.82-11.5-7.68-16.88-11.85-5.36-4.16-10.43-8.56-15.12-13.22-9.28-9.35-17.02-19.75-21.74-31.05-2.33-5.65-3.87-11.48-4.68-17.41-.76-5.94-.69-11.94.19-17.83,1.7-11.82,6.76-23.15,13.59-33.19,6.84-10.07,15.37-18.95,24.55-26.62,9.2-7.67,19.06-14.18,29.05-19.66,5.01-2.73,10.06-5.18,15.11-7.4,2.5-1.12,5.1-2.12,7.64-3.15,1.27-.51,2.53-1.03,3.79-1.53,1.27-.48,2.54-.96,3.8-1.42,10.08-3.83,19.94-7.13,29.34-10.28,9.4-3.14,18.35-6.11,26.72-9.09,16.73-5.92,31.08-11.88,42.39-17.79,11.33-5.87,19.53-11.62,25.03-15.6,2.68-2.09,4.67-3.76,6.03-4.85,1.35-1.1,2.05-1.67,2.05-1.67,0,0-.73.52-2.17,1.53-1.43.99-3.54,2.53-6.34,4.42-5.73,3.58-14.22,8.72-25.78,13.74-11.53,5.08-26.03,9.98-42.97,14.71-8.47,2.38-17.55,4.73-27.16,7.23-9.6,2.51-19.75,5.16-30.29,8.37-1.32.4-2.65.79-3.98,1.19-1.33.43-2.66.86-4,1.31-2.68.89-5.39,1.71-8.14,2.74-5.48,1.97-11,4.21-16.51,6.74-10.99,5.1-21.98,11.33-32.56,18.98-10.55,7.68-20.71,16.84-29.45,27.99-4.35,5.58-8.33,11.67-11.66,18.28-3.33,6.62-5.95,13.8-7.61,21.35-1.66,7.55-2.31,15.47-1.84,23.38.51,7.91,2.05,15.86,4.61,23.45,5.17,15.23,14.04,28.72,24.28,40.54,10.31,11.73,22.21,22,34.49,31.06,12.18,9.03,24.55,17.21,36.16,25.56,11.59,8.34,22.4,16.95,31.43,26.43l3.29,3.59c1.04,1.2,1.97,2.39,2.98,3.58,1.02,1.16,1.84,2.49,2.78,3.7.95,1.21,1.76,2.53,2.59,3.83,3.33,5.17,6.15,10.61,8.31,16.15,4.22,11.08,5.66,22.47,3.82,31.98-.32,1.16-.62,2.31-.88,3.47-.32,1.13-.82,2.19-1.17,3.29l-.28.82-.4.77-.76,1.54c-.27.51-.44,1.04-.76,1.54l-.93,1.51c-2.5,3.99-5.55,7.48-9.42,10.62-7.65,6.32-18.19,11.33-29.84,15.77-11.67,4.48-24.38,8.47-37.39,13.53-12.97,5.08-26.51,11.26-39.13,20.6-6.27,4.64-12.31,10.16-17.43,16.19-5.14,6.03-9.5,12.54-13.02,19.15-1.27,2.38-2.44,4.77-3.5,7.16-12.74-7.48-30.46-17.85-51.24-29.98-19.85-11.57-42.54-24.8-66.34-38.68-11.87-6.91-24.01-13.99-36.21-21.09-6.1-3.55-12.2-7.11-18.31-10.66-3.05-1.77-6.09-3.55-9.14-5.32l-2.27-1.33-1.14-.66-.52-.3-.32-.18c-1.67-.91-2.93-2.43-3.51-4.25-28.18-87.66-53.64-166.91-53.64-166.91,0,0,19.09,79.78,40.58,169.59,1.38,5.74,4.83,10.78,9.71,14.12,44.71,30.68,90.95,62.43,127.33,87.38,23.77,16.3,43.38,29.73,55.66,38.08-.13.64-.26,1.28-.39,1.93-2.33,12.33-3.24,23.74-3.65,34.21-.4,10.47-.3,20.06-.12,28.76.11,4.29.21,8.44.32,12.43.05,1.88.09,3.71.13,5.51.02,1.73.04,3.42.05,5.08.05,13.18-.76,23.46-1.75,30.77-.97,7.33-2.02,11.71-2.36,13.5-1.45,7.06-2.51,13.34-3.35,18.96-.32,2.25-.6,4.39-.85,6.49-1.92.86-3.84,1.73-5.73,2.63-5.04,2.47-10.08,4.95-15.11,7.42-19.95,10.2-39.46,21.16-57.94,33.32-9.42,5.87-18.29,12.34-27.32,18.61-4.46,3.2-8.76,6.55-13.13,9.82-1.47,1.11-2.94,2.23-4.4,3.34-8.21-40.1-22.58-79.36-36.39-118.08-61.33-171.92-114.72-354.11-88.33-534.73,10.66-72.96,34.1-143.36,57.44-213.32,15.83-47.48,31.92-95.41,49.65-142.72,3.29-2.47,6.6-4.97,10-7.51,15.97-12.01,33.13-24.91,51.17-38.48,8.89-6.65,17.9-13.18,27.38-18.52,9.45-5.41,19.46-9.42,29.56-10.75,5.05-.69,10.08-.41,15.1.41,4.98.96,9.85,2.65,14.46,5.2,9.26,5.03,17.49,13.13,24.41,22.63,6.94,9.52,12.75,20.35,17.77,31.66,1.26,2.84,2.47,5.69,3.64,8.59l3.54,8.89c2.38,6,4.8,12.02,7.39,18.04,2.63,6.01,5.32,12.02,8.45,17.9,1.47,2.96,3.21,5.85,4.83,8.75l2.67,4.27,1.34,2.12,1.46,2.08c3.77,5.59,8.25,10.8,13.1,15.6l3.78,3.49c1.31,1.12,2.7,2.13,4.05,3.21l1.14.89c.4.32.83.64,1.3.96l2.81,1.71c1.88,1.12,3.71,2.31,5.61,3.36,3.77,1.43,8.09,6.22,10.57.75,2.91-3.12,5.72-6.45,8.52-9.71l3.14-3.7c.99-1.17,1.96-2.36,3.02-3.47,2.08-2.25,4.14-4.49,6.2-6.73,2.07-2.24,4.12-4.47,6.16-6.7,2.14-2.13,4.26-4.27,6.38-6.39s4.23-4.24,6.34-6.35l1.58-1.57,1.63-1.51c1.08-1,2.18-2.01,3.27-3.01,2.17-2.01,4.33-4,6.49-5.99,1.07-.99,2.15-1.98,3.22-2.98,1.11-.95,2.22-1.89,3.31-2.84,4.43-3.75,8.76-7.53,13.16-11.13,4.48-3.51,8.9-6.98,13.28-10.41,4.42-3.37,8.93-6.5,13.3-9.7,4.34-3.26,8.86-6.1,13.23-9.03,2.19-1.46,4.38-2.89,6.53-4.33,2.14-1.46,4.39-2.71,6.55-4.06,4.36-2.64,8.62-5.27,12.86-7.77,4.3-2.38,8.52-4.73,12.65-7.01,4.1-2.37,8.27-4.36,12.31-6.41,2.02-1.02,4.01-2.02,5.98-3.02,1.97-.98,3.91-2.01,5.88-2.87,3.92-1.79,7.75-3.52,11.46-5.2,1.87-.84,3.67-1.7,5.5-2.47,1.83-.75,3.64-1.48,5.41-2.21,3.56-1.45,7-2.85,10.33-4.2.83-.34,1.66-.68,2.47-1,.83-.3,1.64-.6,2.46-.89,1.62-.58,3.22-1.16,4.78-1.73,6.25-2.23,11.97-4.41,17.26-5.96,5.26-1.66,9.95-3.13,14.04-4.41,4.13-1.12,7.64-2.07,10.5-2.84,5.7-1.54,8.74-2.36,8.74-2.36,0,0-3.07.7-8.82,2.02-2.88.65-6.43,1.47-10.62,2.43-4.14,1.12-8.9,2.41-14.23,3.86-5.37,1.35-11.17,3.31-17.54,5.31-1.59.5-3.21,1.02-4.86,1.54-.83.27-1.67.52-2.51.79-.83.3-1.67.61-2.52.91-3.39,1.23-6.91,2.5-10.54,3.82-1.82.65-3.66,1.33-5.53,2.01-1.87.71-3.72,1.51-5.62,2.27-3.8,1.55-7.71,3.15-11.74,4.8-2.03.78-4,1.74-6.03,2.66s-4.07,1.85-6.15,2.8c-4.14,1.9-8.44,3.76-12.66,5.99-4.26,2.15-8.61,4.35-13.04,6.59-4.38,2.36-8.77,4.85-13.29,7.35-2.24,1.28-4.56,2.46-6.78,3.85-2.24,1.37-4.5,2.74-6.78,4.13-4.54,2.79-9.23,5.52-13.76,8.63-4.55,3.07-9.26,6.07-13.87,9.31-4.57,3.31-9.2,6.66-13.88,10.06-4.61,3.49-9.16,7.16-13.83,10.8-1.16.92-2.32,1.83-3.49,2.75-1.13.97-2.26,1.93-3.39,2.91-2.27,1.94-4.55,3.88-6.85,5.85-1.14.98-2.3,1.96-3.44,2.94l-1.73,1.48-1.67,1.55c-2.23,2.07-4.47,4.14-6.72,6.22-2.25,2.09-4.5,4.18-6.77,6.29-2.18,2.19-4.36,4.39-6.56,6.59-2.19,2.21-4.4,4.42-6.6,6.64-1.12,1.1-2.16,2.27-3.22,3.43l-3.02,3.3c-2.74,2.33-4.82,7.53-8.47,3.59-.8-.5-1.54-1.09-2.31-1.61l-1.13-.8-1.27-1.09c-1.08-.95-2.23-1.82-3.28-2.8l-3.08-3.08c-3.97-4.27-7.68-8.88-10.84-14l-1.23-1.88-1.13-1.96-2.26-3.93c-1.39-2.73-2.86-5.38-4.13-8.2-2.67-5.53-5.02-11.33-7.3-17.16-2.26-5.86-4.4-11.83-6.52-17.85l-3.22-9.12c-1.11-3.1-2.27-6.18-3.51-9.26-4.9-12.29-10.75-24.38-18.35-35.7-3.82-5.65-8.1-11.08-13-16.09-4.91-4.98-10.44-9.57-16.67-13.25-6.18-3.73-13.08-6.5-20.17-8.12-7.09-1.51-14.44-2.11-21.53-1.43-7.07.63-13.85,2.21-20.22,4.32-6.39,2.09-12.34,4.77-17.98,7.68-11.29,5.81-21.28,12.55-30.71,19.06-10.15,7.06-20.01,13.92-29.56,20.56,31.41-77.6,68.66-152.57,118.32-220.08,8.12-11.05,48.5-48.51,61.9-69.56,21.14-16.58,43.97-30.86,66.99-44.65,20.72-12.4,41.85-24.48,62.34-37.44,1.33.47,2.89,1.02,4.7,1.66,1.23.43,2.57.91,4,1.41,1.42.54,2.95,1.12,4.57,1.74,1.62.62,3.35,1.27,5.16,1.96,1.8.74,3.69,1.5,5.67,2.32,3.98,1.56,8.21,3.51,12.81,5.52,2.29,1.03,4.62,2.17,7.05,3.3,1.21.57,2.44,1.16,3.69,1.75,1.24.63,2.48,1.26,3.76,1.9,10.16,5.11,21.29,11.2,32.87,18.53,2.87,1.87,5.8,3.77,8.77,5.69,2.95,1.97,5.89,4.06,8.91,6.14,2.98,2.13,5.96,4.35,9.01,6.58,3.02,2.27,6.08,4.64,9.2,7.08,12.5,9.73,25.87,20.77,41.87,30.07,8.03,4.6,16.75,8.66,26.1,11.52,9.38,2.81,19.2,4.3,28.99,4.48,19.62.36,38.87-4.27,56.36-11.71,8.76-3.73,17.14-8.17,25.1-13.11l2.99-1.85,2.91-1.96c1.94-1.31,3.87-2.6,5.68-3.91,3.66-2.59,7.2-5.09,10.77-7.3,7.08-4.4,14.41-7.76,21.33-7.49,3.45.13,6.8,1.02,9.87,2.74,3.06,1.75,5.92,4.16,8.42,7.07,5.09,5.79,9,12.87,12.8,20.01,3.85,7.08,7.4,14.13,10.78,21.01,6.74,13.79,12.52,27.11,17.48,39.56,9.92,24.9,16.39,46.29,20.52,61.34,1.06,3.76,1.91,7.14,2.66,10.07.77,2.93,1.38,5.44,1.86,7.48.97,4.07,1.48,6.23,1.48,6.23,0,0-.4-2.19-1.14-6.31-.36-2.07-.83-4.6-1.43-7.57-.6-2.98-1.25-6.41-2.11-10.22-3.3-15.3-8.61-37.1-17.22-62.71-4.3-12.8-9.39-26.57-15.45-40.88-3.05-7.15-6.24-14.48-9.75-21.88-3.44-7.35-7.12-15.21-12.82-22.49-2.82-3.64-6.32-7.07-10.58-9.82-4.27-2.74-9.42-4.49-14.64-4.95-5.26-.5-10.48.41-15.2,1.9-4.76,1.51-9.14,3.59-13.27,5.86-4.13,2.26-8.04,4.73-11.83,7.12-1.9,1.21-3.76,2.32-5.62,3.43l-2.79,1.67-2.86,1.56c-7.62,4.18-15.54,7.83-23.66,10.78-16.23,5.92-33.41,8.91-49.77,7.71-8.18-.6-16.09-2.26-23.52-4.92-7.44-2.73-14.5-6.45-21.22-10.79-13.44-8.79-25.53-19.75-37.66-30.32-3.05-2.65-6.09-5.27-9.16-7.85-3.11-2.53-6.16-5.06-9.22-7.5-3.09-2.38-6.11-4.76-9.15-7.02-3.07-2.23-6.08-4.41-9.03-6.56-11.94-8.46-23.5-15.59-34.1-21.62-1.33-.76-2.64-1.5-3.92-2.24-1.31-.7-2.59-1.4-3.86-2.08-2.54-1.35-4.98-2.71-7.39-3.92-4.82-2.4-9.28-4.71-13.48-6.6-1.86-.86-3.62-1.69-5.32-2.49,14.39-10.47,28.15-21.77,40.85-34.42,18.59-18.53,34.51-39.62,53.59-57.63,19.08-18.03,42.28-33.23,68.34-36.23,29.28-3.37,57.93,9.02,82.71,25.45,12.38,11.19,24.77,22.4,37.16,33.6,26.95,24.37,53.85,48.69,80.27,72.58,13.21,11.95,26.31,23.78,39.24,35.47,6.49,5.85,12.81,11.63,19.39,17.47,6.58,5.81,13.46,11.55,20.91,16.71,7.47,5.15,15.4,9.72,24.16,12.99,8.68,3.22,17.8,5.17,27.08,5.24,9.23.12,18.68-1.63,27.06-5.8,4.18-2.04,8.02-4.59,11.45-7.43s6.43-6.01,9.14-9.24c5.41-6.5,9.57-13.38,13.31-20.1,3.73-6.76,7.05-13.27,10.45-19.69,6.76-12.86,13.28-25.26,19.53-37.17,50.05-95.25,83.21-158.34,83.21-158.34,0,0-36.56,61.18-91.77,153.55-6.89,11.55-14.09,23.58-21.54,36.04-3.73,6.21-7.49,12.66-11.36,18.83-3.9,6.17-8.03,12.16-12.81,17.28-4.75,5.16-10.19,9.36-16.25,11.88-6.01,2.59-12.86,3.5-19.82,3.05-6.98-.43-14.07-2.33-20.78-5.26-6.65-2.89-13.17-7.07-19.34-11.87-6.21-4.82-12.17-10.33-18.14-16.23-5.96-5.89-12.09-12.13-18.22-18.29-12.27-12.37-24.71-24.9-37.25-37.54-25.1-25.28-50.63-51.02-76.23-76.81-12.8-12.89-25.62-25.81-38.41-38.69-12.89-12.97-26.65-26.54-43.65-37.86-8.52-5.62-17.96-10.68-28.55-14.14-10.54-3.48-22.34-5.18-33.99-4.18-5.81.56-11.59,1.57-17,3.21-5.39,1.62-10.61,3.59-15.38,5.94l-1.81.86-1.74.91c-1.16.62-2.33,1.21-3.45,1.84-2.2,1.28-4.47,2.56-6.55,3.91-4.28,2.66-8.21,5.46-12.04,8.26-.32.23-.62.48-.93.71.58-2.39,1.18-4.85,1.79-7.4,2.29-9.31,4.7-19.95,7.51-30.61,2.88-10.64,6.37-21.54,12.06-31.33,5.52-9.52,13.85-18.39,23.99-23.01,2.53-1.13,5.14-1.98,7.83-2.54,2.66-.6,5.52-.7,8.46-.72,5.95.2,12.38,1.48,19.2,3.4,6.81,1.86,14,4.19,21.77,5.93,1.9.47,3.94.79,5.92,1.18l3.06.43c1.02.15,2.04.28,3.09.34l3.13.23h3.16c1.05,0,2.1.04,3.15-.02l3.13-.26c8.33-.77,16.32-3.05,23.65-6.22,7.35-3.17,14.05-7.27,20.23-11.74,12.37-8.97,22.66-19.6,31.82-30.15,18.4-21.22,32.33-43.38,42.11-63.23,1.28-2.45,2.4-4.92,3.51-7.33,1.11-2.4,2.23-4.73,3.17-7.06.98-2.31,1.94-4.57,2.86-6.77.85-2.22,1.68-4.38,2.48-6.46.4-1.04.79-2.08,1.18-3.08.35-1.03.7-2.03,1.05-3.01.68-1.97,1.34-3.87,1.97-5.69,1.19-3.68,2.2-7.07,3.15-10.13.84-3.08,1.59-5.83,2.24-8.23.67-2.39,1.08-4.46,1.49-6.11.78-3.33,1.2-5.09,1.2-5.09,0,0-.54,1.74-1.54,5.01-.52,1.62-1.07,3.65-1.9,5.99-.8,2.33-1.74,5.02-2.78,8.03-1.16,2.98-2.39,6.27-3.8,9.84-.75,1.76-1.53,3.61-2.33,5.51-.41.96-.82,1.93-1.24,2.91-.45.97-.91,1.96-1.38,2.96-.93,2.01-1.89,4.08-2.88,6.22-1.06,2.1-2.15,4.26-3.28,6.48-1.08,2.23-2.35,4.45-3.59,6.74-1.25,2.29-2.51,4.63-3.93,6.97-10.89,18.84-25.96,39.53-45.07,58.8-9.57,9.65-19.97,18.97-31.7,26.33-5.85,3.66-11.98,6.85-18.34,9.1-6.35,2.26-12.9,3.62-19.38,3.77-12.86.57-25.5-4.94-39.89-9.96-7.15-2.5-14.97-4.77-23.44-5.62-4.27-.29-8.62-.4-13.01.23-4.35.6-8.6,1.67-12.61,3.16-3.99,1.52-7.76,3.41-11.28,5.54-3.51,2.15-6.74,4.59-9.77,7.16-6.01,5.19-11.07,11.1-15.27,17.31-2.07,3.07-3.9,6.18-5.6,9.3-1.66,3.12-3.19,6.23-4.55,9.31-2.73,6.16-4.94,12.16-6.87,17.87-3.83,11.48-6.77,21.56-9.66,30.79-2.83,9.23-5.36,17.41-7.48,24.3-3.37,10.99-5.76,18.84-6.91,22.75-6.29,4.95-12.52,9.85-18.68,14.69-6.36,4.99-12.76,9.79-19.02,14.61-25.18,19.1-49.5,36.74-72.46,52.7-51.3,35.57-95.53,62.95-126.25,81.26,23.04-46.99,45.13-92.03,66.06-134.71,6.48-13.21,12.83-26.17,19.08-38.92,2.42-2.81,5.33-5.83,8.89-8.84,6.39-5.45,14.76-10.79,24.56-14.61.61-.27,1.23-.5,1.86-.69.63-.21,1.26-.41,1.89-.62,1.27-.39,2.53-.91,3.85-1.2,2.61-.62,5.27-1.39,8.02-1.73l2.05-.34c.69-.13,1.38-.23,2.07-.27,1.39-.12,2.78-.22,4.18-.34,1.33-.15,3-.13,4.64-.21,1.67-.06,3.42-.14,5.27-.34.48-.04.89-.11,1.47-.18.6-.07,1.17-.15,1.74-.26,1.14-.19,2.25-.46,3.35-.77,2.18-.63,4.25-1.56,6.09-2.8,1.84-1.23,3.43-2.79,4.69-4.55,1.26-1.77,2.14-3.78,2.73-5.85.29-1.03.52-2.08.7-3.13.08-.53.16-1.05.23-1.57l.09-.78.06-.62c.12-1.53.23-3.05.35-4.56.22-2.99.45-5.94.68-8.83.88-11.57,1.69-22.35,2.39-31.59,1.39-18.42,2.31-30.66,2.31-30.66,0,0-2.86,11.95-7.16,29.9-2.15,9.01-4.67,19.53-7.36,30.81-.68,2.82-1.36,5.71-2.05,8.61-.35,1.43-.7,2.89-1.05,4.35l-.13.5-.11.34-.22.65c-.15.43-.33.85-.51,1.26-.39.82-.86,1.57-1.49,2.18-.64.61-1.39,1.09-2.19,1.39s-1.66.46-2.5.5c-.42.01-.83.02-1.24,0-.2,0-.41-.02-.58-.05l-.86-.05c-1.25-.07-2.63-.22-4.06-.4-1.47-.16-2.91-.42-4.69-.54-1.71-.13-3.43-.27-5.14-.4-.86-.08-1.71-.09-2.57-.08h-2.57c-3.44-.08-6.81.29-10.19.57-1.69.12-3.33.48-4.98.71-.83.13-1.66.27-2.47.4-.83.12-1.64.28-2.44.49-2.31.5-4.56,1.1-6.78,1.73,12.94-26.39,25.31-51.61,37.05-75.59,1.46-2.3,2.91-4.57,4.4-6.74,5.32-7.7,10.69-15.37,16.11-22.98,11.05-15.53,22.31-30.92,33.78-46.14,10.65-14.14,22.34-28.81,38.91-35.08,5.5-2.08,11.25-3.12,17.1-3.58,5.57.82,11.73,2.19,18.46,2.91,9.03.92,17.98.32,26.4-1.35,4.21-.82,8.28-1.96,12.24-3.21,3.93-1.29,7.72-2.78,11.35-4.38,14.55-6.49,26.38-15.04,35.9-22.73,9.5-7.76,16.82-14.74,21.97-19.58,5.1-4.88,8-7.67,8-7.67,0,0-3.22,2.4-8.88,6.63-5.67,4.18-13.78,10.2-23.95,16.63-10.17,6.37-22.52,13.13-36.54,17.42-3.5,1.05-7.09,1.97-10.75,2.71-3.66.69-7.37,1.25-11.11,1.52-7.48.56-15.02.12-22.19-1.5-7.15-1.56-14.79-4.71-23.99-6.45-2.29-.43-4.69-.75-7.16-.89-1.24-.11-2.47-.06-3.71-.05-1.24.01-2.48.02-3.7.18-4.94.36-9.66,1.53-14.06,3.06-2.24.72-4.29,1.66-6.38,2.56-1.98.98-4.01,1.94-5.86,3.02-2.37,1.31-4.58,2.71-6.72,4.13,49.05-100.04,77.62-158.33,77.62-158.33,0,0-21.53,33.08-59.8,91.9-20.44,26.2-40.89,52.4-61.33,78.6-8.28,10.62-16.65,21.37-22.11,33.67-2.37,5.34-4.91,11.64-10.52,13.27-1.41.41-3.17.05-5.02-.64-.99-1.62-2.01-3.28-3.07-5.01-2.75-4.49-5.72-9.33-8.86-14.43-2.94-4.85-5.52-9.58-6.94-14.2-.69-2.32-1.13-4.53-1.19-7.01-.07-2.46.19-5.1.76-7.85,1.14-5.51,3.51-11.38,6.37-17.27,5.82-11.89,12.97-24.15,17.26-36.88,2.16-6.37,3.59-12.74,4-18.99.41-6.25-.43-12.09-1.84-17.22-1.43-5.13-3.56-9.56-5.97-13.08-2.42-3.54-5.11-6.11-7.49-7.96-1.25-.85-2.3-1.67-3.36-2.17-1.03-.54-1.87-1.05-2.63-1.29-1.47-.58-2.25-.89-2.25-.89,0,0,.72.42,2.09,1.2.7.35,1.46.97,2.37,1.63.95.62,1.84,1.56,2.91,2.53,1.99,2.08,4.14,4.84,5.87,8.4,1.74,3.55,3.07,7.84,3.67,12.61.58,4.76.56,10.02-.57,15.3-.54,2.6-1.39,5.33-2.36,8.03-1.04,2.68-2.19,5.39-3.58,8.07-2.74,5.38-6.16,10.71-9.89,16.11-3.73,5.41-7.78,10.85-11.78,16.72-3.98,5.92-7.88,12.34-10.63,19.81-1.36,3.72-2.43,7.71-2.93,11.89-.54,4.17-.41,8.56.19,12.6,1.23,8.12,3.99,14.96,6.45,20.8,2.44,5.59,4.75,10.9,6.88,15.81,8.55,19.55,14.62,33.3,15.61,35.2.15.29.33.56.49.84-20.06,30.81-41.58,63.89-64.39,98.95-.91-4.04-1.9-8.06-2.91-12.09-7.08-28.51-14.18-57.03-21.26-85.54-2.09-8.39-4.3-17.07-9.66-23.86-6.02-7.64-15.27-11.96-24.42-15.27-27.07-9.81-56.43-13.21-85.02-9.84-7.3.86-14.9,2.14-21.85-.26-7.89-2.71-9.46-13.09-12.52-20.85h0c-.77-5.33-1.6-11.04-2.47-17.06-.58-4.12-1.04-8.06-1.03-11.62.01-3.58.47-6.66,1.6-9.31,1.12-2.71,3.08-5.39,5.92-7.83,2.82-2.43,6.45-4.55,10.5-6.16,2.03-.79,4.15-1.49,6.35-2.03,2.26-.55,4.64-.99,7.11-1.35,4.94-.7,10.21-1.05,15.74-1.34,5.52-.29,11.32-.54,17.28-1.13,6.02-.62,12.04-1.69,17.96-3.28,5.9-1.6,11.71-3.72,17.23-6.53,5.5-2.82,10.7-6.35,15.24-10.58,4.55-4.2,8.38-9.21,11.21-14.37,2.88-5.17,4.95-10.45,6.69-15.59,1.73-5.15,3.13-10.15,4.54-14.98,1.41-4.85,2.79-9.59,4.12-14.2,2.67-9.22,5.2-17.93,7.54-25.96,9.31-32.1,15.48-53.4,15.48-53.4,0,0-8.03,20.67-20.14,51.82-3.02,7.79-6.31,16.25-9.79,25.2-1.74,4.48-3.52,9.08-5.36,13.79-1.84,4.71-3.65,9.52-5.68,14.16-2.03,4.66-4.32,9.17-7.08,13.25-2.75,4.1-6.02,7.62-9.88,10.61-3.85,2.99-8.2,5.43-12.87,7.33-4.68,1.88-9.66,3.23-14.75,4.14-5.1.91-10.3,1.38-15.53,1.46-5.3.07-10.75-.16-16.39-.36-11.25-.34-23.4-.7-35.9,3.01-6.09,1.83-12.03,4.49-17.45,8.34-5.41,3.82-10.31,8.97-13.64,15.16-3.42,6.22-4.82,12.87-5.36,18.64-.52,5.83-.29,11.01-.05,15.65,1.11,17.72,2.04,32.75,2.72,43.67.44,6.84.79,12.15,1.04,15.61-5.11,1.39-10.15,2.57-15.13,3.45-1.2.25-2.38.42-3.56.57l-3.55.49-3.5.3c-.58.05-1.17.12-1.75.15l-1.71.05c-4.63.29-9.07-.12-13.5-.62-8.69-1.38-17.15-4.35-25.06-9.32-4-2.35-7.77-5.3-11.48-8.35-1.79-1.63-3.65-3.16-5.37-4.92-.88-.86-1.76-1.7-2.61-2.58l-2.53-2.71c-6.73-7.25-12.71-15.44-18.25-23.85-1.39-2.1-2.71-4.26-4.05-6.39-1.28-2.19-2.57-4.39-3.84-6.57-1.27-2.19-2.58-4.35-3.8-6.55-1.19-2.22-2.37-4.42-3.54-6.63-18.77-35.29-30.86-71.19-39.01-102.42-8.02-31.31-12.46-58.03-15.11-76.73-.63-4.69-1.19-8.87-1.68-12.51-.49-3.64-.8-6.74-1.11-9.26-.58-5.03-.9-7.71-.9-7.71,0,0,.07,2.7.2,7.76.08,2.53.12,5.66.27,9.33s.34,7.9.54,12.64c.95,18.94,2.94,46.06,8.19,78.51,5.39,32.36,14.35,70.18,30.66,108.9,1.03,2.42,2.05,4.84,3.09,7.28,1.07,2.42,2.24,4.81,3.37,7.23,1.14,2.42,2.29,4.85,3.43,7.29,1.23,2.43,2.44,4.88,3.75,7.3,5.22,9.71,11.01,19.44,18.17,28.7l2.7,3.47c.93,1.14,1.9,2.26,2.86,3.4,1.87,2.3,4,4.43,6.06,6.65,4.29,4.27,8.8,8.48,13.91,12.18,9.96,7.62,22.11,13.44,34.91,16.63,6.38,1.41,12.9,2.5,19.27,2.72l2.4.14c.79.04,1.58.01,2.37.02h4.75l4.67-.21c1.56-.07,3.11-.15,4.62-.33,12.25-1.06,23.82-3.35,34.76-5.79,5.37-1.23,10.71-2.45,16.04-3.66,2.57-.57,5.18-1.19,7.7-1.71l3.78-.81,3.58-.7c9.46-1.75,18.81-2.67,27.57-2.54,8.74.13,16.88,1.34,23.5,3.71,6.66,2.36,11.59,5.67,15.09,9.68,1.79,2.03,3.21,4.18,4.52,6.71,1.3,2.52,2.44,5.41,3.41,8.6,1.28,4.17,2.29,8.81,3.15,13.74-3.71-1.41-7.95-3-12.79-4.63-6.84-2.23-14.86-4.68-24.51-5.64-4.81-.47-10.01-.51-15.41.22-5.41.72-10.9,2.33-16.1,4.63-10.36,4.8-19.06,12.44-25.78,20.95-6.84,8.52-12.16,17.87-16.79,27.37-4.56,9.44-8.56,18.67-13.27,27.3-4.66,8.62-10,16.56-16.66,22.68-3.33,3.06-6.94,5.72-10.84,7.75-3.91,2.04-8.09,3.56-12.38,4.54-8.6,1.98-17.48,1.97-25.75.81-8.3-1.17-15.98-3.58-22.88-6.41-13.8-5.72-24.48-12.62-31.92-17.31-3.71-2.38-6.6-4.31-8.58-5.6-1.97-1.31-3.02-2.01-3.02-2.01,0,0,.98.79,2.81,2.29,1.83,1.48,4.53,3.68,8,6.42,3.48,2.74,7.73,6.03,12.8,9.61,5.08,3.57,10.97,7.43,17.83,11.05,6.84,3.61,14.71,6.98,23.57,9.11,8.83,2.11,18.64,3.15,28.88,1.82,5.11-.67,10.3-1.97,15.34-4.01,5.06-2.04,9.86-4.88,14.28-8.23,8.88-6.72,15.95-15.45,21.91-24.34,6.01-8.88,11.1-18.14,16.22-26.55,2.54-4.15,5.18-8.16,7.93-11.9,2.77-3.72,5.66-7.18,8.66-10.27,5.96-6.25,12.52-10.59,18.83-12.8,1.61-.44,3.15-.99,4.74-1.19.78-.14,1.55-.33,2.33-.36.78-.07,1.54-.18,2.33-.16,3.1-.11,6.24.21,9.35.82,6.22,1.2,12.33,3.59,17.93,6.02,5.61,2.47,10.82,5.05,15.39,7.25,5.1,2.45,9.14,4.38,11.98,5.73.85,4.11,1.86,9.37,2.87,15.4.98,6.85,1.9,13.35,2.78,19.45,2.51,21.61,3.41,46.73-2.15,64.62-11.82,38.1-66.87,102.89-78.03,125.18-11.14,22.3-54.3,82.31-65.16,98.61-4.71,7.08-12.08,21.77-19.94,35.14-2.59-5.24-5.44-10.99-8.51-17.2-3.26-6.57-6.77-13.64-10.45-21.09-1.84-3.71-3.73-7.51-5.66-11.4-.96-1.94-1.94-3.9-2.92-5.87-.97-1.95-1.89-3.83-2.74-5.67-1.7-3.69-3.11-7.27-3.85-10.62-.37-1.67-.58-3.28-.62-4.83-.02-.78,0-1.53.11-2.3.14-.76.27-1.53.36-2.31.73-3.09,2.37-6.36,4.68-9.68,2.3-3.33,5.23-6.69,8.34-10.15,3.14-3.48,6.46-7.11,9.6-11.15,3.09-4.06,6.11-8.54,8.02-13.77.9-2.61,1.68-5.29,2.04-8.02.32-2.72.44-5.44.17-8.06-.41-5.26-1.87-10.1-3.69-14.49-3.67-8.81-8.87-15.97-13.73-22.45-4.94-6.49-9.91-12.33-14.7-17.51-9.6-10.36-18.43-18.03-24.78-23.12-3.17-2.56-5.72-4.48-7.47-5.76s-2.68-1.97-2.68-1.97c0,0,.85.78,2.46,2.24,1.6,1.47,3.92,3.64,6.79,6.5,5.73,5.71,13.63,14.19,21.91,25.26,4.13,5.54,8.34,11.73,12.45,18.47,2.03,3.4,4.08,6.87,5.87,10.49,1.81,3.62,3.41,7.37,4.54,11.22,2.36,7.7,2.52,15.68-.93,22.21-1.62,3.35-4.19,6.48-7.11,9.56-2.94,3.08-6.31,6.09-9.84,9.25-3.55,3.2-7.25,6.59-10.76,10.65-3.49,4.05-6.85,8.9-8.95,14.72-.44,1.48-.86,2.98-1.27,4.48-.36,1.51-.6,3.07-.73,4.6-.29,3.07-.21,6.09.11,8.95.64,5.74,2.16,10.83,3.71,15.45.78,2.31,1.61,4.52,2.39,6.62.77,2.07,1.54,4.12,2.31,6.15,1.52,4.06,3.01,8.04,4.47,11.92,2.93,7.78,5.7,15.18,8.27,22.04,5.17,13.76,9.59,25.46,12.86,34.07-.17.23-.35.47-.54.7-12.94,10.38-23.5,23.96-32.6,37.98-12.71,19.57-23.31,40.57-37.87,58.79-3.35,4.19-7.71,8.58-13.06,8.21-6.6-.44-10.3-7.61-12.8-13.73-9.25-22.69-19.79-44.85-31.51-66.37-21.3-39.1-46.53-76.06-75.16-110.16-10.99-13.09-22.48-25.75-34.45-37.95-3.93-11.14-8.47-23.36-14.46-36.02-.76-1.64-1.52-3.31-2.3-4.99-.76-1.68-1.66-3.33-2.5-5.01-1.71-3.35-3.42-6.76-5.23-10.19-1.9-3.37-3.83-6.79-5.78-10.27-.49-.86-.98-1.73-1.47-2.6-.52-.85-1.05-1.7-1.59-2.57-1.06-1.71-2.12-3.44-3.21-5.17-8.67-13.8-18.57-27.73-29.89-41.11-5.52-6.55-10.85-12.53-15.7-18.59-4.81-6.02-9.24-12.03-12.33-17.91-.74-1.46-1.56-2.94-2.11-4.38-.29-.72-.66-1.45-.92-2.16l-.72-2.12c-.12-.35-.28-.71-.36-1.06l-.24-1.04-.54-2.08c-.08-.68-.18-1.35-.28-2.03l-.18-1.03-.02-1c-.02-.67-.05-1.34-.09-2.03.01-.68.12-1.34.15-2.02-.01-1.38.37-2.68.57-4.05.71-2.67,1.68-5.4,3.21-8.16,3.06-5.52,7.89-11.11,13.65-16.52,1.79-1.7,3.68-3.41,5.6-5.11,1.53-.32,3.14-.62,4.88-.85,1.91-.37,3.97-.49,6.1-.71,2.13-.28,4.4-.23,6.73-.35,1.17-.08,2.36,0,3.57.02,1.21.04,2.44.07,3.7.09,1.25.12,2.51.23,3.79.35,1.28.11,2.59.21,3.88.46,1.31.2,2.63.41,3.97.61,1.33.22,2.66.57,4.01.85,2.73.5,5.38,1.43,8.14,2.18,5.39,1.86,10.87,4.07,16.07,7.01,5.29,2.91,10.7,6.65,16.78,9.95,3.05,1.64,6.27,3.19,9.73,4.39,3.45,1.19,7.18,2.02,10.98,2.14,3.79.15,7.63-.46,11.06-1.68,3.45-1.21,6.52-2.94,9.23-4.85,5.4-3.87,9.52-8.37,13.25-12.52,3.66-4.17,7.12-8.09,10.3-11.71,12.69-14.53,20.97-24.28,20.97-24.28,0,0-9.72,8.32-24.19,21.08-3.61,3.2-7.51,6.66-11.66,10.34-4.1,3.62-8.44,7.3-13.22,10.01-4.8,2.68-9.91,4.14-15.03,3.4-5.12-.65-10.27-3.22-15.37-6.53-5.13-3.3-10.2-7.36-15.97-11.06-5.81-3.78-11.99-6.72-18.17-9.17-3.15-1.04-6.21-2.24-9.33-2.98-1.55-.4-3.08-.85-4.62-1.18-1.54-.3-3.07-.6-4.59-.89-1.51-.33-3.01-.5-4.5-.68s-2.96-.36-4.4-.54c-1.46-.08-2.89-.16-4.29-.25-.6-.04-1.18-.07-1.75-.09,1.06-.98,2.11-1.97,3.15-2.98,1.59-1.59,3.2-3.14,4.73-4.75,1.52-1.63,3.02-3.26,4.52-4.87,5.88-6.57,11.19-13.45,15.96-20.45,9.54-14.01,16.91-28.58,22.27-42.86,2.72-7.13,4.96-14.19,6.73-21.09,1.81-6.9,3.22-13.62,4.21-20.11,2.1-12.97,2.65-24.98,2.44-35.53-.21-10.56-1.26-19.67-2.5-27.07-.29-1.86-.6-3.61-.95-5.24-.33-1.63-.64-3.16-.93-4.59-.69-2.82-1.24-5.23-1.76-7.15-1.09-3.84-1.67-5.88-1.67-5.88,0,0,.34,2.1.97,6.03.29,1.97.56,4.41.91,7.27.13,1.43.26,2.98.4,4.62.16,1.64.26,3.4.33,5.24.76,14.72-.09,36.07-6.85,60.24-1.65,6.03-3.71,12.22-6.15,18.47-2.4,6.27-5.25,12.6-8.52,18.9-6.49,12.64-14.76,25.14-24.75,36.72-4.99,5.79-10.4,11.34-16.23,16.51-1.48,1.26-2.96,2.53-4.45,3.8-1.49,1.26-3.07,2.44-4.59,3.66-3.13,2.39-6.27,4.66-9.66,6.97-6.8,4.66-14.14,9.29-21.6,14.91-7.41,5.58-15.1,12.19-21.62,21.12-3.24,4.47-6.02,9.6-8.17,15.1-1.18,3.58-2.51,7.16-2.75,11.01-.12.07-.1.06-.22.13-3.47-1.94-7-3.97-10.16-6.29-.9-.63-1.66-1.31-2.53-1.97-.84-.68-1.51-1.4-2.32-2.11-.76-.72-1.34-1.52-2.08-2.28-.64-.81-1.28-1.62-1.84-2.54-1.17-1.82-2.19-3.9-3.06-6.24-.85-2.35-1.52-4.95-2.03-7.72-1.02-5.58-1.32-11.84-1.24-18.45.08-6.69.46-13.8.34-21.16-.12-7.35-.78-15-2.86-22.37-2.04-7.41-5.57-14.06-9.64-19.69-8.2-11.34-18.53-18.89-27.49-24.3-9.04-5.4-16.93-8.89-22.4-11.39-5.5-2.42-8.63-3.8-8.63-3.8,0,0,2.91,1.81,7.99,4.99,5.04,3.23,12.33,7.82,20.22,14.21,3.93,3.2,7.99,6.88,11.77,11.14,3.79,4.25,7.33,9.08,10.12,14.41,2.8,5.32,4.82,11.12,5.58,17.09.79,6.02.49,12.37-.34,18.91-.82,6.56-2.12,13.31-3.22,20.36-1.09,7.14-1.84,14.53-1.56,22.13.14,3.8.55,7.65,1.33,11.49.8,3.84,1.99,7.65,3.61,11.29.78,1.83,1.74,3.59,2.72,5.29,1.06,1.62,2.08,3.31,3.21,4.8,1.16,1.42,2.27,2.94,3.45,4.22,1.19,1.25,2.36,2.56,3.54,3.68,4.73,4.59,9.23,7.91,13.02,10.75,3.83,2.84,7.01,5.11,9.47,7.02,4.95,3.82,7.28,6.11,7.86,6.66.66.61,1.4,1.07,2.22,1.45h.01c.42,1.16.9,2.21,1.37,3.29l1.56,3.51c1.11,2.21,2.19,4.5,3.36,6.62,1.17,2.1,2.32,4.27,3.54,6.24l1.81,3.02,1.83,2.91c4.87,7.71,9.88,14.78,14.26,21.36,8.56,12.79,15.79,25.87,21.95,38.62.62,1.29,1.23,2.58,1.83,3.86-37.57-34.85-96.15-61.69-123.32-82.59-33.44-25.73-82.31-104.17-99.03-124.75s-68.17-128.61-68.17-128.61l-30.79-88.19c-1.75-11.28-3.65-23.4-5.66-36.24-2.68-17.15-5.58-35.58-8.62-54.96-.75-4.77-1.51-9.6-2.26-14.49-.7-4.63-1.28-9.14-1.65-13.48-.76-8.66-.54-16.72,1.23-22.63.86-2.99,2.01-5.44,3.57-7.62,1.54-2.16,3.48-4.03,6.11-5.68,5.22-3.34,13.3-5.31,22.07-5.53,2.19-.06,4.43-.03,6.7.12,1.13.08,2.27.13,3.41.27,1.13.12,2.27.23,3.51.42,4.85.67,9.92,1.66,15.19,2.79,10.55,2.24,21.91,5.16,34.36,6.65,6.2.77,12.71,1.06,19.2.81,6.49-.29,12.9-1.25,19.13-2.68,1.62-.36,3.22-.78,4.81-1.24.43.06.86.12,1.31.19,2.36.27,4.96.81,7.84,1.34,5.71,1.25,12.37,3.13,19.54,6.14,1.82.69,3.58,1.63,5.45,2.46,1.84.9,3.68,1.91,5.58,2.93,3.69,2.19,7.53,4.54,11.22,7.42,7.5,5.59,14.76,12.8,21.23,21.32,3.21,4.28,6.16,8.93,8.87,13.83,2.67,4.94,4.97,10.17,6.94,15.65,2.02,5.47,3.36,11.15,4.52,17.1,1.1,6.04,1.88,12.88,3.99,20.1,1.07,3.61,2.45,7.26,4.57,10.91,2.1,3.55,4.71,6.79,7.96,9.57,1.6,1.4,3.42,2.63,5.34,3.72,1.96,1.06,4.08,1.94,6.34,2.53,2.27.54,4.63.88,7.01.76,2.35-.11,4.66-.49,6.81-1.23,4.38-1.4,7.92-3.86,10.89-6.44,2.94-2.61,5.34-5.43,7.51-8.24,1.06-1.4,2.1-2.81,3.07-4.2l2.84-4.06c1.88-2.7,3.75-5.37,5.61-8.04,7.43-10.68,14.74-21.18,21.79-31.31,14.06-20.3,27.15-39.19,38.35-55.36,22.3-32.36,37.08-53.84,37.08-53.84,0,0-16.31,20.34-40.89,51.01-12.26,15.38-26.59,33.36-41.99,52.65-7.69,9.68-15.63,19.69-23.72,29.88-2.02,2.56-4.05,5.11-6.09,7.68l-3.05,3.84c-.99,1.25-1.98,2.44-2.99,3.61-2.01,2.29-4.07,4.4-6.2,6.06-2.12,1.63-4.27,2.84-6.29,3.3-1,.29-2.01.35-2.98.34-.95,0-1.89-.25-2.84-.5-.95-.33-1.88-.78-2.81-1.35-.91-.63-1.83-1.28-2.67-2.14-1.7-1.63-3.2-3.71-4.32-5.92-1.09-2.12-1.95-4.73-2.59-7.47-1.29-5.5-1.74-11.71-2.55-18.43-.92-6.8-2.19-13.69-4.2-20.17-1.96-6.51-4.36-12.8-7.2-18.75-2.88-5.93-6.09-11.55-9.64-16.8-7.15-10.44-15.39-19.46-24.15-26.65-4.32-3.68-8.86-6.77-13.24-9.63-2.25-1.34-4.43-2.67-6.63-3.86-2.23-1.12-4.34-2.35-6.51-3.29-1.73-.82-3.42-1.55-5.09-2.25,8.88-6.01,16.77-13,23.71-20.52,7.84-8.52,14.51-17.71,20.06-27.25,1.43-2.36,2.67-4.82,3.98-7.21,1.19-2.46,2.46-4.85,3.54-7.33,2.27-4.89,4.18-9.88,5.9-14.85,1.7-4.98,3.1-10,4.28-14.99.3-1.25.54-2.51.8-3.76.26-1.25.54-2.5.7-3.72.38-2.46.77-4.91,1.16-7.35.44-2.42.6-4.85.86-7.26.22-2.4.55-4.78.66-7.15.2-4.74.58-9.39.49-13.97v-6.79c-.09-2.24-.19-4.45-.28-6.64-.1-4.39-.58-8.66-.9-12.85-1.55-16.72-4.4-31.72-7.27-44.86-2.92-13.14-5.93-24.42-8.45-33.69-2.54-9.26-4.64-16.49-6.07-21.42-1.43-4.92-2.19-7.55-2.19-7.55,0,0,.52,2.68,1.52,7.71.98,5.04,2.41,12.43,4.13,21.85,1.67,9.43,3.65,20.9,5.37,34.09,1.67,13.2,3.13,28.13,3.17,44.37-.06,4.05.04,8.19-.24,12.39-.09,2.1-.2,4.21-.3,6.35-.19,2.12-.38,4.27-.58,6.43-.29,4.33-1.06,8.67-1.63,13.08-.3,2.21-.82,4.4-1.21,6.62-.44,2.21-.78,4.46-1.4,6.65-.55,2.21-1.11,4.43-1.67,6.67-.26,1.13-.61,2.22-.93,3.3-.34,1.1-.64,2.19-1.02,3.28-1.46,4.36-3.1,8.72-5.01,13.01-1.94,4.28-4,8.55-6.41,12.69-1.13,2.1-2.45,4.12-3.69,6.18-1.35,2-2.61,4.06-4.06,6.01-11.17,15.79-25.99,29.82-43.27,38.64-4.29,2.23-8.75,4.07-13.28,5.54-4.53,1.46-9.12,2.61-13.78,3.22-4.64.63-9.29.9-13.92.69-4.61-.26-9.23-.85-14.02-1.89-9.58-2.01-19.64-5.47-30.59-8.87-5.48-1.69-11.21-3.36-17.26-4.76-1.48-.36-3.07-.68-4.67-.99-1.59-.34-3.2-.57-4.81-.83-3.22-.49-6.5-.84-9.81-1.06-6.63-.42-13.44-.26-20.44.78-6.98,1.05-14.18,3-21.18,6.39-6.98,3.35-13.7,8.23-19.11,14.23-5.44,5.94-9.57,12.93-12.33,19.87-2.79,6.95-4.39,13.86-5.3,20.36-.91,6.51-1.2,12.69-1.24,18.59-.02,5.88.22,11.48.56,16.81.35,5.08.7,10.09,1.04,15.06,1.28,18.31,2.51,35.76,3.65,52.12-12.25-18.01-25.1-35.44-38.69-52.05-17.9-21.97-37.17-42.4-57.69-60.67-20.45-18.33-42.4-34.22-64.97-47.46-11.32-6.59-22.88-12.38-34.41-17.61-11.56-5.17-23.21-9.53-34.73-13.45-23.16-7.53-45.96-12.8-67.95-16.12-10.98-1.79-21.78-2.92-32.31-3.94-10.54-.88-20.83-1.56-30.84-1.88-20.03-.7-38.96-.44-56.67.33-35.42,1.58-65.95,4.96-91,8.03-25.04,3.14-44.6,6.06-57.94,8.03-13.32,2.01-20.42,3.08-20.42,3.08,0,0,7.16-.47,20.6-1.33,13.44-.83,33.17-2.07,58.3-3.06,25.11-.93,55.65-1.69,90.46-.27,17.41.74,35.86,2.05,55.15,4.39,9.65,1.13,19.47,2.64,29.48,4.33,9.98,1.84,20.16,3.8,30.39,6.37,20.52,4.9,41.37,11.67,62.04,20.38,10.28,4.5,20.56,9.38,30.61,14.96,10.03,5.62,19.97,11.7,29.62,18.48,19.26,13.64,37.71,29.51,54.76,47.62,17.12,18.05,33.05,38.07,47.79,59.64,29.59,43.1,54.5,91.98,77.62,143.35,2.88,6.44,5.75,12.9,8.6,19.4,2.85,6.56,5.71,13.14,8.56,19.72,1.21,2.81,2.44,5.66,3.66,8.47-7.36-2.05-17.42-4.66-29.93-7.27-24.23-5.08-57.61-10.37-97.03-11.05-4.92-.01-9.94-.13-15.04-.04-5.09.13-10.31.16-15.49.4-10.34.41-20.53.96-30.38.36-9.85-.6-19.24-2.37-27.52-6.56-8.37-4.15-16.09-10.84-23.19-19.02-7.12-8.2-13.66-17.72-20.62-27.6-7-9.95-14.41-19.87-22.25-29.48-15.65-19.26-32.83-37.64-51.23-54.57-4.57-4.25-9.28-8.38-13.99-12.45-4.73-4.07-9.65-8.12-14.91-11.85-5.26-3.75-10.92-7.16-17.06-9.86-3.09-1.31-6.27-2.46-9.57-3.31-3.3-.82-6.69-1.47-10.08-1.68-3.4-.25-6.76-.19-10.05.09-3.28.32-6.49.84-9.61,1.5-6.24,1.35-12.13,3.28-17.79,5.31-5.67,2.04-11.1,4.13-16.56,6.17-5.45,2.04-10.85,4.07-16.22,6.09-21.43,8.05-42.13,15.82-61.73,23.18-9.8,3.68-19.32,7.26-28.54,10.71-9.21,3.48-18.11,6.74-26.64,10.08-17.05,6.66-32.36,13.71-45.1,21.47-12.76,7.69-22.8,16.16-29.84,24.16-7.08,8-11.15,15.41-13.53,20.55-1.16,2.59-1.98,4.61-2.45,6-.49,1.38-.75,2.09-.75,2.09,0,0,.28-.7.84-2.05.53-1.36,1.42-3.34,2.67-5.87,2.57-5.02,6.92-12.18,14.21-19.79,7.26-7.61,17.44-15.53,30.3-22.58,12.82-7.12,28.2-13.45,45.35-19.37,8.56-2.96,17.62-5.87,26.95-8.98,9.35-3.08,19.01-6.28,28.95-9.56,19.88-6.57,40.87-13.5,62.62-20.67,5.44-1.8,10.92-3.61,16.45-5.44,5.52-1.81,11.13-3.71,16.64-5.45,5.52-1.74,11.03-3.27,16.51-4.22,2.74-.47,5.47-.81,8.18-.95,2.7-.12,5.37-.05,7.99.25,2.61.26,5.17.89,7.72,1.61,2.54.77,5.04,1.8,7.5,2.95,4.91,2.4,9.64,5.48,14.21,9.03,4.57,3.54,9,7.46,13.41,11.57,4.42,4.13,8.81,8.31,13.08,12.61,17.17,17.12,33.06,35.54,47.4,54.68,7.19,9.58,13.91,19.34,20.3,29.25,6.45,9.98,12.92,20.34,20.76,30.12,3.93,4.89,8.24,9.63,13.04,13.97s10.15,8.27,15.97,11.48c5.81,3.24,12.03,5.59,18.14,7.22,6.14,1.64,12.2,2.6,18.06,3.19,11.75,1.16,22.72.93,32.88.95,5.08-.02,9.94.14,14.79.2,4.84.11,9.59.4,14.26.58,37.33,2.08,68.65,8.27,91.28,13.86,22.68,5.58,36.74,10.79,40.33,11.77,4.3,1.4,8.49,2.65,12.57,3.77,10.84,24.87,22.05,50,34.22,75.11,13.16,27.13,27.43,54.24,43.6,80.72,8.72,14.27,18.01,28.35,27.93,42.11-1.68-.29-3.34-.6-5.04-.88-1.59-.27-3.17-.55-4.78-.82-1.6-.26-3.22-.46-4.84-.7-3.24-.46-6.51-.91-9.81-1.36-3.29-.5-6.64-.82-10-1.19-3.36-.36-6.76-.72-10.16-1.09-3.42-.33-6.87-.54-10.35-.82-3.48-.23-6.97-.58-10.49-.72-3.52-.15-7.07-.32-10.65-.47-1.79-.07-3.57-.18-5.38-.22-1.8-.02-3.61-.05-5.41-.07-19.59-.33-39.83.34-60.41,2.23-.33-.37-.66-.75-1.02-1.11-1.67-1.77-3.48-3.52-5.4-5.24-.97-.84-3.37-3.02-7.32-5.96-1.95-1.48-4.24-3.23-6.85-5.23-2.66-1.91-5.71-3.96-9.01-6.23-3.27-2.35-7.07-4.54-11.05-7.02-3.96-2.56-8.42-4.87-13.08-7.44-1.17-.63-2.33-1.31-3.56-1.93-1.23-.6-2.47-1.21-3.73-1.82-2.52-1.23-5.1-2.49-7.74-3.77-2.67-1.21-5.45-2.37-8.26-3.58-1.41-.61-2.82-1.21-4.27-1.83-1.43-.63-2.93-1.12-4.42-1.69-2.98-1.11-6.02-2.24-9.1-3.4-3.14-1-6.32-2.03-9.57-3.07-1.62-.5-3.23-1.07-4.9-1.5-1.67-.44-3.35-.89-5.03-1.34-1.69-.44-3.38-.9-5.1-1.35-.85-.22-1.71-.44-2.58-.67-.88-.19-1.75-.37-2.63-.56-3.5-.75-7.05-1.49-10.63-2.25-3.62-.58-7.27-1.18-10.96-1.77-.92-.15-1.84-.29-2.77-.44l-2.8-.32c-1.87-.21-3.76-.41-5.64-.62-1.89-.2-3.78-.43-5.68-.6-1.91-.12-3.83-.22-5.75-.34-7.71-.56-15.46-.62-23.18-.58-7.61.13-15.3.26-23.03.39-15.25.21-30.44.13-44.93-2.37-1.8-.35-3.63-.6-5.4-1.03l-5.31-1.27c-3.45-1.05-6.95-2.02-10.24-3.43-6.65-2.66-13.01-5.94-18.7-10.22-11.46-8.46-20.86-19.58-28.12-31.56-7.36-11.96-12.86-24.63-17.29-36.91-4.38-12.32-7.76-24.34-10.89-35.43-3.12-11.1-5.99-21.3-8.86-30.24-2.86-8.94-5.64-16.64-8.23-22.84-2.58-6.21-4.85-10.97-6.49-14.16-1.67-3.17-2.55-4.87-2.55-4.87,0,0,.78,1.75,2.24,5.02,1.41,3.29,3.37,8.17,5.54,14.49,2.18,6.32,4.43,14.12,6.7,23.16,2.27,9.04,4.47,19.34,6.87,30.63,2.43,11.28,5.04,23.56,8.72,36.48,3.75,12.88,8.56,26.38,15.59,39.6.91,1.63,1.75,3.33,2.72,4.95.98,1.62,1.96,3.26,2.94,4.89,1.07,1.6,2.13,3.2,3.22,4.81,1.05,1.62,2.31,3.13,3.47,4.71,4.78,6.21,10.27,12.1,16.53,17.34,6.22,5.31,13.39,9.66,20.9,13.21,3.73,1.87,7.64,3.24,11.55,4.69l5.94,1.83c1.98.61,3.99,1.02,5.99,1.54,16.07,3.8,32.25,4.84,47.8,5.62,15.55.75,30.57,1.07,44.58,2.95,28.2,3.38,53.83,11.68,74.82,21.27,1.31.61,2.65,1.12,3.91,1.77,1.26.64,2.52,1.27,3.76,1.89,2.47,1.26,4.92,2.44,7.27,3.69,2.31,1.31,4.57,2.58,6.78,3.83,1.1.62,2.19,1.24,3.27,1.84,1.06.62,2.08,1.29,3.09,1.93,4.04,2.58,7.95,4.88,11.34,7.39,3.44,2.45,6.73,4.57,9.53,6.86,2.12,1.66,4.13,3.17,5.96,4.6-11.67,1.97-23.38,4.45-35.09,7.18-3.86.98-7.74,1.95-11.62,2.94l-2.91.74-2.89.83-5.79,1.67c-7.75,2.12-15.4,4.74-23.09,7.23-3.84,1.27-7.62,2.74-11.43,4.11l-5.72,2.09c-2.16.77-4.26,1.71-6.39,2.53-2.87,1.14-5.73,2.29-8.6,3.43-4.36,1.9-8.73,3.82-13.09,5.73-14.7,6.62-28.97,13.63-43.09,20.44-28.18,13.62-55.94,26.45-84.36,33.74-14.19,3.68-28.43,5.87-42.71,6.39-14.27.56-28.51-.44-42.39-2.67-27.77-4.47-54.01-13.69-77.49-25.21-11.76-5.76-22.95-11.98-33.38-18.63-10.44-6.66-20.29-13.55-29.52-20.49-18.38-13.98-34.41-27.95-48.17-40.8-13.79-12.85-25.43-24.47-34.95-34.08-9.52-9.63-16.89-17.29-21.93-22.49-5.03-5.22-7.71-7.99-7.71-7.99,0,0,2.5,2.94,7.19,8.47,4.7,5.52,11.57,13.63,20.48,23.86,8.9,10.22,19.81,22.59,32.85,36.37,13.02,13.79,28.28,28.91,46.1,44.32,8.94,7.67,18.56,15.33,28.88,22.87,10.34,7.54,21.5,14.71,33.38,21.49,23.73,13.56,50.75,25.1,80.5,31.84,14.86,3.36,30.39,5.46,46.31,5.85,7.95.22,16.01-.07,24.06-.75,8.05-.72,16.09-1.83,24.05-3.38,15.94-3.05,31.57-7.57,46.81-12.82,15.25-5.24,30.12-11.2,44.78-17.17,6.35-2.59,12.66-5.18,18.94-7.74-7.18,14.86-17.21,35.75-29.1,60.53-2.8,5.85-5.72,11.91-8.72,18.18-3.01,6.23-6.09,12.79-9.22,19.11-6.25,12.62-13.35,24.79-23.59,32.98-5.15,4.05-11.22,7.25-17.98,9.58-6.79,2.27-14.2,3.69-21.9,4.53-7.71.79-15.72,1.02-23.85.98-4.07-.01-8.2-.12-12.33-.22-4.13-.12-8.27-.18-12.4-.33-16.53-.58-33.02-1.53-49.2-2.77-16.17-1.35-32.06-2.84-47.37-4.78-30.63-3.69-58.98-8.55-83.09-13.39-24.12-4.87-44.04-9.61-57.9-13.23-6.95-1.71-12.36-3.29-16.07-4.26-3.7-1-5.67-1.53-5.67-1.53,0,0,1.94.65,5.57,1.87,3.64,1.19,8.95,3.08,15.79,5.22,13.64,4.45,33.27,10.4,57.17,16.71,23.89,6.3,52.07,12.88,82.71,18.43,15.3,2.88,31.22,5.33,47.48,7.65,16.26,2.23,32.88,4.16,49.58,5.74,4.18.41,8.37.71,12.54,1.07,4.18.35,8.35.7,12.6.97,8.48.52,17.09.82,25.82.43,8.73-.43,17.59-1.53,26.34-3.9,8.73-2.43,17.33-6.22,24.94-11.53,7.58-5.38,13.85-11.95,18.97-18.67,5.16-6.73,9.32-13.59,13.09-20.17,3.76-6.62,7.12-12.81,10.49-18.89,3.35-6.08,6.6-11.97,9.74-17.65,25.08-45.47,42.69-77.5,45.07-82.13.69-1.33,1.33-2.66,1.93-3.98,1.25-1.09,2.89-2.52,4.14-3.61,1.56-.49,3.1-1.04,4.66-1.53,7.08-1.35,14.4-3.42,20.06-4.19,12.05-1.64,24.12-3.15,36.2-4.46,47.34-5.12,95.22-7.32,142.71-2.75,26.89,2.58,53.59,7.35,79.54,14.88,10.48,3.03,20.8,6.51,31.12,10.08,47.68,34.52,104.16,60.92,148.12,101.52,60.56,55.93,110.1,126.57,128.55,206.92.21.89.38,1.79.58,2.68-11.75-4.06-24.99-8.62-39.43-13.58-26.26-9.01-56.46-19.36-88.56-30.36-15.96-5.46-32.39-11.08-49.04-16.79-7.86-2.75-15-5.6-20.78-9.1-2.88-1.74-5.4-3.63-7.54-5.69-2.13-2.05-3.9-4.29-5.55-7.12-3.31-5.59-5.67-13.2-7.97-21.6-1.17-4.21-2.35-8.65-3.76-13.23-1.51-4.57-3.06-9.18-4.96-13.56-3.69-8.81-8.14-17.1-13.09-24.82-4.98-7.7-10.51-14.78-16.28-21.35-5.78-6.57-11.84-12.59-18.08-18.05-6.23-5.47-12.53-10.54-18.94-15.03-6.38-4.53-12.72-8.66-19.01-12.32-3.1-1.9-6.25-3.58-9.29-5.31-3.09-1.63-6.08-3.29-9.09-4.77-11.94-6.07-23.09-10.98-33.03-15.09-9.95-4.11-18.67-7.44-25.87-10.15-7.2-2.66-12.86-4.76-16.71-6.18-3.86-1.41-5.92-2.16-5.92-2.16,0,0,1.96.98,5.64,2.81,3.66,1.84,9.04,4.55,15.9,8,6.84,3.48,15.11,7.76,24.44,12.9,9.33,5.13,19.73,11.19,30.61,18.34,2.74,1.76,5.45,3.69,8.25,5.59,2.73,1.99,5.58,3.93,8.33,6.08,5.6,4.16,11.15,8.75,16.65,13.64,5.51,4.87,10.83,10.22,15.98,15.88,5.17,5.65,10.06,11.73,14.55,18.17,4.49,6.44,8.66,13.21,12.2,20.31,3.52,7.12,6.48,14.54,8.7,22.16,1.18,3.8,1.98,7.65,2.82,11.56.76,3.94,1.39,8.16,2.1,12.6.71,4.45,1.49,9.11,2.64,14.01,1.13,4.89,2.64,10.05,4.9,15.26,2.23,5.19,5.36,10.49,9.12,15.12,3.75,4.63,8.02,8.61,12.39,12.01,8.79,6.79,17.89,11.41,26.26,15.46,16.07,7.54,31.91,14.98,47.31,22.21.22.1.43.2.65.3-9.25,6.37-21.01,14.49-34.52,23.84-3.86,2.67-7.88,5.45-12.02,8.31-4.1,2.82-8.26,5.65-12.53,8.34-8.53,5.41-17.52,10.3-27.14,13.37-1.21.34-2.39.75-3.65,1.03-1.25.3-2.51.61-3.78.91-2.63.5-5.25,1.02-8.04,1.39-5.53.82-11.33,1.4-17.37,2.05-6.04.66-12.3,1.42-18.68,2.71-6.37,1.28-12.96,3.1-19.24,6.24-3.12,1.6-6.18,3.38-8.97,5.61-1.47,1-2.73,2.25-4.01,3.48l-1.91,1.83c-.6.65-1.17,1.34-1.74,2.01-4.55,5.44-7.6,11.66-9.71,17.77-2.1,6.14-3.35,12.23-4.29,18.13-.95,5.93-1.57,11.61-2.3,17.19-2.8,22.33-5.4,43.11-7.63,60.9-4.45,35.54-7.4,59.1-7.4,59.1,0,0,4.88-23.25,12.23-58.3,3.68-17.55,7.97-38.05,12.59-60.07,2.36-11.04,4.36-22.44,8.7-32.33,2.17-4.92,4.92-9.38,8.42-12.9,3.57-3.45,7.72-6.24,12.48-8.1,4.73-1.91,10.03-2.96,15.56-3.61,5.53-.64,11.31-.9,17.2-1.06,5.9-.16,11.97-.28,18.15-.68,3.08-.16,6.24-.51,9.38-.86,1.6-.24,3.19-.49,4.77-.74,1.59-.23,3.19-.63,4.76-.95,12.6-2.93,23.79-8,33.66-13.21,4.95-2.6,9.6-5.26,14.02-7.82,4.38-2.54,8.61-5.01,12.69-7.39,24.57-14.3,43.65-25.45,52.92-30.93,18.35,8.59,35.69,16.71,51.53,24.12,27.81,13,51.08,23.82,67.22,31.28,1.21,45.84-5.43,92.16-15.82,136.97-15.7,67.67-39.76,133.08-58.46,199.98-31.22,111.69-47.43,227.56-48.1,343.53-2.86-1.12-5.73-2.22-8.63-3.35-38.01-14.33-81.99-26.02-130.59-31.01-3.03-.3-6.08-.65-9.15-.91-3.07-.21-6.16-.43-9.26-.64-6.18-.5-12.46-.68-18.78-.88-6.31-.29-12.71-.14-19.12-.15-3.24-.02-6.38.1-9.53.24-3.16.13-6.32.26-9.51.4-21.88,1.1-43.44,3.47-64.54,6.45-5.57-6.8-14.02-17.03-24.92-30.14-8.93-10.7-19.46-23.35-31.34-37.59-5.94-7.11-12.22-14.61-18.8-22.48-6.55-7.84-13.23-15.79-19.8-24.01-2.23-2.78-4.45-5.6-6.66-8.45,1.07-4.77,2.5-11.29,4.24-19.32,1.66-7.71,3.62-16.85,5.83-27.16,1.04-4.87,2.08-9.65,3.31-13.92.61-2.16,1.27-4.15,1.96-6.03.71-1.77,1.41-3.56,2.17-4.9.75-1.38,1.46-2.64,2.19-3.52.16-.28.36-.46.55-.68.19-.21.34-.48.55-.63.2-.18.37-.38.56-.6.22-.15.44-.33.65-.51l.32-.29.37-.22c.26-.15.49-.34.75-.51.62-.23,1.12-.65,1.88-.86,1.34-.61,3.16-.99,5.23-1.29,2.07-.32,4.56-.32,7.19-.27,2.7.14,5.58.42,8.65.91,3.09.5,6.28,1.1,9.67,1.89,1.68.37,3.38.8,5.18,1.24,1.84.47,3.69.93,5.54,1.41,14.93,3.78,31.1,8.06,48.58,10.43,4.36.58,8.8,1.06,13.3,1.34,4.49.3,9.12.42,13.71.29,9.19-.21,18.48-1.34,27.64-3.56,4.57-1.13,9.1-2.57,13.55-4.27,4.42-1.79,8.76-3.8,12.92-6.22,4.12-2.45,8.16-5.13,11.77-8.2,3.63-3.05,7-6.28,10.01-9.68,6.06-6.8,10.91-14.06,15.04-21.29,4.12-7.25,7.57-14.49,10.71-21.54,12.51-28.09,21.77-55.03,28.44-78.33,6.65-23.32,10.71-42.99,13.23-56.76,1.23-6.9,2.13-12.31,2.67-16.01.56-3.7.86-5.66.86-5.66,0,0-.54,1.91-1.55,5.52-.99,3.61-2.55,8.86-4.61,15.52-4.16,13.3-10.57,32.18-19.86,54.15-9.31,21.95-21.54,46.98-36.82,72.44-7.58,12.61-15.94,24.99-26.25,34-2.55,2.26-5.26,4.24-8.02,6.02-2.74,1.81-5.66,3.21-8.65,4.53-3.01,1.28-6.17,2.27-9.39,3.15-3.26.78-6.57,1.41-9.96,1.81-6.79.77-13.78.78-20.77.07-3.5-.34-6.94-.84-10.45-1.52-3.51-.64-7.02-1.47-10.55-2.38-14.07-3.66-28.13-9.17-42.51-14.72-1.81-.7-3.62-1.39-5.41-2.09-1.85-.7-3.78-1.43-5.73-2.12-3.86-1.41-7.95-2.72-12.1-3.92-4.19-1.19-8.56-2.22-13.1-3.02-4.62-.72-9.33-1.33-14.41-1.34-5.04-.02-10.28.3-15.67,1.48-2.66.47-5.37,1.37-8.02,2.17-1.32.48-2.64,1.02-3.94,1.55l-1.95.82-1.89.96c-1.26.65-2.5,1.32-3.73,1.99-1.19.75-2.37,1.51-3.54,2.29-1.19.76-2.25,1.62-3.34,2.46-1.09.85-2.17,1.69-3.13,2.6-4.08,3.56-7.33,7.43-10.19,11.22-2.88,3.83-5.04,7.57-7.06,11.22-1.91,3.62-3.56,7.12-4.95,10.42-1.11,2.63-2.09,5.13-2.99,7.54h-.01c-3.17-10.2-4.87-20.55-5.06-31.2-.08-10.28,1.46-21.05,4.64-32.25,3.15-11.19,7.83-22.75,13.51-34.52,11.36-23.59,26.62-47.74,40.62-74.04,1.75-3.3,3.48-6.62,5.17-10,1.7-3.36,3.28-6.87,4.91-10.29.8-1.73,1.63-3.43,2.4-5.17l2.22-5.24,2.21-5.23,1.1-2.61.99-2.65c1.32-3.54,2.64-7.06,3.94-10.57,1.21-3.55,2.36-7.12,3.52-10.66,1.21-3.52,2.17-7.13,3.2-10.7,1-3.57,2.08-7.12,2.88-10.72,7.22-28.62,10.77-57.32,11.35-84.92.04-3.45.08-6.88.12-10.3-.08-3.41-.15-6.81-.23-10.19-.05-1.69-.07-3.37-.14-5.05-.1-1.68-.2-3.35-.3-5.02-.22-3.34-.36-6.65-.65-9.93-.65-6.57-1.18-13.06-2.12-19.41-.46-3.19-.78-6.35-1.34-9.47-.54-3.12-1.06-6.22-1.59-9.3-.48-3.08-1.19-6.1-1.79-9.11-.65-3.01-1.2-6-1.91-8.94-1.48-5.87-2.74-11.68-4.43-17.27-.79-2.8-1.59-5.59-2.38-8.34-.89-2.73-1.75-5.43-2.61-8.11-1.65-5.37-3.64-10.52-5.47-15.58-7.56-20.18-16.18-37.92-24.8-52.97-8.61-15.07-17.23-27.45-24.61-37.35-3.79-4.89-7.09-9.28-10.26-12.88-3.09-3.65-5.66-6.79-7.93-9.18-4.45-4.84-6.8-7.43-6.8-7.43,0,0,2.08,2.81,5.99,8.1,2.01,2.59,4.22,5.99,6.9,9.92,2.74,3.87,5.55,8.58,8.76,13.76,6.24,10.49,13.38,23.49,20.21,38.99,6.83,15.48,13.34,33.47,18.55,53.53,1.25,5.03,2.63,10.13,3.66,15.41.56,2.63,1.12,5.29,1.68,7.97.47,2.7.95,5.41,1.42,8.17,1.05,5.46,1.66,11.11,2.49,16.78.38,2.85.61,5.73.92,8.62.27,2.89.64,5.8.78,8.75.19,2.94.38,5.9.57,8.88.22,2.98.21,5.99.33,9.01.27,6.03.1,12.15.09,18.31-.05,3.08-.24,6.18-.36,9.29-.07,1.55-.13,3.12-.2,4.68-.09,1.56-.24,3.13-.36,4.69-.26,3.13-.51,6.27-.77,9.43-.36,3.14-.74,6.3-1.11,9.47-3.19,25.31-9.16,51.02-18.27,75.87-1.05,3.14-2.33,6.2-3.56,9.28-.68,1.67-1.33,3.36-2.02,5.03-6.58-7.41-14.75-16.56-24.05-26.93-.77-.86-1.55-1.73-2.33-2.6-.82-.9-1.61-1.81-2.49-2.73-.85-.92-1.71-1.84-2.59-2.79-.91-.93-1.82-1.88-2.74-2.82-3.77-3.79-7.79-7.68-12.51-11.52-4.71-3.83-9.98-7.64-16.19-11.03-1.61-.83-3.17-1.66-4.85-2.43-1.74-.75-3.5-1.47-5.26-2.16-1.88-.62-3.79-1.21-5.69-1.76-1.97-.5-4.05-.88-6.07-1.26-2.05-.34-4.24-.44-6.36-.61-1.06-.1-2.15-.05-3.23-.01l-3.26.15c-.54.04-1.09.05-1.62.12l-1.6.24-3.2.55c-2.12.34-4.2.97-6.24,1.62-8.24,2.7-15.12,7.34-20.48,12.05-5.39,4.77-9.47,9.66-13.16,14.22-3.64,4.55-6.86,8.88-9.99,12.61-3.13,3.76-6.15,6.98-9.19,9.35-1.52,1.19-3.03,2.22-4.61,3.02-.8.35-1.62.68-2.44,1.06-.4.22-.84.3-1.26.43l-1.29.38c-6.92,1.84-15.63.48-23.74-3.34-8.16-3.7-15.69-9.24-22.16-15.24-3.19-3-6.25-6.22-9.18-9.49-2.94-3.23-5.74-6.45-8.48-9.54-5.47-6.2-10.62-11.88-15.56-16.56-4.94-4.69-9.57-8.44-13.65-11.08-.98-.71-2.01-1.26-2.92-1.83-.93-.54-1.76-1.12-2.61-1.52-1.68-.84-3.06-1.63-4.25-2.12-2.36-1-3.62-1.53-3.62-1.53,0,0,1.13.75,3.27,2.15,1.07.68,2.27,1.7,3.73,2.8.75.52,1.45,1.24,2.24,1.91.78.71,1.65,1.39,2.46,2.25,3.41,3.22,7.14,7.55,10.99,12.81,3.86,5.26,7.78,11.55,12.02,18.55,2.12,3.5,4.33,7.19,6.71,11.01,2.36,3.83,4.95,7.78,7.96,11.87,6.04,8.02,13.41,16,23.03,22.73,4.78,3.37,10.23,6.37,16.43,8.53,6.16,2.15,13.16,3.41,20.45,3.01l2.73-.23c.91-.08,1.83-.15,2.73-.36,1.8-.36,3.63-.74,5.43-1.19,3.59-1,7.01-2.43,10.21-4.05,6.42-3.27,11.8-7.36,16.56-11.34,4.78-4,8.95-7.95,12.92-11.4,3.92-3.43,7.63-6.39,10.94-8.31,3.33-1.93,6.08-2.79,8.28-2.87.57,0,1.1-.07,1.65.06.27.04.54.07.79.08h.38c.13.02.26.09.37.12.26.08.5.14.74.19.24.06.48.06.72.2.5.24.96.33,1.46.57,3.86,1.59,9.05,6.07,13.81,11.73,2.4,2.81,4.71,6.01,6.94,9.22.56.82,1.11,1.63,1.66,2.44.55.84,1.09,1.67,1.62,2.5,1.09,1.73,2.16,3.43,3.21,5.1,18.39,29.33,31.43,49.91,33.51,52.68.24.33.52.61.78.92-14.92,22.04-32.22,44.08-47.76,69.17-7.97,12.93-15.46,26.75-21.46,41.78-6.02,14.98-10.38,31.31-12.06,48.09l-.32,3.14-.16,3.15c-.08,2.1-.18,4.2-.26,6.29-.28,4.21,0,8.34.15,12.48.12,2.07.12,4.15.34,6.18.23,2.03.46,4.06.69,6.08.44,2.96,1.16,7.81,1.6,10.78l.22,1.17c2.91,15.7,7.61,30.32,13.04,43.77,5.5,13.43,11.76,25.68,18.13,37.11,6.37,11.46,12.95,21.93,19.32,31.75,6.37,9.85,12.62,18.96,18.41,27.45,5.78,8.47,11.29,16.56,16.51,24.2,8.28,12.1,15.81,23.1,22.49,32.88-15.87,2.47-31.48,4.59-46.82,5.95-22.03,1.98-43.42,2.39-64.16.4-20.65-2.03-41.44-6.62-61.92-13.79-20.43-7.29-40.46-17.28-59.66-29.46-19.25-12.12-37.42-26.81-54.44-43.07-34.13-32.53-62.8-72.17-85.24-114.53-11.25-21.2-20.83-43.18-28.74-65.49-1.93-5.59-3.97-11.15-5.62-16.79-.88-2.81-1.75-5.62-2.63-8.42-1.05-3.45-1.9-6.94-2.93-10.4-.48-1.74-.97-3.48-1.45-5.22-.79-3.27-1.57-6.53-2.36-9.79-1.43-5.6-2.59-11.39-3.79-17.12-4.71-22.95-8.07-45.87-10.31-68.53-2.22-22.66-3.33-45.03-3.61-66.91-.56-43.75,2.18-85.44,6.24-123.83,2.03-19.2,4.38-37.6,6.85-55.08,2.52-17.48,5.15-34.04,7.75-49.6,5.27-31.09,10.43-58.15,14.79-80.38,4.36-22.25,7.93-39.69,10.35-51.58,2.43-11.89,3.73-18.22,3.73-18.22,0,0-2.01,6.15-5.78,17.69-3.76,11.54-9.28,28.48-16.15,50.12-6.86,21.65-15.07,48.01-23.89,78.53-4.39,15.27-8.9,31.59-13.44,48.9-4.49,17.31-8.97,35.63-13.25,54.89-8.55,38.51-16.24,80.89-20.84,126.61-.4,4-.77,8.04-1.12,12.1,0-.01-.01-.01-.01-.01-5.9-10.43-12.25-21.65-18.92-33.46-6.62-11.71-13.34-23.85-19.65-36.46-6.29-12.61-12.11-25.7-16.78-39.24-2.35-6.78-4.3-13.63-6-20.63-1.68-7-3-14.36-4.3-21.79-2.54-14.97-4.7-30.53-8.44-46.03l-.68-2.89-.79-2.89c-.55-1.93-1.04-3.85-1.62-5.75-1.27-3.83-2.41-7.62-3.98-11.35l-1.11-2.79-.56-1.39-.64-1.37c-.86-1.81-1.73-3.62-2.58-5.43-.86-1.8-1.95-3.5-2.92-5.24l-1.48-2.58c-.49-.85-1.11-1.66-1.66-2.47-1.13-1.62-2.26-3.24-3.38-4.85-1.23-1.54-2.51-3.02-3.76-4.52l-1.88-2.22c-.64-.71-1.34-1.39-2.01-2.08-1.32-1.4-2.73-2.67-4.13-3.96-5.62-5.09-11.76-9.21-17.97-12.54-12.45-6.7-25.12-10.16-36.68-12.19-11.61-2.03-22.25-2.6-31.61-2.8-9.37-.14-17.48.15-24.13.5-6.65.36-11.87.76-15.4,1.04-3.55.29-5.43.46-5.43.46,0,0,1.89.08,5.44.26s8.75.44,15.37.92c6.6.48,14.62,1.21,23.71,2.49,9.08,1.33,19.26,3.15,29.89,6.36,10.59,3.2,21.7,7.78,31.68,14.77,4.98,3.48,9.7,7.5,13.81,12.19,1.03,1.18,2.07,2.35,3,3.61.48.62.98,1.23,1.43,1.87l1.31,1.98c.86,1.32,1.77,2.61,2.63,3.96.76,1.4,1.52,2.81,2.29,4.24.37.71.81,1.39,1.12,2.13l.97,2.24c.63,1.52,1.36,2.95,1.91,4.52.55,1.56,1.1,3.14,1.64,4.71l.41,1.18.34,1.23.68,2.45c.98,3.22,1.61,6.66,2.36,10.03.33,1.71.58,3.48.89,5.22l.43,2.61.34,2.67c1.9,14.22,2.5,29.34,3.57,44.99.6,7.86,1.24,15.83,2.37,23.96,1.16,8.13,2.68,16.25,4.62,24.14,1.95,7.88,4.16,15.61,6.65,23.11,2.5,7.48,5.16,14.81,7.97,21.88,5.61,14.14,11.61,27.44,17.37,39.87,5.78,12.33,11.26,24.05,16.36,34.94,17.01,36.16,30.01,63.33,35.22,73.93.43,13.28,1.21,26.72,2.44,40.3.6,6.38,1.16,12.79,2.04,19.31.41,3.26.82,6.52,1.23,9.79.47,3.26,1.02,6.51,1.52,9.78.54,3.27,1,6.56,1.6,9.82.63,3.27,1.25,6.53,1.88,9.8,1.18,6.58,2.74,13.08,4.2,19.65.65,2.82,1.34,5.65,2.04,8.47-27.11-9.65-79.7-28.13-146.68-51.6-11.31-3.99-22.56-8.02-33.15-12.81-10.59-4.78-20.55-10.31-29.1-17.17-4.27-3.4-8.23-7.27-12.05-11.6-3.85-4.27-7.37-9.16-10.76-14.35-3.41-5.18-6.51-10.85-9.49-16.79-2.99-5.93-5.76-12.2-8.42-18.71-5.36-12.97-10.24-27.04-15.44-41.43-5.15-14.33-10.34-28.79-15.56-43.37-10.47-29.13-21.06-58.63-31.63-88.06-2.65-7.36-5.29-14.71-7.92-22.05-2.65-7.41-5.47-15.06-8.8-22.69-3.34-7.63-7.18-15.28-12.02-22.66-4.87-7.34-10.89-14.39-18.26-20.16l-1.36-1.09c-.47-.35-.97-.66-1.45-1l-2.92-1.97c-1.98-1.26-4.08-2.33-6.14-3.45-4.25-2.02-8.62-3.64-13.02-4.78-8.81-2.23-17.5-2.79-25.7-2.52-8.24.22-16.03,1.28-23.54,2.43-7.5,1.2-14.63,2.46-21.83,3.66-57.34,9.77-110.68,18.84-156.32,26.61-91.26,15.55-151.72,25.85-151.72,25.85,0,0,60.99-6.43,153.06-16.14,46.04-4.87,99.86-10.55,157.7-16.65,7.21-.75,14.6-1.57,21.75-2.25,7.14-.63,14.2-1.11,20.95-.85,6.77.2,13.23,1.14,19.03,3.02,2.89.96,5.59,2.19,8.16,3.61,1.23.83,2.5,1.54,3.68,2.41l1.75,1.37c.29.23.6.44.88.68l.82.77c4.43,4,8.3,9,11.6,14.75,3.28,5.78,6.06,12.19,8.51,18.96,2.46,6.79,4.6,13.91,6.74,21.33,2.17,7.49,4.34,14.99,6.52,22.51,8.7,30.03,17.43,60.14,26.05,89.87,4.32,14.86,8.6,29.63,12.83,44.25,4.26,14.54,8.33,29.24,13.38,44.07,2.51,7.4,5.23,14.79,8.37,22.14,3.13,7.34,6.53,14.63,10.57,21.74.6,1.07,1.23,2.13,1.86,3.2-6.29.86-14.36,2.23-23.93,4.49-10.37,2.43-22.47,5.9-35.61,10.99s-27.32,11.78-41.8,20.39c-7.27,4.26-14.51,9.14-21.81,14.39-3.57,2.73-7.28,5.39-10.82,8.37-1.79,1.47-3.62,2.91-5.38,4.45-1.76,1.55-3.52,3.1-5.31,4.67-7,6.38-13.97,13.16-20.48,20.6l-2.49,2.77-2.39,2.87c-1.59,1.93-3.22,3.83-4.77,5.8-1.53,1.99-3.06,4-4.61,6.02-1.56,1.99-2.95,4.13-4.45,6.21l-2.21,3.14c-.72,1.05-1.4,2.15-2.1,3.23-1.38,2.17-2.81,4.32-4.15,6.53-1.31,2.23-2.61,4.48-3.93,6.72-1.33,2.24-2.47,4.59-3.72,6.88l-1.83,3.48-1.69,3.56c-1.11,2.38-2.3,4.75-3.34,7.14-2.11,4.77-4.1,9.56-6.01,14.35-7.68,19.1-14.49,38.31-24.09,55.45-4.82,8.53-10.36,16.46-17,23.11-6.62,6.63-14.35,11.96-22.91,15.34-8.52,3.43-17.72,4.92-26.92,4.7-9.21-.19-18.36-2.09-27.11-4.9-17.54-5.72-33.4-14.98-47.45-24.93-3.52-2.5-6.92-5.06-10.23-7.65-3.29-2.58-6.52-5.26-9.71-7.84-6.37-5.22-12.52-10.26-18.41-15.09-11.89-9.61-23.19-18-33.8-24.52-10.58-6.55-20.49-11.14-28.92-14-1.05-.37-2.08-.72-3.07-1.07-1.02-.28-2.01-.55-2.96-.8-1.91-.5-3.69-1.05-5.37-1.42-1.69-.33-3.27-.62-4.7-.89-1.44-.24-2.73-.58-3.92-.65-4.71-.48-7.23-.75-7.23-.75,0,0,2.5.37,7.18,1.09,1.18.13,2.45.52,3.86.84,1.41.34,2.95.71,4.62,1.11,1.65.44,3.38,1.09,5.25,1.67.93.3,1.89.62,2.88.95.97.4,1.96.79,2.98,1.21,8.19,3.22,17.7,8.21,27.81,15.17,10.13,6.93,20.87,15.72,32.2,25.83,5.65,5.11,11.54,10.43,17.64,15.94,3.08,2.75,6.16,5.57,9.42,8.39,3.26,2.8,6.6,5.61,10.1,8.34,13.95,10.91,29.89,21.37,48.52,28.47,9.3,3.49,19.31,6.11,29.84,6.85,10.5.77,21.51-.43,31.92-4.06,10.41-3.54,20.09-9.54,28.27-17,8.21-7.47,14.93-16.25,20.67-25.38,11.42-18.33,19.33-37.87,27.74-56.16,2.09-4.59,4.21-9.08,6.41-13.46,1.09-2.21,2.26-4.28,3.38-6.43l1.69-3.19,1.83-3.1c1.25-2.05,2.38-4.15,3.7-6.14,1.29-1.99,2.59-3.99,3.87-5.97,1.32-1.97,2.73-3.86,4.07-5.79.69-.96,1.34-1.93,2.05-2.86l2.15-2.78c1.46-1.83,2.8-3.72,4.32-5.47,1.49-1.77,2.98-3.54,4.46-5.3,1.49-1.74,3.08-3.4,4.6-5.09l2.3-2.51,2.39-2.41c6.25-6.51,12.89-12.37,19.52-17.89,1.68-1.35,3.36-2.7,5.02-4.02,1.67-1.33,3.41-2.54,5.08-3.8,3.33-2.57,6.83-4.82,10.17-7.14,6.85-4.45,13.6-8.58,20.36-12.11,13.44-7.19,26.48-12.64,38.45-16.66,11.98-4.04,22.89-6.64,32.18-8.4,18.61-3.58,30.73-3.75,33.72-4,2.03-.13,4.03-.29,5.99-.46,2.11,2.19,4.26,4.35,6.51,6.39,12.26,11.17,25.55,19.46,38.28,26.19,12.78,6.74,25.06,11.95,36.46,16.77,89.95,37.75,153.23,64.19,162.37,67.7,9.28,3.57,18.42,6.1,27.02,7.65,20.15,50.3,47.76,99.4,84.35,143.27,18.69,22.41,39.5,43.6,62.85,62.36,5.3,4.28,10.72,8.42,16.24,12.47-.14.24-.29.47-.43.71-3.71,6.36-23.7,44.46-53.28,101.27-3.49,2.12-10.36,6.37-20.17,11.92-12.57,7.06-30.01,16.18-51.46,24.94-10.89,4.46-21.84,8.68-32.07,10.64-5.11.92-10,1.42-14.7.97-4.78-.35-9.75-1.52-14.88-3.61-10.29-4.14-20.95-12.19-31-22.16-5.04-4.98-9.98-10.44-14.84-16.18-5.04-6.04-10.09-12.11-15.13-18.17-10.42-12.32-21.77-24.92-35.53-35.2-6.86-5.12-14.32-9.59-22.19-12.95-7.86-3.4-16.12-5.58-24.17-6.67-16.18-2.18-31.56-.26-45.19,3.42-13.65,3.72-25.7,9.38-36.02,15.39-10.33,6.06-19.1,12.45-26.58,18.35-7.49,5.9-13.71,11.34-18.8,15.84-5.08,4.5-8.98,8.11-11.67,10.55-2.67,2.45-4.1,3.76-4.1,3.76,0,0,1.57-1.11,4.54-3.21,2.96-2.08,7.3-5.16,12.88-8.97,5.59-3.8,12.4-8.38,20.43-13.2,4-2.44,8.34-4.87,12.94-7.33,4.62-2.41,9.54-4.8,14.76-7.04,10.44-4.43,22.05-8.13,34.58-9.89,12.47-1.74,25.82-1.55,38.41,1.83,6.29,1.69,12.3,4.15,17.92,7.49,5.64,3.31,10.91,7.44,15.86,12.22,9.91,9.54,18.4,21.53,26.74,34.36,4.25,6.63,8.49,13.25,12.73,19.86,4.48,6.86,9.25,13.71,14.5,20.39,5.25,6.67,10.99,13.2,17.48,19.29,6.48,6.09,13.73,11.75,21.92,16.44,8.16,4.69,17.27,8.33,26.72,10.36,9.51,2.18,18.92,2.46,27.55,2.01,8.62-.52,16.54-1.86,23.81-3.39,3.63-.77,7.09-1.61,10.44-2.44,3.33-.84,6.48-1.7,9.6-2.55,3.82-1.04,7.51-2.11,11.12-3.2-4.46,8.59-9.01,17.35-13.65,26.3-5.86,11.29-11.87,22.86-17.98,34.65-2.67,5.09-5.08,9.05-6.97,11.55-.24.32-.47.58-.61.8-.16.2-.33.4-.48.62-.18.19-.35.39-.51.6-.2.17-.37.39-.56.57-.21.16-.38.37-.6.54-.22.14-.44.3-.65.48-.38.42-.91.58-1.35.95-.22.2-.49.26-.74.39-.26.12-.5.27-.75.41-.27.08-.54.17-.8.29-.27.11-.5.26-.89.32-.69.15-1.42.43-2.35.52l-1.32.23-1.49.12c-4.02.36-9.16.07-14.84-.83-5.68-.88-11.89-2.29-18.52-3.97-6.98-1.81-13.99-3.62-21.02-5.44-28.15-7.28-56.67-14.67-85.12-22.03-7.12-1.84-14.22-3.67-21.32-5.51-7.11-1.82-14.08-3.67-21.57-5.53-7.44-1.82-15.19-3.57-23.36-4.76-8.14-1.2-16.67-1.92-25.49-1.47l-3.3.19-3.33.34c-2.21.19-4.45.64-6.65.98-2.22.45-4.43.91-6.6,1.52-2.17.64-4.33,1.28-6.45,1.97-8.46,2.98-16.19,7.21-23.03,12.05-6.86,4.85-12.86,10.33-18.21,16.03-5.37,5.7-10.06,11.67-14.29,17.71-4.25,6.03-8.06,12.15-11.59,18.24-.86,1.53-1.73,3.06-2.58,4.57-.81,1.52-1.61,3.05-2.42,4.55-1.59,3.02-3.17,6.03-4.75,9.03-.81,1.48-1.54,3-2.26,4.52s-1.45,3.02-2.17,4.53c-1.43,3.01-2.86,6-4.27,8.97-1.31,3.02-2.61,6.02-3.9,9.01-1.26,2.99-2.64,5.9-3.75,8.91-9.56,23.74-16.56,46.82-21.55,68.34-4.98,21.54-8.07,41.49-9.79,59.21-.46,4.42-.7,8.74-1.04,12.87-.15,2.07-.33,4.1-.44,6.09-.08,1.99-.15,3.95-.22,5.88-.14,3.83-.27,7.51-.4,11.01,0,3.51-.01,6.86-.01,10.03-.11,6.35.23,12.01.39,16.92.11,2.46.15,4.73.28,6.8.15,2.08.3,3.97.42,5.66.5,6.74.78,10.34.78,10.34,0,0,.09-3.59.28-10.36.05-1.69.09-3.57.15-5.65.08-2.08.27-4.33.42-6.78.34-4.89.58-10.5,1.33-16.75.33-3.13.67-6.42,1.02-9.88.48-3.44.98-7.04,1.5-10.79.27-1.88.54-3.78.81-5.73.32-1.95.69-3.92,1.04-5.93.75-4.01,1.41-8.19,2.3-12.47,3.44-17.13,8.42-36.2,15.34-56.46,6.93-20.24,15.89-41.64,27.23-63.22,1.33-2.73,2.92-5.37,4.4-8.07,1.5-2.7,3.02-5.4,4.54-8.12,1.62-2.67,3.26-5.36,4.89-8.05.82-1.34,1.64-2.7,2.47-4.05.82-1.36,1.66-2.71,2.56-4.02,1.76-2.66,3.54-5.32,5.31-8,.89-1.34,1.79-2.67,2.68-4.02.92-1.3,1.84-2.6,2.77-3.91,3.73-5.17,7.64-10.19,11.76-14.93,8.19-9.53,17.47-17.85,27.39-23.45,5.09-2.71,10.2-4.8,15.35-6.01Z"/>
</svg>