<?xml version="1.0" encoding="utf-8"?>
<!-- Generator: Adobe Illustrator 27.4.0, SVG Export Plug-In . SVG Version: 6.00 Build 0)  -->
<svg version="1.1" id="Layer_1" xmlns="http://www.w3.org/2000/svg" xmlns:xlink="http://www.w3.org/1999/xlink" x="0px" y="0px"
	 viewBox="0 0 3500 3500" style="enable-background:new 0 0 3500 3500;" xml:space="preserve">
<path d="M941.64,2171.77l3.33-0.63c1.11-0.19,2.24-0.28,3.37-0.4c2.29-0.12,4.59-0.22,7-0.03c4.77,0.25,9.81,1.17,15.02,2.5
	c5.21,1.31,10.62,3.1,16.22,5.09c5.56,1.98,11.52,4.22,17.41,6.38c5.9,2.17,11.8,4.35,17.71,6.53
	c23.63,8.71,47.32,17.44,70.71,26.06c5.85,2.16,11.69,4.31,17.5,6.44c6.12,2.22,12.63,4.46,19.72,6.32
	c7.08,1.86,14.81,3.37,23.47,3.71l3.26,0.09c1.12-0.02,2.26-0.06,3.39-0.1c2.24-0.03,4.58-0.32,6.96-0.6
	c1.17-0.11,2.43-0.37,3.66-0.61c1.23-0.24,2.47-0.5,3.7-0.77c1.21-0.32,2.42-0.68,3.62-1.04c1.2-0.37,2.42-0.7,3.58-1.19
	c2.33-0.93,4.7-1.8,6.9-3.02c1.12-0.58,2.23-1.16,3.33-1.77c1.09-0.62,2.14-1.31,3.2-1.98c1.04-0.7,2.06-1.43,3.08-2.16
	c1-0.76,1.98-1.54,2.96-2.33c0.95-0.81,1.9-1.64,2.83-2.48c0.91-0.86,1.76-1.67,2.56-2.47c6.4-6.47,10.83-12.85,14.53-18.35
	c6.41-9.84,12.69-19.49,18.83-28.92c12.07-18.58,23.55-36.26,34.24-52.71c42.73-65.85,72.71-112.3,76.66-119.1
	c0.3-0.51,0.57-1.02,0.85-1.53c17.87,7.35,36.44,13.16,55.32,17.22c25.6,5.48,50.91,7.69,74.85,8.22
	c23.98,0.53,46.7-0.51,68.06-1.73c21.36-1.24,41.41-2.65,60.12-3.39c18.71-0.76,36.07-0.83,51.98,0.15c1.97,0.14,3.94,0.27,5.9,0.41
	c1.96,0.13,3.91,0.25,5.76,0.49c3.74,0.45,7.45,0.73,11.11,1.34c2.64,0.39,5.26,0.75,7.86,1.19c-1.32,1.98-2.62,4-3.9,6.05
	c-5.15,8.25-9.93,17.13-14.27,26.44c-4.32,9.32-8.22,19.06-11.78,29.08c-1.96,5.49-3.8,11.07-5.57,16.71
	c-2.26-0.55-4.72-1.1-7.38-1.59c-1.34-0.27-2.77-0.48-4.22-0.71c-1.48-0.21-3.01-0.43-4.58-0.59c-3.14-0.35-6.47-0.53-9.94-0.59
	c-6.95-0.04-14.58,0.59-22.58,2.67c-3.98,1.04-8.05,2.4-12.06,4.26c-3.99,1.84-8.01,4.19-11.5,6.78c-7,5.2-12.21,11.04-16.69,16.2
	c-4.51,5.28-8.21,9.59-12.76,13.85c-8.87,8.54-19.43,15.58-30.14,20.92c-10.72,5.34-21.65,8.72-31.26,10.72
	c-1.21,0.25-2.39,0.49-3.54,0.73c-1.17,0.18-2.3,0.35-3.41,0.52c-2.23,0.34-4.35,0.67-6.36,0.81c-2,0.16-3.9,0.4-5.65,0.47
	c-1.76,0.06-3.37,0.11-4.82,0.16c-1.47,0.08-2.77,0.04-3.9,0.01c-1.14-0.03-2.11-0.05-2.89-0.07c-1.58-0.04-2.42-0.06-2.42-0.06
	s0.81,0.23,2.32,0.66c0.76,0.21,1.7,0.48,2.8,0.79c1.11,0.32,2.38,0.68,3.84,0.97c1.46,0.32,3.07,0.67,4.82,1.06
	c1.77,0.38,3.69,0.62,5.76,0.97c2.07,0.38,4.28,0.59,6.64,0.83c1.18,0.12,2.39,0.24,3.63,0.36c1.24,0.06,2.52,0.12,3.82,0.18
	c10.42,0.46,22.87-0.12,36.08-2.98c13.19-2.85,27.22-7.72,40.36-15.18c3.35-1.77,6.49-3.88,9.72-5.93c3.19-2.1,6.08-4.23,8.82-6.14
	c5.46-3.88,10.26-6.88,14.31-8.39c2.03-0.76,3.78-1.14,5.65-1.43c1.86-0.28,3.77-0.35,5.67-0.31c3.8,0.08,7.65,0.77,11.23,1.74
	c1.79,0.52,3.52,1.06,5.15,1.7c0.82,0.3,1.61,0.64,2.39,0.96c0.81,0.36,1.58,0.67,2.35,1.04c2.49,1.14,4.77,2.33,6.83,3.46
	c-5.5,19.84-11.29,39.66-19.34,58.15c-2.09,4.92-4.43,9.65-6.85,14.37l-1.91,3.46c-0.64,1.15-1.26,2.34-1.94,3.42
	c-1.35,2.21-2.64,4.48-4.13,6.64c-5.75,8.76-12.49,17.17-20.18,24.89c-7.66,7.75-16.15,14.94-25.39,21.26
	c-9.21,6.35-19.08,11.97-29.44,16.58l-3.89,1.73l-3.95,1.59c-2.62,1.12-5.32,1.98-7.99,2.98c-5.38,1.8-10.83,3.49-16.35,4.8
	c-11.03,2.71-22.28,4.45-33.52,5c-11.23,0.58-22.47,0.18-33.41-1.46c-10.82-1.47-22.25-4.57-34.42-6.82
	c-6.08-1.12-12.36-2.04-18.82-2.39c-6.44-0.35-13.08-0.1-19.58,1.05c-6.51,1.17-12.68,3.2-18.34,5.78
	c-5.67,2.58-10.85,5.69-15.6,9.05c-9.53,6.74-17.32,14.46-24.32,22.1c-6.99,7.7-13.02,15.31-18.94,22.37
	c-2.95,3.53-5.85,6.94-8.76,10.17c-2.9,3.24-5.8,6.3-8.75,9.14c-5.86,5.72-11.9,10.53-18.03,14.35c-6.04,3.83-12.39,6.29-18.45,7.89
	c-6.07,1.58-11.87,2.17-17.11,2.05c-1.3-0.08-2.59-0.04-3.82-0.22c-1.23-0.15-2.43-0.3-3.59-0.44c-1.15-0.24-2.26-0.48-3.33-0.7
	c-0.27-0.06-0.54-0.11-0.8-0.17c-0.26-0.08-0.51-0.16-0.77-0.24c-0.51-0.16-1.01-0.31-1.49-0.46c-2-0.53-3.69-1.39-5.32-2.04
	c-1.57-0.76-2.93-1.59-4.19-2.26c-1.17-0.82-2.2-1.55-3.09-2.18c-0.9-0.63-1.52-1.31-2.1-1.78c-1.11-0.99-1.69-1.51-1.69-1.51
	s0.52,0.57,1.52,1.67c0.52,0.53,1.09,1.29,1.93,2.01c0.84,0.73,1.81,1.58,2.91,2.53c1.21,0.81,2.51,1.81,4.05,2.75
	c1.59,0.84,3.27,1.92,5.28,2.67c0.49,0.21,1,0.42,1.51,0.64c0.26,0.11,0.52,0.22,0.78,0.33c0.27,0.09,0.54,0.17,0.81,0.26
	c1.1,0.35,2.24,0.72,3.41,1.09c1.2,0.28,2.44,0.56,3.72,0.85c1.28,0.32,2.63,0.42,4,0.64c5.51,0.7,11.75,0.7,18.43-0.32
	c6.66-1.04,13.86-3.01,20.97-6.55c7.05-3.44,14.13-7.99,20.96-13.42c6.88-5.4,13.54-11.64,20.25-18.19
	c6.72-6.53,13.48-13.46,20.67-19.91c7.23-6.43,14.98-12.61,23.45-17.36c8.44-4.77,17.54-8.07,26.76-8.73
	c9.23-0.67,19.11,1.24,29.64,4.34c5.27,1.54,10.71,3.36,16.42,5.22c5.69,1.86,11.74,3.75,18.1,5.31
	c12.62,3.22,25.76,5.05,39.09,5.72c13.34,0.69,26.87,0.01,40.33-1.88c13.47-1.85,26.85-5.03,39.9-9.37
	c13.08-4.3,25.79-9.89,37.96-16.58c12.19-6.65,23.75-14.53,34.51-23.41c3.09-2.54,6.1-5.18,9.04-7.89
	c1.07,7.48,2.23,15.55,3.47,24.13c1.56,10.81,3.24,22.43,5.01,34.66c1.66,11.79,2.88,23.17,1.72,33.55c-0.3,2.59-0.74,5.1-1.38,7.62
	c-0.24,1.28-0.68,2.53-1.07,3.8c-0.2,0.63-0.37,1.28-0.6,1.91l-0.74,1.9c-1.97,5.08-4.69,10.18-8.04,15.17
	c-6.68,10.02-15.82,19.53-25.85,28.55c-9.98,9-21.17,17.77-31.8,27.18c-10.66,9.37-20.91,19.55-29.16,30.95
	c-4.11,5.7-7.75,11.65-10.61,17.83c-0.73,1.53-1.32,3.12-1.98,4.66c-0.32,0.77-0.63,1.54-0.95,2.31l-0.47,1.15l-0.38,1.18
	c-0.99,3.14-2.11,6.19-2.76,9.3c-3.07,12.35-3.81,24.19-3.53,34.87c0.29,10.7,1.56,20.32,2.95,28.74
	c1.41,8.42,2.93,15.65,4.29,21.57c1.33,5.93,2.48,10.55,3.26,13.7c0.78,3.15,1.2,4.83,1.2,4.83s-0.21-1.71-0.6-4.93
	c-0.39-3.22-0.96-7.94-1.57-13.96c-0.63-6.02-1.26-13.34-1.64-21.72c-0.36-8.37-0.44-17.83,0.51-27.95
	c0.96-10.11,3.01-20.9,7.04-31.42c0.89-2.67,2.22-5.2,3.38-7.8l0.45-0.97l0.52-0.94l1.06-1.88c0.72-1.25,1.37-2.53,2.15-3.76
	c3.05-4.93,6.76-9.6,10.88-14.06c8.28-8.93,18.4-16.88,29.46-24.46c11.05-7.64,22.97-14.85,35.04-23.34
	c11.98-8.46,23.94-18.01,34.33-30.05c5.18-6.01,9.93-12.66,13.85-19.94c3.91-7.25,7-15.23,8.9-23.21c0.93-3.97,1.63-7.9,2.14-11.75
	c0.49-3.84,0.81-7.59,1.02-11.25c0.38-7.3,0.32-14.18,0.18-20.62c-0.34-12.46-0.67-24.3-0.97-35.31
	c-1.25-43.91-2.22-74.83-2.59-79.21c-0.05-0.59-0.12-1.17-0.19-1.75c5.26-9.82,9.86-19.63,13.97-29.21
	c4.84-11.23,9.11-22.16,13.12-32.62c4.01-10.44,7.78-20.47,11.5-29.77c3.73-9.33,7.45-18.08,11.24-26.17
	c3.79-8.09,7.66-15.5,11.59-22.19c3.95-6.67,7.96-12.59,11.97-17.8c4-5.21,7.96-9.73,11.88-13.52c0.48-0.48,0.96-0.97,1.43-1.44
	c0.47-0.41,0.94-0.83,1.4-1.23c0.91-0.81,1.8-1.61,2.68-2.4c0.93-0.73,1.84-1.45,2.73-2.15c0.44-0.36,0.88-0.71,1.31-1.06
	c0.53-0.06,1.1-0.13,1.63-0.19c2.73,1.29,5.41,2.6,8.03,3.93c2.04,1.08,4.07,2.1,6.06,3.16c40.48,42.32,68.3,90.42,79.64,154.54
	c14.47,81.85,2.68,165.8-9.12,248.08c-17.59,122.61-35.18,245.21-52.77,367.82c-10.55,73.52-21.95,149.44-61.26,212.46
	c-55.61,89.14-157.93,137.73-258.76,167.28c-64.12,18.79-130.25,31.98-194.23,50.87H2485.9c-33.78-11.54-65.56-27.55-93.95-50.05
	c-95.36-75.58-127.62-203.89-154.1-322.66c-21.4-95.95-42.91-192.97-41.58-291.27c1.33-98.3,18.18-178.61,53.38-229.88
	c21.91-31.92,46.72-71.7,79.12-99.77c0.75-0.21,1.47-0.41,2.25-0.62c0.99,0.11,1.99,0.22,3.02,0.36c9.93,1.32,21.58,3.88,33.9,8.84
	c6.14,2.52,12.49,5.68,18.97,9.47c6.39,3.93,12.86,8.51,19.18,13.85c12.59,10.73,24.46,24.64,33.66,41.23
	c1.08,2.1,2.24,4.19,3.3,6.34c1,2.18,2,4.37,3.01,6.57c0.89,2.25,1.78,4.52,2.68,6.79c0.86,2.36,1.7,4.86,2.57,7.59
	c1.75,5.43,3.53,11.49,5.86,18.19c2.35,6.67,5.12,13.93,9.32,21.48c2.01,3.75,4.55,7.55,7.27,11.23l2.2,2.73
	c0.74,0.91,1.49,1.8,2.32,2.67l2.45,2.6c0.83,0.85,1.71,1.63,2.58,2.45c6.96,6.45,14.87,11.32,22.97,14.91
	c8.12,3.62,16.46,5.81,24.8,7.12c4.17,0.58,8.35,1.02,12.52,1.1c2.09,0.09,4.17,0.05,6.26,0.01c2.07-0.06,4.06-0.18,6.07-0.34
	c16.07-1.34,30.79-5.71,44.11-10.9c6.69-2.6,13.07-5.42,19.22-8.31c6.2-2.87,12.23-5.86,18.21-8.86
	c23.82-12.03,46.19-24.53,68.7-34.02c5.62-2.42,11.25-4.56,16.87-6.58c1.4-0.47,2.8-0.94,4.2-1.41l2.1-0.7l2.11-0.63
	c1.41-0.42,2.81-0.84,4.22-1.26c1.41-0.37,2.82-0.74,4.23-1.11c5.64-1.5,11.31-2.59,16.96-3.54c5.65-0.8,11.29-1.51,16.86-1.7
	c11.15-0.52,22.13,0.19,32.44,2.56c10.34,2.31,19.98,6.13,28.72,11.28c17.5,10.51,31.55,25.95,43.5,40.5
	c5.89,7.39,11.19,14.78,15.92,22.02c1.15,1.84,2.28,3.65,3.39,5.43c0.56,0.9,1.11,1.79,1.66,2.67c0.52,0.9,1.04,1.8,1.55,2.68
	c1.02,1.78,2.03,3.54,3.02,5.27c0.94,1.76,1.86,3.5,2.77,5.2c7.25,13.69,12.3,26.31,15.99,36.85c3.73,10.55,5.83,19.11,7.36,24.92
	c1.32,5.87,2.02,8.99,2.02,8.99s-0.39-3.18-1.13-9.16c-0.95-5.94-2.21-14.73-4.92-25.72c-2.68-10.99-6.53-24.28-12.56-39.01
	c-0.76-1.84-1.53-3.71-2.32-5.61c-0.84-1.87-1.7-3.78-2.57-5.71c-0.44-0.97-0.88-1.94-1.32-2.92c-0.47-0.96-0.95-1.94-1.43-2.91
	c-0.97-1.96-1.95-3.94-2.95-5.95c-4.15-7.95-8.88-16.15-14.27-24.46c-1.39-2.05-2.79-4.13-4.2-6.23c-1.42-2.09-2.97-4.13-4.48-6.23
	c-3.02-4.2-6.31-8.35-9.8-12.51c-7.02-8.28-15.09-16.48-24.78-23.68c-9.74-7.16-21.07-13.01-33.22-16.99
	c-12.15-4.07-25.1-6.18-38.22-6.86c-6.58-0.4-13.18-0.24-19.83,0.06c-6.62,0.45-13.28,1.08-19.9,2.16c-1.65,0.27-3.32,0.51-4.98,0.8
	c-1.65,0.32-3.3,0.64-4.96,0.96l-2.49,0.48l-2.47,0.56c-1.65,0.38-3.3,0.76-4.95,1.14c-6.51,1.64-13.01,3.42-19.39,5.46
	c-25.65,8.02-50.04,18.75-73.9,28.01c-5.96,2.3-11.9,4.56-17.79,6.62c-5.91,2.11-11.71,4.02-17.38,5.6
	c-11.33,3.21-22.17,5.05-31.97,4.85c-1.22-0.03-2.45-0.08-3.61-0.17c-1.14-0.11-2.28-0.18-3.4-0.37c-2.26-0.27-4.46-0.77-6.61-1.28
	c-4.24-1.16-8.24-2.7-11.55-4.68c-3.32-1.96-6.08-4.2-8.05-6.62c-0.24-0.31-0.52-0.58-0.75-0.89c-0.21-0.32-0.43-0.62-0.65-0.92
	c-0.23-0.28-0.44-0.62-0.64-0.97l-0.64-1c-0.78-1.48-1.6-2.94-2.31-4.77c-1.49-3.49-2.77-7.91-3.99-12.91
	c-1.22-4.98-2.34-10.69-3.69-16.84c-0.67-3.07-1.42-6.33-2.28-9.64c-0.09-0.31-0.17-0.61-0.26-0.91c2.09,0.66,4.28,1.32,6.57,1.98
	c7.19,2.05,15.33,4,24.37,5.32c9.07,1.32,18.93,2.01,29.31,1.38c10.36-0.56,21.26-2.44,32-6.15c5.37-1.84,10.65-4.27,15.77-7.1
	c1.26-0.75,2.52-1.5,3.79-2.25c1.24-0.79,2.45-1.65,3.67-2.48c1.24-0.81,2.4-1.72,3.56-2.63c0.58-0.45,1.17-0.9,1.74-1.36l1.67-1.43
	c8.94-7.67,16.18-16.71,22.64-25.8c6.47-9.1,12.18-18.33,18.25-26.9c6.03-8.61,12.32-16.84,18.8-24.47
	c6.46-7.65,13.03-14.77,19.49-21.3c6.47-6.52,12.89-12.38,18.91-17.67c12.14-10.48,22.94-18.4,30.64-23.72
	c1.93-1.32,3.66-2.49,5.16-3.52c1.53-0.99,2.82-1.83,3.88-2.51c2.1-1.36,3.23-2.09,3.23-2.09s-1.17,0.64-3.38,1.83
	c-1.1,0.6-2.47,1.33-4.07,2.2c-1.58,0.9-3.4,1.94-5.44,3.11c-8.12,4.71-19.57,11.8-32.65,21.41c-6.49,4.87-13.44,10.29-20.53,16.39
	c-7.07,6.11-14.33,12.83-21.53,20.13c-7.22,7.29-14.33,15.21-21.22,23.59c-6.94,8.36-13.39,17.16-20.2,25.32
	c-6.79,8.16-13.99,15.72-21.93,21.52l-1.48,1.09c-0.5,0.35-1.01,0.67-1.52,1.01c-1.01,0.67-2.01,1.35-3.07,1.92
	c-1.05,0.59-2.06,1.21-3.12,1.77c-1.07,0.53-2.14,1.05-3.21,1.58c-4.33,1.96-8.76,3.62-13.28,4.79c-9.04,2.35-18.23,3.25-27.01,3.05
	c-8.78-0.13-17.14-1.36-24.76-3.05c-7.67-1.71-14.71-3.95-20.97-6.24c-6.27-2.29-11.77-4.62-16.43-6.72
	c-3.57-1.6-6.64-3.05-9.16-4.25c-10.6-23.19-24.85-43.33-40.78-59.8c-8.44-8.67-17.32-16.36-26.33-23.13
	c-4.67-3.4-9.38-6.57-14.08-9.49c29.26-15.39,60.35-31.49,89.75-51.71c15.39-10.57,30.33-22.42,43.73-35.16
	c4.03-3.81,7.92-7.71,11.7-11.66c25.97-7.84,117.21-36.58,214.14-67.23c2.07,0.72,4.6,1.7,7.51,3.01c0.93,0.37,1.85,0.88,2.81,1.38
	c0.96,0.52,2,0.99,3.01,1.59c1.01,0.6,2.06,1.23,3.14,1.88c1.09,0.63,2.12,1.43,3.24,2.17c4.38,3.07,8.98,6.94,13.29,11.74
	c2.15,2.4,4.23,5.03,6.15,7.89c1.93,2.8,3.76,6.04,5.61,9.57c1.84,3.53,3.7,7.4,5.74,11.41c2.04,4.02,4.22,8.23,6.93,12.5
	c2.7,4.25,5.9,8.57,10.01,12.45c4.08,3.89,9.15,7.15,14.67,9.18c1.38,0.54,2.79,0.89,4.19,1.28c1.4,0.29,2.82,0.64,4.21,0.8
	c2.81,0.44,5.55,0.53,8.23,0.53c5.35-0.05,10.39-0.71,15.18-1.42c2.35-0.35,4.7-0.71,7.04-1.06l3.41-0.48l3.35-0.3l3.35-0.3
	l1.68-0.15l1.68-0.03c2.24-0.03,4.48-0.07,6.71-0.1c8.92,0.28,17.69,1.54,26.03,3.54c2.07,0.57,4.12,1.13,6.16,1.69
	c1.03,0.25,2.01,0.64,3,0.97c0.99,0.34,1.97,0.69,2.95,1.03c0.98,0.34,1.95,0.68,2.92,1.02c0.95,0.38,1.88,0.79,2.82,1.19
	c1.86,0.8,3.72,1.56,5.52,2.37c1.77,0.9,3.51,1.78,5.22,2.65c0.85,0.45,1.73,0.84,2.54,1.32c0.81,0.48,1.62,0.96,2.42,1.44
	c1.6,0.96,3.18,1.9,4.73,2.82c1.49,1.02,2.94,2.03,4.37,3.01c11.41,7.96,19.49,16.51,24.59,22.85c2.67,3.1,4.41,5.8,5.68,7.59
	c1.26,1.8,1.93,2.76,1.93,2.76s-0.58-1.01-1.67-2.92c-1.11-1.9-2.61-4.77-5.01-8.11c-4.56-6.84-11.95-16.25-22.95-25.49
	c-1.38-1.15-2.79-2.32-4.23-3.51c-1.5-1.12-3.05-2.22-4.63-3.36c-0.79-0.57-1.58-1.14-2.39-1.72c-0.8-0.58-1.67-1.07-2.52-1.61
	c-1.71-1.07-3.44-2.15-5.2-3.25c-1.8-1.02-3.67-1.98-5.55-3c-0.94-0.5-1.89-1.02-2.85-1.51c-0.99-0.45-1.98-0.89-2.97-1.35
	c-1-0.45-2-0.9-3.01-1.36c-1.01-0.45-2.02-0.95-3.08-1.31c-2.1-0.78-4.23-1.58-6.37-2.38c-8.68-2.91-17.99-5.13-27.7-6.29
	c-2.44-0.18-4.89-0.37-7.35-0.55l-1.85-0.13l-1.86,0l-3.73,0l-3.75,0.01l-3.68,0.18c-2.38,0.15-4.77,0.29-7.15,0.44
	c-4.67,0.28-9.17,0.43-13.33,0.09c-2.07-0.19-4.08-0.44-5.93-0.92c-0.96-0.18-1.82-0.52-2.71-0.77c-0.84-0.34-1.72-0.62-2.5-1.03
	c-3.2-1.57-5.99-3.71-8.39-6.45c-2.41-2.73-4.48-6.01-6.32-9.58c-1.85-3.56-3.45-7.43-5.04-11.37c-1.59-3.95-3.11-7.97-4.8-12.04
	c-1.7-4.06-3.53-8.14-5.77-12.1c-2.17-3.94-4.58-7.58-7.1-10.95c-5.05-6.73-10.6-12.27-15.98-16.77c-0.49-0.39-0.98-0.79-1.46-1.19
	c0.71-0.23,1.42-0.45,2.14-0.68c15.25-4.83,30.47-9.65,45.43-14.38c7.35-2.37,15.38-4.64,23.37-8.61c3.95-1.97,7.94-4.44,11.41-7.37
	c3.48-2.89,6.44-6.08,9.03-9.3c5.18-6.48,8.99-13.07,12.66-19.16c3.68-6.14,7.27-12.13,10.77-17.97
	c6.99-11.67,13.59-22.69,19.68-32.86c24.33-40.64,40.46-67.58,40.46-67.58s-18.91,25.07-47.44,62.88
	c-7.13,9.46-14.87,19.72-23.06,30.58c-4.1,5.43-8.31,11.02-12.61,16.73c-4.32,5.73-8.54,11.41-13.21,16.08
	c-2.33,2.34-4.76,4.41-7.31,6.09c-2.51,1.69-5.22,2.98-8.26,4.11c-6.04,2.26-13.21,3.59-20.99,5.19
	c-15.37,3.13-31.01,6.32-46.69,9.52c-71.03,14.49-142.83,29.18-193.51,39.66c1.26-2.1,2.51-4.2,3.73-6.3
	c8.25-14.33,15.35-28.68,21.6-42.79c6.24-14.11,11.65-27.98,16.36-41.47c4.68-13.5,8.74-26.61,12.35-39.21
	c7.07-25.24,12.38-48.44,16.55-69.02c4.18-20.58,7.33-38.51,9.83-53.28c2.49-14.76,4.29-26.36,5.53-34.26
	c1.22-7.9,1.87-12.11,1.87-12.11s-1.36,4.03-3.92,11.61c-2.58,7.56-6.34,18.67-11.31,32.74c-4.97,14.06-11.12,31.1-18.66,50.39
	c-7.52,19.29-16.56,40.79-27.42,63.56c-5.5,11.35-11.45,23.01-17.97,34.79c-6.55,11.77-13.73,23.61-21.55,35.35
	c-7.83,11.73-16.34,23.34-25.63,34.5c-9.31,11.14-19.39,21.85-30.25,31.81c-10.85,9.96-22.49,19.16-34.83,27.33
	c-12.35,8.2-25.33,15.26-39.3,21.67c-27.89,12.85-59.12,22.73-92.34,33.53c-9.08,2.96-18.33,6.01-27.69,9.24
	c0.17-1.6,0.33-3.32,0.48-5.18c0.71-8.72,0.88-20.16,0.03-33.51c-0.12-1.66-0.24-3.36-0.36-5.09c-0.14-1.67-0.29-3.38-0.43-5.12
	c-0.28-3.28-0.58-6.68-0.89-10.22c-0.58-6.96-1.08-14.2-1.27-21.6c-0.18-7.39-0.01-14.92,0.88-22.23c0.9-7.31,2.54-14.36,5.33-20.58
	c1.4-3.11,3.07-6.03,5.07-8.76c2-2.75,4.34-5.23,7.24-7.72c5.76-4.97,13.66-9.52,22.92-13.82c9.26-4.35,19.83-8.45,31.16-13.64
	c5.66-2.61,11.54-5.53,17.47-9.11c5.92-3.58,11.95-7.84,17.55-13.17c5.62-5.28,10.68-11.81,14.43-19l1.38-2.71
	c0.46-0.9,0.81-1.9,1.21-2.84l1.15-2.88l0.56-1.45l0.43-1.48c0.55-1.99,1.18-3.96,1.59-5.97c0.37-2.01,0.72-4.03,1.04-6.05
	c0.96-8.09,0.49-16.09-0.98-23.65c-1.47-7.57-3.91-14.74-7-21.47c-1.03-2.19-2.15-4.32-3.32-6.42c0.17-0.57,0.35-1.14,0.51-1.73
	c0.2-0.76,0.71-2.75,1.52-5.91c0.75-3.09,1.94-7.2,3.39-12.21c2.99-10,7.71-23.43,14.7-38.64c3.55-7.57,7.65-15.59,12.38-23.8
	c1.22-2.03,2.45-4.09,3.7-6.17c1.25-2.08,2.62-4.11,3.94-6.21c1.31-2.11,2.76-4.14,4.18-6.23c0.71-1.04,1.43-2.08,2.15-3.13
	c0.72-1,1.44-2.02,2.19-3c2.95-3.96,6.11-7.67,9.53-10.9c3.44-3.18,7.14-5.84,11.05-7.41c1.96-0.75,3.95-1.39,6-1.58
	c0.51-0.11,1.03-0.1,1.55-0.12l1.57-0.07l1.57,0.12c0.53,0.04,1.06,0.05,1.59,0.18c4.23,0.69,8.59,2.45,12.75,5.16
	c4.18,2.67,8.2,6.03,12.09,9.66c1.94,1.84,3.86,3.72,5.77,5.65l2.87,2.92l1.44,1.47l1.52,1.52c4.07,4.02,8.37,7.77,13.04,11.03
	c4.66,3.25,9.69,6.06,15.13,7.9c1.32,0.52,2.77,0.79,4.15,1.17c1.4,0.33,2.85,0.48,4.26,0.71c1.45,0.04,2.88,0.2,4.32,0.11
	c1.44-0.14,2.87-0.12,4.27-0.48c0.7-0.14,1.39-0.29,2.09-0.43c0.69-0.14,1.34-0.43,2.01-0.64c0.61-0.22,1.61-0.58,2.22-0.8
	c0.55-0.24,1.1-0.48,1.63-0.76c2.46-1.23,4.62-2.76,6.59-4.36c3.92-3.24,7.05-6.76,10.08-9.99c3.04-3.26,5.97-6.41,8.78-9.43
	c22.49-24.17,37.42-40.19,37.42-40.19s-16.1,14.84-40.38,37.21c-3.04,2.8-6.2,5.72-9.48,8.74c-3.29,3.03-6.58,6.16-10.2,8.7
	c-1.81,1.25-3.7,2.36-5.67,3.16c-0.49,0.22-0.99,0.37-1.49,0.56l-1.55,0.4c-0.52,0.12-1.02,0.32-1.55,0.37l-1.59,0.2
	c-1.05,0.21-2.14,0.07-3.21,0.11c-1.08-0.01-2.17-0.24-3.25-0.33c-1.08-0.28-2.17-0.46-3.25-0.81c-1.07-0.4-2.17-0.66-3.22-1.19
	c-4.27-1.82-8.38-4.51-12.25-7.67c-3.88-3.16-7.5-6.85-10.92-10.78c-6.94-8.09-14.11-17.3-23.99-24.77
	c-4.91-3.74-10.82-6.92-17.5-8.53c-6.65-1.67-13.99-1.26-20.49,0.82c-6.54,2.07-12.12,5.59-16.95,9.41
	c-4.79,3.87-8.93,8.1-12.64,12.37c-0.94,1.06-1.83,2.14-2.72,3.2c-0.85,1.06-1.7,2.12-2.54,3.17c-1.67,2.11-3.38,4.17-4.94,6.3
	c-1.58,2.12-3.19,4.19-4.69,6.31c-1.5,2.12-2.98,4.22-4.44,6.29c-5.71,8.39-10.74,16.67-15.15,24.54
	c-8.71,15.8-14.86,30-18.85,40.65c-0.29,0.8-0.57,1.58-0.85,2.34l-2.7-2.58c-10.33-9.46-21.53-17.08-32.53-23.95
	c-11.02-6.86-21.89-13.05-32.06-19.58c-5.11-3.27-9.86-6.58-14.47-10.16c-4.59-3.57-8.94-7.34-12.96-11.33
	c-7.95-8.01-14.59-16.93-18.63-26.61c-2-4.84-3.32-9.84-4.01-14.92c-0.65-5.09-0.59-10.23,0.16-15.28
	c1.46-10.13,5.79-19.84,11.65-28.45c5.86-8.63,13.17-16.24,21.04-22.82c7.89-6.57,16.34-12.15,24.9-16.85
	c4.29-2.34,8.62-4.44,12.95-6.34c2.14-0.96,4.37-1.82,6.55-2.7c1.09-0.44,2.17-0.88,3.25-1.31c1.09-0.41,2.18-0.82,3.26-1.22
	c8.64-3.28,17.09-6.11,25.15-8.81c8.06-2.69,15.73-5.24,22.9-7.79c14.34-5.07,26.64-10.18,36.33-15.25
	c9.71-5.03,16.74-9.96,21.45-13.37c2.3-1.79,4-3.22,5.17-4.16c1.16-0.94,1.76-1.43,1.76-1.43s-0.63,0.45-1.86,1.31
	c-1.23,0.85-3.03,2.17-5.43,3.79c-4.91,3.07-12.19,7.47-22.1,11.78c-9.88,4.35-22.31,8.55-36.83,12.61
	c-7.26,2.04-15.04,4.05-23.28,6.2c-8.23,2.15-16.93,4.42-25.96,7.17c-1.13,0.34-2.27,0.68-3.41,1.02c-1.14,0.37-2.28,0.74-3.43,1.12
	c-2.3,0.76-4.62,1.47-6.98,2.35c-4.7,1.69-9.43,3.61-14.15,5.78c-9.42,4.37-18.84,9.71-27.91,16.27
	c-9.04,6.58-17.75,14.43-25.24,23.99c-3.73,4.78-7.14,10-9.99,15.67c-2.85,5.67-5.1,11.83-6.52,18.3
	c-1.42,6.47-1.98,13.26-1.58,20.04c0.44,6.78,1.76,13.59,3.95,20.1c4.43,13.05,12.03,24.62,20.81,34.75
	c8.84,10.05,19.04,18.86,29.56,26.62c10.44,7.74,21.04,14.75,30.99,21.91c9.93,7.15,19.2,14.53,26.94,22.65l2.82,3.08
	c0.89,1.03,1.69,2.05,2.55,3.07c0.87,0.99,1.58,2.13,2.38,3.17c0.81,1.04,1.51,2.17,2.22,3.28c2.85,4.43,5.27,9.09,7.12,13.84
	c3.62,9.5,4.85,19.26,3.27,27.41c-0.27,0.99-0.53,1.98-0.75,2.97c-0.27,0.97-0.7,1.88-1,2.82l-0.24,0.7l-0.34,0.66l-0.65,1.32
	c-0.23,0.44-0.38,0.89-0.65,1.32l-0.8,1.29c-2.14,3.42-4.76,6.41-8.07,9.1c-6.56,5.42-15.59,9.71-25.58,13.52
	c-10,3.84-20.9,7.26-32.05,11.6c-11.12,4.35-22.72,9.65-33.54,17.66c-5.37,3.98-10.55,8.71-14.94,13.88
	c-4.41,5.17-8.14,10.75-11.16,16.41c-1.09,2.04-2.09,4.09-3,6.14c-10.92-6.41-26.11-15.3-43.92-25.7
	c-17.01-9.92-36.46-21.26-56.86-33.15c-10.17-5.92-20.58-11.99-31.04-18.08c-5.23-3.04-10.46-6.09-15.69-9.14
	c-2.61-1.52-5.22-3.04-7.83-4.56l-1.95-1.14l-0.98-0.57l-0.45-0.26l-0.27-0.15c-1.43-0.78-2.51-2.08-3.01-3.64
	c-24.15-75.14-45.98-143.06-45.98-143.06s16.36,68.38,34.78,145.36c1.18,4.92,4.14,9.24,8.32,12.1
	c38.32,26.3,77.96,53.51,109.14,74.9c20.37,13.97,37.18,25.48,47.71,32.64c-0.11,0.55-0.22,1.1-0.33,1.65
	c-2,10.57-2.78,20.35-3.13,29.32c-0.34,8.97-0.26,17.19-0.1,24.65c0.09,3.68,0.18,7.23,0.27,10.65c0.04,1.61,0.08,3.18,0.11,4.72
	c0.02,1.48,0.03,2.93,0.04,4.35c0.04,11.3-0.65,20.11-1.5,26.37c-0.83,6.28-1.73,10.04-2.02,11.57c-1.24,6.05-2.15,11.43-2.87,16.25
	c-0.27,1.93-0.51,3.76-0.73,5.56c-1.65,0.74-3.29,1.48-4.91,2.25c-4.32,2.12-8.64,4.24-12.95,6.36
	c-17.1,8.74-33.82,18.14-49.66,28.56c-8.07,5.03-15.68,10.58-23.42,15.95c-3.82,2.74-7.51,5.61-11.25,8.42
	c-1.26,0.95-2.52,1.91-3.77,2.86c-7.04-34.37-19.35-68.02-31.19-101.21c-52.57-147.36-98.33-303.52-75.71-458.33
	c9.14-62.54,29.23-122.88,49.23-182.84c13.57-40.7,27.36-81.78,42.56-122.33c2.82-2.12,5.66-4.26,8.57-6.44
	c13.69-10.29,28.4-21.35,43.86-32.98c7.62-5.7,15.34-11.3,23.47-15.87c8.1-4.64,16.68-8.07,25.34-9.21
	c4.33-0.59,8.64-0.35,12.94,0.35c4.27,0.82,8.44,2.27,12.39,4.46c7.94,4.31,14.99,11.25,20.92,19.4
	c5.95,8.16,10.93,17.44,15.23,27.14c1.08,2.43,2.12,4.88,3.12,7.36l3.03,7.62c2.04,5.14,4.11,10.3,6.33,15.46
	c2.25,5.15,4.56,10.3,7.24,15.34c1.26,2.54,2.75,5.01,4.14,7.5l2.29,3.66l1.15,1.82l1.25,1.78c3.23,4.79,7.07,9.26,11.23,13.37
	l3.24,2.99c1.12,0.96,2.31,1.83,3.47,2.75l0.98,0.76c0.34,0.27,0.71,0.55,1.11,0.82l2.41,1.47c1.61,0.96,3.18,1.98,4.81,2.88
	c3.23,1.23,6.93,5.33,9.06,0.64c2.49-2.67,4.9-5.53,7.3-8.32l2.69-3.17c0.85-1,1.68-2.02,2.59-2.97c1.78-1.93,3.55-3.85,5.31-5.77
	c1.77-1.92,3.53-3.83,5.28-5.74c1.83-1.83,3.65-3.66,5.47-5.48c1.82-1.82,3.63-3.63,5.43-5.44l1.35-1.35l1.4-1.29
	c0.93-0.86,1.87-1.72,2.8-2.58c1.86-1.72,3.71-3.43,5.56-5.13c0.92-0.85,1.84-1.7,2.76-2.55c0.95-0.81,1.9-1.62,2.84-2.43
	c3.8-3.21,7.51-6.45,11.28-9.54c3.84-3.01,7.63-5.98,11.38-8.92c3.79-2.89,7.65-5.57,11.4-8.31c3.72-2.79,7.59-5.23,11.34-7.74
	c1.88-1.25,3.75-2.48,5.6-3.71c1.83-1.25,3.76-2.32,5.61-3.48c3.74-2.26,7.39-4.52,11.02-6.66c3.69-2.04,7.3-4.05,10.84-6.01
	c3.51-2.03,7.09-3.74,10.55-5.49c1.73-0.87,3.44-1.73,5.13-2.59c1.69-0.84,3.35-1.72,5.04-2.46c3.36-1.53,6.64-3.02,9.82-4.46
	c1.6-0.72,3.15-1.46,4.71-2.12c1.57-0.64,3.12-1.27,4.64-1.89c3.05-1.24,6-2.44,8.85-3.6c0.71-0.29,1.42-0.58,2.12-0.86
	c0.71-0.26,1.41-0.51,2.11-0.76c1.39-0.5,2.76-0.99,4.1-1.48c5.36-1.91,10.26-3.78,14.79-5.11c4.51-1.42,8.53-2.68,12.03-3.78
	c3.54-0.96,6.55-1.77,9-2.43c4.89-1.32,7.49-2.02,7.49-2.02s-2.63,0.6-7.56,1.73c-2.47,0.56-5.51,1.26-9.1,2.08
	c-3.55,0.96-7.63,2.07-12.2,3.31c-4.6,1.16-9.57,2.84-15.03,4.55c-1.36,0.43-2.75,0.87-4.17,1.32c-0.71,0.23-1.43,0.45-2.15,0.68
	c-0.71,0.26-1.43,0.52-2.16,0.78c-2.91,1.05-5.92,2.14-9.03,3.27c-1.56,0.56-3.14,1.14-4.74,1.72c-1.6,0.61-3.19,1.29-4.82,1.95
	c-3.26,1.33-6.61,2.7-10.06,4.11c-1.74,0.67-3.43,1.49-5.17,2.28c-1.74,0.79-3.49,1.59-5.27,2.4c-3.55,1.63-7.23,3.22-10.85,5.13
	c-3.65,1.84-7.38,3.73-11.18,5.65c-3.75,2.02-7.52,4.16-11.39,6.3c-1.92,1.1-3.91,2.11-5.81,3.3c-1.92,1.17-3.86,2.35-5.81,3.54
	c-3.89,2.39-7.91,4.73-11.79,7.4c-3.9,2.63-7.94,5.2-11.89,7.98c-3.92,2.84-7.89,5.71-11.9,8.62c-3.95,2.99-7.85,6.14-11.85,9.26
	c-0.99,0.79-1.99,1.57-2.99,2.36c-0.97,0.83-1.94,1.65-2.91,2.49c-1.95,1.66-3.9,3.33-5.87,5.01c-0.98,0.84-1.97,1.68-2.95,2.52
	l-1.48,1.27l-1.43,1.33c-1.91,1.77-3.83,3.55-5.76,5.33c-1.93,1.79-3.86,3.58-5.8,5.39c-1.87,1.88-3.74,3.76-5.62,5.65
	c-1.88,1.89-3.77,3.79-5.66,5.69c-0.96,0.94-1.85,1.95-2.76,2.94l-2.59,2.83c-2.35,2-4.13,6.45-7.26,3.08
	c-0.69-0.43-1.32-0.93-1.98-1.38l-0.97-0.69l-1.09-0.93c-0.93-0.81-1.91-1.56-2.81-2.4l-2.64-2.64c-3.4-3.66-6.58-7.61-9.29-12
	l-1.05-1.61l-0.97-1.68l-1.94-3.37c-1.19-2.34-2.45-4.61-3.54-7.03c-2.29-4.74-4.3-9.71-6.26-14.71c-1.94-5.02-3.77-10.14-5.59-15.3
	l-2.76-7.82c-0.95-2.66-1.95-5.3-3.01-7.94c-4.2-10.53-9.21-20.9-15.73-30.6c-3.27-4.84-6.94-9.5-11.14-13.79
	c-4.21-4.27-8.95-8.2-14.29-11.36c-5.3-3.2-11.21-5.57-17.29-6.96c-6.08-1.29-12.38-1.81-18.45-1.23
	c-6.06,0.54-11.87,1.89-17.33,3.7c-5.48,1.79-10.58,4.09-15.41,6.58c-9.68,4.98-18.24,10.76-26.32,16.34
	c-8.7,6.05-17.15,11.93-25.34,17.62c26.92-66.51,58.85-130.77,101.42-188.64c6.96-9.47,41.57-41.58,53.06-59.62
	c18.12-14.21,37.69-26.45,57.42-38.27c17.76-10.63,35.87-20.98,53.43-32.09c1.14,0.4,2.48,0.87,4.03,1.42
	c1.05,0.37,2.2,0.78,3.43,1.21c1.22,0.46,2.53,0.96,3.92,1.49c1.39,0.53,2.87,1.09,4.42,1.68c1.54,0.63,3.16,1.29,4.86,1.99
	c3.41,1.34,7.04,3.01,10.98,4.73c1.96,0.88,3.96,1.86,6.04,2.83c1.04,0.49,2.09,0.99,3.16,1.5c1.06,0.54,2.13,1.08,3.22,1.63
	c8.71,4.38,18.25,9.6,28.17,15.88c2.46,1.6,4.97,3.23,7.52,4.88c2.53,1.69,5.05,3.48,7.64,5.26c2.55,1.83,5.11,3.73,7.72,5.64
	c2.59,1.95,5.21,3.98,7.89,6.07c10.71,8.34,22.17,17.8,35.89,25.77c6.88,3.94,14.36,7.42,22.37,9.87
	c8.04,2.41,16.46,3.69,24.85,3.84c16.82,0.31,33.32-3.66,48.31-10.04c7.51-3.2,14.69-7,21.51-11.24l2.56-1.59l2.49-1.68
	c1.66-1.12,3.32-2.23,4.87-3.35c3.14-2.22,6.17-4.36,9.23-6.26c6.07-3.77,12.35-6.65,18.28-6.42c2.96,0.11,5.83,0.87,8.46,2.35
	c2.62,1.5,5.07,3.57,7.22,6.06c4.36,4.96,7.71,11.03,10.97,17.15c3.3,6.07,6.34,12.11,9.24,18.01
	c5.78,11.82,10.73,23.24,14.98,33.91c8.5,21.34,14.05,39.68,17.59,52.58c0.91,3.22,1.64,6.12,2.28,8.63
	c0.66,2.51,1.18,4.66,1.59,6.41c0.83,3.49,1.27,5.34,1.27,5.34s-0.34-1.88-0.98-5.41c-0.31-1.77-0.71-3.94-1.23-6.49
	c-0.51-2.55-1.07-5.49-1.81-8.76c-2.83-13.11-7.38-31.8-14.76-53.75c-3.69-10.97-8.05-22.77-13.24-35.04
	c-2.61-6.13-5.35-12.41-8.36-18.75c-2.95-6.3-6.1-13.04-10.99-19.28c-2.42-3.12-5.42-6.06-9.07-8.42
	c-3.66-2.35-8.07-3.85-12.55-4.24c-4.51-0.43-8.98,0.35-13.03,1.63c-4.08,1.29-7.83,3.08-11.37,5.02c-3.54,1.94-6.89,4.05-10.14,6.1
	c-1.63,1.04-3.22,1.99-4.82,2.94l-2.39,1.43l-2.45,1.34c-6.53,3.58-13.32,6.71-20.28,9.24c-13.91,5.07-28.64,7.64-42.66,6.61
	c-7.01-0.51-13.79-1.94-20.16-4.22c-6.38-2.34-12.43-5.53-18.19-9.25c-11.52-7.53-21.88-16.93-32.28-25.99
	c-2.61-2.27-5.22-4.52-7.85-6.73c-2.67-2.17-5.28-4.34-7.9-6.43c-2.65-2.04-5.24-4.08-7.84-6.02c-2.63-1.91-5.21-3.78-7.74-5.62
	c-10.23-7.25-20.14-13.36-29.23-18.53c-1.14-0.65-2.26-1.29-3.36-1.92c-1.12-0.6-2.22-1.2-3.31-1.78c-2.18-1.16-4.27-2.32-6.33-3.36
	c-4.13-2.06-7.95-4.04-11.55-5.66c-1.59-0.74-3.1-1.45-4.56-2.13c12.33-8.97,24.13-18.66,35.01-29.5
	c15.93-15.88,29.58-33.96,45.93-49.4c16.35-15.45,36.24-28.48,58.58-31.05c25.1-2.89,49.65,7.73,70.89,21.81
	c10.61,9.59,21.23,19.2,31.85,28.8c23.1,20.89,46.16,41.73,68.8,62.21c11.32,10.24,22.55,20.38,33.63,30.4
	c5.56,5.01,10.98,9.97,16.62,14.97c5.64,4.98,11.54,9.9,17.92,14.32c6.4,4.41,13.2,8.33,20.71,11.13
	c7.44,2.76,15.26,4.43,23.21,4.49c7.91,0.1,16.01-1.4,23.19-4.97c3.58-1.75,6.87-3.93,9.81-6.37c2.94-2.44,5.51-5.15,7.83-7.92
	c4.64-5.57,8.2-11.47,11.41-17.23c3.2-5.79,6.04-11.37,8.96-16.88c5.79-11.02,11.38-21.65,16.74-31.86
	c42.9-81.64,71.32-135.72,71.32-135.72s-31.34,52.44-78.66,131.61c-5.91,9.9-12.08,20.21-18.46,30.89
	c-3.2,5.32-6.42,10.85-9.74,16.14c-3.34,5.29-6.88,10.42-10.98,14.81c-4.07,4.42-8.73,8.02-13.93,10.18
	c-5.15,2.22-11.02,3-16.99,2.61c-5.98-0.37-12.06-2-17.81-4.51c-5.7-2.48-11.29-6.06-16.58-10.17c-5.32-4.13-10.43-8.85-15.55-13.91
	c-5.11-5.05-10.36-10.4-15.62-15.68c-10.52-10.6-21.18-21.34-31.93-32.18c-21.51-21.67-43.4-43.73-65.34-65.84
	c-10.97-11.05-21.96-22.12-32.92-33.16c-11.05-11.12-22.84-22.75-37.41-32.45c-7.3-4.82-15.39-9.15-24.47-12.12
	c-9.03-2.98-19.15-4.44-29.13-3.58c-4.98,0.48-9.93,1.35-14.57,2.75c-4.62,1.39-9.09,3.08-13.18,5.09l-1.55,0.74l-1.49,0.78
	c-0.99,0.53-2,1.04-2.96,1.58c-1.89,1.1-3.83,2.19-5.61,3.35c-3.67,2.28-7.04,4.68-10.32,7.08c-0.27,0.2-0.53,0.41-0.8,0.61
	c0.5-2.05,1.01-4.16,1.53-6.34c1.96-7.98,4.03-17.1,6.44-26.24c2.47-9.12,5.46-18.46,10.34-26.85c4.73-8.16,11.87-15.76,20.56-19.72
	c2.17-0.97,4.41-1.7,6.71-2.18c2.28-0.51,4.73-0.6,7.25-0.62c5.1,0.17,10.61,1.27,16.46,2.91c5.84,1.59,12,3.59,18.66,5.08
	c1.63,0.4,3.38,0.68,5.07,1.01l2.62,0.37c0.87,0.13,1.75,0.24,2.65,0.29l2.68,0.2l2.71,0.01c0.9-0.01,1.8,0.02,2.7-0.03l2.68-0.22
	c7.14-0.66,13.99-2.61,20.27-5.33c6.3-2.72,12.04-6.23,17.34-10.06c10.6-7.69,19.42-16.8,27.27-25.84
	c15.77-18.19,27.71-37.18,36.09-54.2c1.1-2.1,2.06-4.22,3.01-6.28c0.95-2.06,1.91-4.05,2.72-6.05c0.84-1.98,1.66-3.92,2.45-5.8
	c0.73-1.9,1.44-3.75,2.13-5.54c0.34-0.89,0.68-1.78,1.01-2.64c0.3-0.88,0.6-1.74,0.9-2.58c0.58-1.69,1.15-3.32,1.69-4.88
	c1.02-3.15,1.89-6.06,2.7-8.68c0.72-2.64,1.36-5,1.92-7.05c0.57-2.05,0.93-3.82,1.28-5.24c0.67-2.85,1.03-4.36,1.03-4.36
	s-0.46,1.49-1.32,4.29c-0.45,1.39-0.92,3.13-1.63,5.13c-0.69,2-1.49,4.3-2.38,6.88c-0.99,2.55-2.05,5.37-3.26,8.43
	c-0.64,1.51-1.31,3.09-2,4.72c-0.35,0.82-0.7,1.65-1.06,2.49c-0.39,0.83-0.78,1.68-1.18,2.54c-0.8,1.72-1.62,3.5-2.47,5.33
	c-0.91,1.8-1.84,3.65-2.81,5.55c-0.93,1.91-2.01,3.81-3.08,5.78c-1.07,1.96-2.15,3.97-3.37,5.97c-9.33,16.15-22.25,33.88-38.63,50.4
	c-8.2,8.27-17.12,16.26-27.17,22.57c-5.01,3.14-10.27,5.87-15.72,7.8c-5.44,1.94-11.06,3.1-16.61,3.23
	c-11.02,0.49-21.86-4.23-34.19-8.54c-6.13-2.14-12.83-4.09-20.09-4.82c-3.66-0.25-7.39-0.34-11.15,0.2
	c-3.73,0.51-7.37,1.43-10.81,2.71c-3.42,1.3-6.65,2.92-9.67,4.75c-3.01,1.84-5.78,3.93-8.37,6.14c-5.15,4.45-9.49,9.51-13.09,14.84
	c-1.77,2.63-3.34,5.3-4.8,7.97c-1.42,2.67-2.73,5.34-3.9,7.98c-2.34,5.28-4.23,10.42-5.89,15.32c-3.28,9.84-5.8,18.48-8.28,26.39
	c-2.43,7.91-4.59,14.92-6.41,20.83c-2.89,9.42-4.94,16.15-5.92,19.5c-5.39,4.24-10.73,8.44-16.01,12.59
	c-5.45,4.28-10.94,8.39-16.3,12.52c-21.58,16.37-42.43,31.49-62.11,45.17c-43.97,30.49-81.88,53.96-108.21,69.65
	c19.75-40.28,38.68-78.88,56.62-115.46c5.55-11.32,11-22.43,16.35-33.36c2.07-2.41,4.57-5,7.62-7.58
	c5.48-4.67,12.65-9.25,21.05-12.52c0.52-0.23,1.05-0.43,1.59-0.59c0.54-0.18,1.08-0.35,1.62-0.53c1.09-0.33,2.17-0.78,3.3-1.03
	c2.24-0.53,4.52-1.19,6.87-1.48l1.76-0.29c0.59-0.11,1.18-0.2,1.77-0.23c1.19-0.1,2.38-0.19,3.58-0.29
	c1.14-0.13,2.57-0.11,3.98-0.18c1.43-0.05,2.93-0.12,4.52-0.29c0.41-0.03,0.76-0.09,1.26-0.15c0.51-0.06,1-0.13,1.49-0.22
	c0.98-0.16,1.93-0.39,2.87-0.66c1.87-0.54,3.64-1.34,5.22-2.4c1.58-1.05,2.94-2.39,4.02-3.9c1.08-1.52,1.83-3.24,2.34-5.01
	c0.25-0.88,0.45-1.78,0.6-2.68c0.07-0.45,0.14-0.9,0.2-1.35l0.08-0.67l0.05-0.53c0.1-1.31,0.2-2.61,0.3-3.91
	c0.19-2.56,0.39-5.09,0.58-7.57c0.75-9.92,1.45-19.16,2.05-27.08c1.19-15.79,1.98-26.28,1.98-26.28s-2.45,10.24-6.14,25.63
	c-1.84,7.72-4,16.74-6.31,26.41c-0.58,2.42-1.17,4.89-1.76,7.38c-0.3,1.23-0.6,2.48-0.9,3.73l-0.11,0.43l-0.09,0.29l-0.19,0.56
	c-0.13,0.37-0.28,0.73-0.44,1.08c-0.33,0.7-0.74,1.35-1.28,1.87c-0.55,0.52-1.19,0.93-1.88,1.19c-0.69,0.26-1.42,0.39-2.14,0.43
	c-0.36,0.01-0.71,0.02-1.06,0c-0.17,0-0.35-0.02-0.5-0.04l-0.74-0.04c-1.07-0.06-2.25-0.19-3.48-0.34
	c-1.26-0.14-2.49-0.36-4.02-0.46c-1.47-0.11-2.94-0.23-4.41-0.34c-0.74-0.07-1.47-0.08-2.2-0.07l-2.2,0.01
	c-2.95-0.08-5.84,0.24-8.73,0.48c-1.45,0.1-2.85,0.41-4.27,0.61c-0.71,0.11-1.42,0.23-2.12,0.34c-0.71,0.1-1.41,0.24-2.09,0.42
	c-1.98,0.43-3.91,0.94-5.81,1.48c11.09-22.62,21.69-44.24,31.76-64.79c1.25-1.97,2.49-3.92,3.77-5.78
	c4.56-6.6,9.16-13.17,13.81-19.7c9.47-13.31,19.12-26.5,28.95-39.55c9.13-12.12,19.15-24.69,33.35-30.07
	c4.71-1.78,9.64-2.67,14.66-3.07c4.77,0.7,10.05,1.88,15.82,2.49c7.74,0.79,15.41,0.27,22.63-1.16c3.61-0.7,7.1-1.68,10.49-2.75
	c3.37-1.11,6.62-2.38,9.73-3.75c12.47-5.56,22.61-12.89,30.77-19.48c8.14-6.65,14.42-12.63,18.83-16.78
	c4.37-4.18,6.86-6.57,6.86-6.57s-2.76,2.06-7.61,5.68c-4.86,3.58-11.81,8.74-20.53,14.25c-8.72,5.46-19.3,11.25-31.32,14.93
	c-3,0.9-6.08,1.69-9.21,2.32c-3.14,0.59-6.32,1.07-9.52,1.3c-6.41,0.48-12.87,0.1-19.02-1.29c-6.13-1.34-12.68-4.04-20.56-5.53
	c-1.96-0.37-4.02-0.64-6.14-0.76c-1.06-0.09-2.12-0.05-3.18-0.04c-1.06,0.01-2.13,0.02-3.17,0.15c-4.23,0.31-8.28,1.31-12.05,2.62
	c-1.92,0.62-3.68,1.42-5.47,2.19c-1.7,0.84-3.44,1.66-5.02,2.59c-2.03,1.12-3.93,2.32-5.76,3.54
	c42.04-85.75,66.53-135.71,66.53-135.71s-18.45,28.35-51.26,78.77c-17.52,22.46-35.05,44.91-52.57,67.37
	c-7.1,9.1-14.27,18.32-18.95,28.86c-2.03,4.58-4.21,9.98-9.02,11.37c-1.21,0.35-2.72,0.04-4.3-0.55c-0.85-1.39-1.72-2.81-2.63-4.29
	c-2.36-3.85-4.9-8-7.59-12.37c-2.52-4.16-4.73-8.21-5.95-12.17c-0.59-1.99-0.97-3.88-1.02-6.01c-0.06-2.11,0.16-4.37,0.65-6.73
	c0.98-4.72,3.01-9.75,5.46-14.8c4.99-10.19,11.12-20.7,14.79-31.61c1.85-5.46,3.08-10.92,3.43-16.28
	c0.35-5.36-0.37-10.36-1.58-14.76c-1.23-4.4-3.05-8.19-5.12-11.21c-2.07-3.03-4.38-5.24-6.42-6.82c-1.07-0.73-1.97-1.43-2.88-1.86
	c-0.88-0.46-1.6-0.9-2.25-1.11c-1.26-0.5-1.93-0.76-1.93-0.76s0.62,0.36,1.79,1.03c0.6,0.3,1.25,0.83,2.03,1.4
	c0.81,0.53,1.58,1.34,2.49,2.17c1.71,1.78,3.55,4.15,5.03,7.2c1.49,3.04,2.63,6.72,3.15,10.81c0.5,4.08,0.48,8.59-0.49,13.11
	c-0.46,2.23-1.19,4.57-2.02,6.88c-0.89,2.3-1.88,4.62-3.07,6.92c-2.35,4.61-5.28,9.18-8.48,13.81c-3.2,4.64-6.67,9.3-10.1,14.33
	c-3.41,5.07-6.75,10.58-9.11,16.98c-1.17,3.19-2.08,6.61-2.51,10.19c-0.46,3.57-0.35,7.34,0.16,10.8
	c1.05,6.96,3.42,12.82,5.53,17.83c2.09,4.79,4.07,9.34,5.9,13.55c7.33,16.76,12.53,28.54,13.38,30.17c0.13,0.25,0.28,0.48,0.42,0.72
	c-17.19,26.41-35.64,54.76-55.19,84.81c-0.78-3.46-1.63-6.91-2.49-10.36c-6.07-24.44-12.15-48.88-18.22-73.32
	c-1.79-7.19-3.69-14.63-8.28-20.45c-5.16-6.55-13.09-10.25-20.93-13.09c-23.2-8.41-48.37-11.32-72.87-8.43
	c-6.26,0.74-12.77,1.83-18.73-0.22c-6.76-2.32-8.11-11.22-10.73-17.87v0c-0.66-4.57-1.37-9.46-2.12-14.62
	c-0.5-3.53-0.89-6.91-0.88-9.96c0.01-3.07,0.4-5.71,1.37-7.98c0.96-2.32,2.64-4.62,5.07-6.71c2.42-2.08,5.53-3.9,9-5.28
	c1.74-0.68,3.56-1.28,5.44-1.74c1.94-0.47,3.98-0.85,6.09-1.16c4.23-0.6,8.75-0.9,13.49-1.15c4.73-0.25,9.7-0.46,14.81-0.97
	c5.16-0.53,10.32-1.45,15.39-2.81c5.06-1.37,10.04-3.19,14.77-5.6c4.71-2.42,9.17-5.44,13.06-9.07c3.9-3.6,7.18-7.89,9.61-12.32
	c2.47-4.43,4.24-8.96,5.73-13.36c1.48-4.41,2.68-8.7,3.89-12.84c1.21-4.16,2.39-8.22,3.53-12.17c2.29-7.9,4.46-15.37,6.46-22.25
	c7.98-27.51,13.27-45.77,13.27-45.77s-6.88,17.72-17.26,44.42c-2.59,6.68-5.41,13.93-8.39,21.6c-1.49,3.84-3.02,7.78-4.59,11.82
	c-1.58,4.04-3.13,8.16-4.87,12.14c-1.74,3.99-3.7,7.86-6.07,11.36c-2.36,3.51-5.16,6.53-8.47,9.09c-3.3,2.56-7.03,4.65-11.03,6.28
	c-4.01,1.61-8.28,2.77-12.64,3.55c-4.37,0.78-8.83,1.18-13.31,1.25c-4.54,0.06-9.21-0.14-14.05-0.31
	c-9.64-0.29-20.06-0.6-30.77,2.58c-5.22,1.57-10.31,3.85-14.96,7.15c-4.64,3.27-8.84,7.69-11.69,12.99
	c-2.93,5.33-4.13,11.03-4.59,15.98c-0.45,5-0.25,9.44-0.04,13.41c0.95,15.19,1.75,28.07,2.33,37.43c0.38,5.86,0.68,10.41,0.89,13.38
	c-4.38,1.19-8.7,2.2-12.97,2.96c-1.03,0.21-2.04,0.36-3.05,0.49l-3.04,0.42l-3,0.26c-0.5,0.04-1,0.1-1.5,0.13l-1.47,0.04
	c-3.97,0.25-7.77-0.1-11.57-0.53c-7.45-1.18-14.7-3.73-21.48-7.99c-3.43-2.01-6.66-4.54-9.84-7.16c-1.53-1.4-3.13-2.71-4.6-4.22
	c-0.75-0.74-1.51-1.46-2.24-2.21l-2.17-2.32c-5.77-6.21-10.89-13.23-15.64-20.44c-1.19-1.8-2.32-3.65-3.47-5.48
	c-1.1-1.88-2.2-3.76-3.29-5.63c-1.09-1.88-2.21-3.73-3.26-5.61c-1.02-1.9-2.03-3.79-3.03-5.68c-16.09-30.25-26.45-61.02-33.44-87.79
	c-6.87-26.84-10.68-49.74-12.95-65.77c-0.54-4.02-1.02-7.6-1.44-10.72c-0.42-3.12-0.69-5.78-0.95-7.94
	c-0.5-4.31-0.77-6.61-0.77-6.61s0.06,2.31,0.17,6.65c0.07,2.17,0.1,4.85,0.23,8c0.13,3.15,0.29,6.77,0.46,10.83
	c0.81,16.23,2.52,39.48,7.02,67.29c4.62,27.74,12.3,60.15,26.28,93.34c0.88,2.07,1.76,4.15,2.65,6.24c0.92,2.07,1.92,4.12,2.89,6.2
	c0.98,2.07,1.96,4.16,2.94,6.25c1.05,2.08,2.09,4.18,3.21,6.26c4.47,8.32,9.44,16.66,15.57,24.6l2.31,2.97
	c0.8,0.98,1.63,1.94,2.45,2.91c1.6,1.97,3.43,3.8,5.19,5.7c3.68,3.66,7.54,7.27,11.92,10.44c8.54,6.53,18.95,11.52,29.92,14.25
	c5.47,1.21,11.06,2.14,16.52,2.33l2.06,0.12c0.68,0.03,1.35,0.01,2.03,0.02l4.07,0l4-0.18c1.34-0.06,2.67-0.13,3.96-0.28
	c10.5-0.91,20.42-2.87,29.79-4.96c4.6-1.05,9.18-2.1,13.75-3.14c2.2-0.49,4.44-1.02,6.6-1.47l3.24-0.69l3.07-0.6
	c8.11-1.5,16.12-2.29,23.63-2.18c7.49,0.11,14.47,1.15,20.14,3.18c5.71,2.02,9.93,4.86,12.93,8.3c1.53,1.74,2.75,3.58,3.87,5.75
	c1.11,2.16,2.09,4.64,2.92,7.37c1.1,3.57,1.96,7.55,2.7,11.78c-3.18-1.21-6.81-2.57-10.96-3.97c-5.86-1.91-12.74-4.01-21.01-4.83
	c-4.12-0.4-8.58-0.44-13.21,0.19c-4.64,0.62-9.34,2-13.8,3.97c-8.88,4.11-16.34,10.66-22.1,17.96c-5.86,7.3-10.42,15.32-14.39,23.46
	c-3.91,8.09-7.34,16-11.37,23.4c-3.99,7.39-8.57,14.19-14.28,19.44c-2.85,2.62-5.95,4.9-9.29,6.64c-3.35,1.75-6.93,3.05-10.61,3.89
	c-7.37,1.7-14.98,1.69-22.07,0.69c-7.11-1-13.7-3.07-19.61-5.49c-11.83-4.9-20.98-10.82-27.36-14.84c-3.18-2.04-5.66-3.69-7.35-4.8
	c-1.69-1.12-2.59-1.72-2.59-1.72s0.84,0.68,2.41,1.96c1.57,1.27,3.88,3.15,6.86,5.5c2.98,2.35,6.63,5.17,10.97,8.24
	c4.35,3.06,9.4,6.37,15.28,9.47c5.86,3.09,12.61,5.98,20.2,7.81c7.57,1.81,15.98,2.7,24.75,1.56c4.38-0.57,8.83-1.69,13.15-3.44
	c4.34-1.75,8.45-4.18,12.24-7.05c7.61-5.76,13.67-13.24,18.78-20.86c5.15-7.61,9.51-15.55,13.9-22.76c2.18-3.56,4.44-6.99,6.8-10.2
	c2.37-3.19,4.85-6.15,7.42-8.8c5.11-5.36,10.73-9.08,16.14-10.97c1.38-0.38,2.7-0.85,4.06-1.02c0.67-0.12,1.33-0.28,2-0.31
	c0.67-0.06,1.32-0.15,2-0.14c2.66-0.09,5.35,0.18,8.01,0.7c5.33,1.03,10.57,3.08,15.37,5.16c4.81,2.12,9.27,4.33,13.19,6.21
	c4.37,2.1,7.83,3.75,10.27,4.91c0.73,3.52,1.59,8.03,2.46,13.2c0.84,5.87,1.63,11.44,2.38,16.67c2.15,18.52,2.92,40.05-1.84,55.39
	c-10.13,32.66-57.32,88.19-66.88,107.3c-9.55,19.11-46.54,70.55-55.85,84.52c-4.04,6.07-10.35,18.66-17.09,30.12
	c-2.22-4.49-4.66-9.42-7.29-14.74c-2.79-5.63-5.8-11.69-8.96-18.08c-1.58-3.18-3.2-6.44-4.85-9.77c-0.82-1.66-1.66-3.34-2.5-5.03
	c-0.83-1.67-1.62-3.28-2.35-4.86c-1.46-3.16-2.67-6.23-3.3-9.1c-0.32-1.43-0.5-2.81-0.53-4.14c-0.02-0.67,0-1.31,0.09-1.97
	c0.12-0.65,0.23-1.31,0.31-1.98c0.63-2.65,2.03-5.45,4.01-8.3c1.97-2.85,4.48-5.73,7.15-8.7c2.69-2.98,5.54-6.09,8.23-9.56
	c2.65-3.48,5.24-7.32,6.87-11.8c0.77-2.24,1.44-4.53,1.75-6.87c0.27-2.33,0.38-4.66,0.15-6.91c-0.35-4.51-1.6-8.66-3.16-12.42
	c-3.15-7.55-7.6-13.69-11.77-19.24c-4.23-5.56-8.49-10.57-12.6-15.01c-8.23-8.88-15.8-15.45-21.24-19.82
	c-2.72-2.19-4.9-3.84-6.4-4.94c-1.5-1.1-2.3-1.69-2.3-1.69s0.73,0.67,2.11,1.92c1.37,1.26,3.36,3.12,5.82,5.57
	c4.91,4.89,11.68,12.16,18.78,21.65c3.54,4.75,7.15,10.05,10.67,15.83c1.74,2.91,3.5,5.89,5.03,8.99c1.55,3.1,2.92,6.32,3.89,9.62
	c2.02,6.6,2.16,13.44-0.8,19.04c-1.39,2.87-3.59,5.55-6.09,8.19c-2.52,2.64-5.41,5.22-8.43,7.93c-3.04,2.74-6.21,5.65-9.22,9.13
	c-2.99,3.47-5.87,7.63-7.67,12.62c-0.38,1.27-0.74,2.55-1.09,3.84c-0.31,1.29-0.51,2.63-0.63,3.94c-0.25,2.63-0.18,5.22,0.09,7.67
	c0.55,4.92,1.85,9.28,3.18,13.24c0.67,1.98,1.38,3.87,2.05,5.67c0.66,1.77,1.32,3.53,1.98,5.27c1.3,3.48,2.58,6.89,3.83,10.22
	c2.51,6.67,4.89,13.01,7.09,18.89c4.43,11.79,8.22,21.82,11.02,29.2c-0.15,0.2-0.3,0.4-0.46,0.6c-11.09,8.9-20.14,20.54-27.94,32.55
	c-10.89,16.77-19.98,34.77-32.46,50.39c-2.87,3.59-6.61,7.35-11.19,7.04c-5.66-0.38-8.83-6.52-10.97-11.77
	c-7.93-19.45-16.96-38.44-27.01-56.89c-18.26-33.51-39.88-65.19-64.42-94.42c-9.42-11.22-19.27-22.07-29.53-32.53
	c-3.37-9.55-7.26-20.02-12.39-30.87c-0.65-1.41-1.3-2.84-1.97-4.28c-0.65-1.44-1.42-2.85-2.14-4.29c-1.47-2.87-2.93-5.79-4.48-8.73
	c-1.63-2.89-3.28-5.82-4.95-8.8c-0.42-0.74-0.84-1.48-1.26-2.23c-0.45-0.73-0.9-1.46-1.36-2.2c-0.91-1.47-1.82-2.95-2.75-4.43
	c-7.43-11.83-15.92-23.77-25.62-35.24c-4.73-5.61-9.3-10.74-13.46-15.93c-4.12-5.16-7.92-10.31-10.57-15.35
	c-0.63-1.25-1.34-2.52-1.81-3.75c-0.25-0.62-0.57-1.24-0.79-1.85l-0.62-1.82c-0.1-0.3-0.24-0.61-0.31-0.91l-0.21-0.89l-0.46-1.78
	c-0.07-0.58-0.15-1.16-0.24-1.74l-0.15-0.88l-0.02-0.86c-0.02-0.57-0.04-1.15-0.08-1.74c0.01-0.58,0.1-1.15,0.13-1.73
	c-0.01-1.18,0.32-2.3,0.49-3.47c0.61-2.29,1.44-4.63,2.75-6.99c2.62-4.73,6.76-9.52,11.7-14.16c1.53-1.46,3.15-2.92,4.8-4.38
	c1.31-0.27,2.69-0.53,4.18-0.73c1.64-0.32,3.4-0.42,5.23-0.61c1.83-0.24,3.77-0.2,5.77-0.3c1-0.07,2.02,0,3.06,0.02
	c1.04,0.03,2.09,0.06,3.17,0.08c1.07,0.1,2.15,0.2,3.25,0.3c1.1,0.09,2.22,0.18,3.33,0.39c1.12,0.17,2.25,0.35,3.4,0.52
	c1.14,0.19,2.28,0.49,3.44,0.73c2.34,0.43,4.61,1.23,6.98,1.87c4.62,1.59,9.32,3.49,13.77,6.01c4.53,2.49,9.17,5.7,14.38,8.53
	c2.61,1.41,5.37,2.73,8.34,3.76c2.96,1.02,6.15,1.73,9.41,1.83c3.25,0.13,6.54-0.39,9.48-1.44c2.96-1.04,5.59-2.52,7.91-4.16
	c4.63-3.32,8.16-7.17,11.36-10.73c3.14-3.57,6.1-6.93,8.83-10.04c10.88-12.45,17.97-20.81,17.97-20.81s-8.33,7.13-20.73,18.07
	c-3.09,2.74-6.44,5.71-9.99,8.86c-3.51,3.1-7.23,6.26-11.33,8.58c-4.11,2.3-8.49,3.55-12.88,2.91c-4.39-0.56-8.8-2.76-13.17-5.6
	c-4.4-2.83-8.74-6.31-13.69-9.48c-4.98-3.24-10.28-5.76-15.57-7.86c-2.7-0.89-5.32-1.92-8-2.55c-1.33-0.34-2.64-0.73-3.96-1.01
	c-1.32-0.26-2.63-0.51-3.93-0.76c-1.29-0.28-2.58-0.43-3.86-0.58c-1.28-0.15-2.54-0.31-3.77-0.46c-1.25-0.07-2.48-0.14-3.68-0.21
	c-0.51-0.03-1.01-0.06-1.5-0.08c0.91-0.84,1.81-1.69,2.7-2.55c1.36-1.36,2.74-2.69,4.05-4.07c1.3-1.4,2.59-2.79,3.87-4.17
	c5.04-5.63,9.59-11.53,13.68-17.53c8.18-12.01,14.49-24.5,19.09-36.74c2.33-6.11,4.25-12.16,5.77-18.08
	c1.55-5.91,2.76-11.67,3.61-17.24c1.8-11.12,2.27-21.41,2.09-30.45c-0.18-9.05-1.08-16.86-2.14-23.2c-0.25-1.59-0.51-3.09-0.81-4.49
	c-0.28-1.4-0.55-2.71-0.8-3.93c-0.59-2.42-1.06-4.48-1.51-6.13c-0.93-3.29-1.43-5.04-1.43-5.04s0.29,1.8,0.83,5.17
	c0.25,1.69,0.48,3.78,0.78,6.23c0.11,1.23,0.22,2.55,0.34,3.96c0.14,1.41,0.22,2.91,0.28,4.49c0.65,12.62-0.08,30.92-5.87,51.63
	c-1.41,5.17-3.18,10.47-5.27,15.83c-2.06,5.37-4.5,10.8-7.3,16.2c-5.56,10.83-12.65,21.55-21.21,31.47
	c-4.28,4.96-8.91,9.72-13.91,14.15c-1.27,1.08-2.54,2.17-3.81,3.26c-1.28,1.08-2.63,2.09-3.93,3.14c-2.68,2.05-5.37,3.99-8.28,5.97
	c-5.83,3.99-12.12,7.96-18.51,12.78c-6.35,4.78-12.94,10.45-18.53,18.1c-2.78,3.83-5.16,8.23-7,12.94
	c-1.01,3.07-2.15,6.14-2.36,9.44c-0.1,0.06-0.09,0.05-0.19,0.11c-2.97-1.66-6-3.4-8.71-5.39c-0.77-0.54-1.42-1.12-2.17-1.69
	c-0.72-0.58-1.29-1.2-1.99-1.81c-0.65-0.62-1.15-1.3-1.78-1.95c-0.55-0.69-1.1-1.39-1.58-2.18c-1-1.56-1.88-3.34-2.62-5.35
	c-0.73-2.01-1.3-4.24-1.74-6.62c-0.87-4.78-1.13-10.15-1.06-15.81c0.07-5.73,0.39-11.83,0.29-18.14c-0.1-6.3-0.67-12.86-2.45-19.17
	c-1.75-6.35-4.77-12.05-8.26-16.88c-7.03-9.72-15.88-16.19-23.56-20.83c-7.75-4.63-14.51-7.62-19.2-9.76
	c-4.71-2.07-7.4-3.26-7.4-3.26s2.49,1.55,6.85,4.28c4.32,2.77,10.57,6.7,17.33,12.18c3.37,2.74,6.85,5.9,10.09,9.55
	c3.25,3.64,6.28,7.78,8.67,12.35c2.4,4.56,4.13,9.53,4.78,14.65c0.68,5.16,0.42,10.6-0.29,16.21c-0.7,5.62-1.82,11.41-2.76,17.45
	c-0.93,6.12-1.58,12.45-1.34,18.97c0.12,3.26,0.47,6.56,1.14,9.85c0.69,3.29,1.71,6.56,3.09,9.68c0.67,1.57,1.49,3.08,2.33,4.53
	c0.91,1.39,1.78,2.84,2.75,4.11c0.99,1.22,1.95,2.52,2.96,3.62c1.02,1.07,2.02,2.19,3.03,3.15c4.05,3.93,7.91,6.78,11.16,9.21
	c3.28,2.43,6.01,4.38,8.12,6.02c4.24,3.27,6.24,5.24,6.74,5.71c0.57,0.52,1.2,0.92,1.9,1.24c0,0,0.01,0.01,0.01,0.01
	c0.36,0.98,0.77,1.88,1.17,2.81l1.34,3.01c0.95,1.89,1.88,3.86,2.88,5.67c1,1.8,1.99,3.66,3.03,5.35l1.55,2.59l1.57,2.49
	c4.17,6.61,8.47,12.67,12.22,18.31c7.34,10.96,13.53,22.17,18.81,33.1c0.53,1.11,1.05,2.21,1.57,3.31
	c-32.2-29.87-82.41-52.88-105.7-70.79c-28.66-22.05-70.55-89.29-84.88-106.93c-14.33-17.64-58.43-110.24-58.43-110.24l-26.39-75.59
	c-1.5-9.67-3.13-20.06-4.85-31.06c-2.3-14.7-4.78-30.5-7.39-47.11c-0.64-4.09-1.29-8.23-1.94-12.42c-0.6-3.97-1.1-7.83-1.41-11.55
	c-0.65-7.42-0.46-14.33,1.05-19.4c0.74-2.56,1.72-4.66,3.06-6.53c1.32-1.85,2.98-3.45,5.24-4.87c4.47-2.86,11.4-4.55,18.92-4.74
	c1.88-0.05,3.8-0.03,5.74,0.1c0.97,0.07,1.95,0.11,2.92,0.23c0.97,0.1,1.95,0.2,3.01,0.36c4.16,0.57,8.5,1.42,13.02,2.39
	c9.04,1.92,18.78,4.42,29.45,5.7c5.31,0.66,10.89,0.91,16.46,0.69c5.56-0.25,11.06-1.07,16.4-2.3c1.39-0.31,2.76-0.67,4.12-1.06
	c0.37,0.05,0.74,0.1,1.12,0.16c2.02,0.23,4.25,0.69,6.72,1.15c4.89,1.07,10.6,2.68,16.75,5.26c1.56,0.59,3.07,1.4,4.67,2.11
	c1.58,0.77,3.15,1.64,4.78,2.51c3.16,1.88,6.45,3.89,9.62,6.36c6.43,4.79,12.65,10.97,18.2,18.27c2.75,3.67,5.28,7.65,7.6,11.85
	c2.29,4.23,4.26,8.72,5.95,13.41c1.73,4.69,2.88,9.56,3.87,14.66c0.94,5.18,1.61,11.04,3.42,17.23c0.92,3.09,2.1,6.22,3.92,9.35
	c1.8,3.04,4.04,5.82,6.82,8.2c1.37,1.2,2.93,2.25,4.58,3.19c1.68,0.91,3.5,1.66,5.43,2.17c1.95,0.46,3.97,0.75,6.01,0.65
	c2.01-0.09,3.99-0.42,5.84-1.05c3.75-1.2,6.79-3.31,9.33-5.52c2.52-2.24,4.58-4.65,6.44-7.06c0.91-1.2,1.8-2.41,2.63-3.6l2.43-3.48
	c1.61-2.31,3.21-4.6,4.81-6.89c6.37-9.15,12.63-18.15,18.68-26.84c12.05-17.4,23.27-33.59,32.87-47.45
	c19.11-27.74,31.78-46.15,31.78-46.15s-13.98,17.43-35.05,43.72c-10.51,13.18-22.79,28.59-35.99,45.13
	c-6.59,8.3-13.4,16.88-20.33,25.61c-1.73,2.19-3.47,4.38-5.22,6.58l-2.61,3.29c-0.85,1.07-1.7,2.09-2.56,3.09
	c-1.72,1.96-3.49,3.77-5.31,5.19c-1.82,1.4-3.66,2.43-5.39,2.83c-0.86,0.25-1.72,0.3-2.55,0.29c-0.81,0-1.62-0.21-2.43-0.43
	c-0.81-0.28-1.61-0.67-2.41-1.16c-0.78-0.54-1.57-1.1-2.29-1.83c-1.46-1.4-2.74-3.18-3.7-5.07c-0.93-1.82-1.67-4.05-2.22-6.4
	c-1.11-4.71-1.49-10.04-2.19-15.8c-0.79-5.83-1.88-11.73-3.6-17.29c-1.68-5.58-3.74-10.97-6.17-16.07c-2.47-5.08-5.22-9.9-8.26-14.4
	c-6.13-8.95-13.19-16.68-20.7-22.84c-3.7-3.15-7.59-5.8-11.35-8.25c-1.93-1.15-3.8-2.29-5.68-3.31c-1.91-0.96-3.72-2.01-5.58-2.82
	c-1.48-0.7-2.93-1.33-4.36-1.93c7.61-5.15,14.37-11.14,20.32-17.59c6.72-7.3,12.44-15.18,17.19-23.36c1.23-2.02,2.29-4.13,3.41-6.18
	c1.02-2.11,2.11-4.16,3.03-6.28c1.95-4.19,3.58-8.47,5.06-12.73c1.46-4.27,2.66-8.57,3.67-12.85c0.26-1.07,0.46-2.15,0.69-3.22
	c0.22-1.07,0.46-2.14,0.6-3.19c0.33-2.11,0.66-4.21,0.99-6.3c0.38-2.07,0.51-4.16,0.74-6.22c0.19-2.06,0.47-4.1,0.57-6.13
	c0.17-4.06,0.5-8.05,0.42-11.97c0-1.96,0-3.9,0-5.82c-0.08-1.92-0.16-3.81-0.24-5.69c-0.09-3.76-0.5-7.42-0.77-11.01
	c-1.33-14.33-3.77-27.19-6.23-38.45c-2.5-11.26-5.08-20.93-7.24-28.88c-2.18-7.94-3.98-14.13-5.2-18.36
	c-1.23-4.22-1.88-6.47-1.88-6.47s0.45,2.3,1.3,6.61c0.84,4.32,2.07,10.65,3.54,18.73c1.43,8.08,3.13,17.91,4.6,29.22
	c1.43,11.31,2.68,24.11,2.72,38.03c-0.05,3.47,0.03,7.02-0.21,10.62c-0.08,1.8-0.17,3.61-0.26,5.44c-0.16,1.82-0.33,3.66-0.5,5.51
	c-0.25,3.71-0.91,7.43-1.4,11.21c-0.26,1.89-0.7,3.77-1.04,5.67c-0.38,1.89-0.67,3.82-1.2,5.7c-0.47,1.89-0.95,3.8-1.43,5.72
	c-0.22,0.97-0.52,1.9-0.8,2.83c-0.29,0.94-0.55,1.88-0.87,2.81c-1.25,3.74-2.66,7.47-4.29,11.15c-1.66,3.67-3.43,7.33-5.49,10.88
	c-0.97,1.8-2.1,3.53-3.16,5.3c-1.16,1.71-2.24,3.48-3.48,5.15c-9.57,13.53-22.28,25.56-37.09,33.12c-3.68,1.91-7.5,3.49-11.38,4.75
	c-3.88,1.25-7.82,2.24-11.81,2.76c-3.98,0.54-7.96,0.77-11.93,0.59c-3.95-0.22-7.91-0.73-12.02-1.62
	c-8.21-1.72-16.83-4.69-26.22-7.6c-4.7-1.45-9.61-2.88-14.79-4.08c-1.27-0.31-2.63-0.58-4-0.85c-1.36-0.29-2.74-0.49-4.12-0.71
	c-2.76-0.42-5.57-0.72-8.41-0.91c-5.68-0.36-11.52-0.22-17.52,0.67c-5.98,0.9-12.15,2.57-18.15,5.48
	c-5.98,2.87-11.74,7.05-16.38,12.2c-4.66,5.09-8.2,11.08-10.57,17.03c-2.39,5.96-3.76,11.88-4.54,17.45
	c-0.78,5.58-1.03,10.88-1.06,15.93c-0.02,5.04,0.19,9.84,0.48,14.41c0.3,4.35,0.6,8.65,0.89,12.91c1.1,15.69,2.15,30.65,3.13,44.67
	c-10.5-15.44-21.51-30.38-33.16-44.61c-15.34-18.83-31.86-36.34-49.45-52c-17.53-15.71-36.34-29.33-55.69-40.68
	c-9.7-5.65-19.61-10.61-29.49-15.09c-9.91-4.43-19.89-8.17-29.77-11.53c-19.85-6.45-39.39-10.97-58.24-13.82
	c-9.41-1.53-18.67-2.5-27.69-3.38c-9.03-0.75-17.85-1.34-26.43-1.61c-17.17-0.6-33.39-0.38-48.57,0.28
	c-30.36,1.35-56.53,4.25-78,6.88c-21.46,2.69-38.23,5.19-49.66,6.88c-11.42,1.72-17.5,2.64-17.5,2.64s6.14-0.4,17.66-1.14
	c11.52-0.71,28.43-1.77,49.97-2.62c21.52-0.8,47.7-1.45,77.54-0.23c14.92,0.63,30.74,1.76,47.27,3.76
	c8.27,0.97,16.69,2.26,25.27,3.71c8.55,1.58,17.28,3.26,26.05,5.46c17.59,4.2,35.46,10,53.18,17.47
	c8.81,3.86,17.62,8.04,26.24,12.82c8.6,4.82,17.12,10.03,25.39,15.84c16.51,11.69,32.32,25.29,46.94,40.82
	c14.67,15.47,28.33,32.63,40.96,51.12c25.36,36.94,46.71,78.84,66.53,122.87c2.47,5.52,4.93,11.06,7.37,16.63
	c2.44,5.62,4.89,11.26,7.34,16.9c1.04,2.41,2.09,4.85,3.14,7.26c-6.31-1.76-14.93-3.99-25.65-6.23
	c-20.77-4.35-49.38-8.89-83.17-9.47c-4.22-0.01-8.52-0.11-12.89-0.03c-4.36,0.11-8.84,0.14-13.28,0.34
	c-8.86,0.35-17.6,0.82-26.04,0.31c-8.44-0.51-16.49-2.03-23.59-5.62c-7.17-3.56-13.79-9.29-19.88-16.3
	c-6.1-7.03-11.71-15.19-17.67-23.66c-6-8.53-12.35-17.03-19.07-25.27c-13.41-16.51-28.14-32.26-43.91-46.77
	c-3.92-3.64-7.95-7.18-11.99-10.67c-4.05-3.49-8.27-6.96-12.78-10.16c-4.51-3.21-9.36-6.14-14.62-8.45
	c-2.65-1.12-5.37-2.11-8.2-2.84c-2.83-0.7-5.73-1.26-8.64-1.44c-2.91-0.21-5.79-0.16-8.61,0.08c-2.81,0.27-5.56,0.72-8.24,1.29
	c-5.35,1.16-10.4,2.81-15.25,4.55c-4.86,1.75-9.51,3.54-14.19,5.29c-4.67,1.75-9.3,3.49-13.9,5.22
	c-18.37,6.9-36.11,13.56-52.91,19.87c-8.4,3.15-16.56,6.22-24.46,9.18c-7.89,2.98-15.52,5.78-22.83,8.64
	c-14.61,5.71-27.74,11.75-38.66,18.4c-10.94,6.59-19.54,13.85-25.58,20.71c-6.07,6.86-9.56,13.21-11.6,17.61
	c-0.99,2.22-1.7,3.95-2.1,5.14c-0.42,1.18-0.64,1.79-0.64,1.79s0.24-0.6,0.72-1.76c0.45-1.17,1.22-2.86,2.29-5.03
	c2.2-4.3,5.93-10.44,12.18-16.96c6.22-6.52,14.95-13.31,25.97-19.35c10.99-6.1,24.17-11.53,38.87-16.6c7.34-2.54,15.1-5.03,23.1-7.7
	c8.01-2.64,16.29-5.38,24.81-8.19c17.04-5.63,35.03-11.57,53.67-17.72c4.66-1.54,9.36-3.09,14.1-4.66
	c4.73-1.55,9.54-3.18,14.26-4.67c4.73-1.49,9.45-2.8,14.15-3.62c2.35-0.4,4.69-0.69,7.01-0.81c2.31-0.1,4.6-0.04,6.85,0.21
	c2.24,0.22,4.43,0.76,6.62,1.38c2.18,0.66,4.32,1.54,6.43,2.53c4.21,2.06,8.26,4.7,12.18,7.74c3.92,3.03,7.71,6.39,11.49,9.92
	c3.79,3.54,7.55,7.12,11.21,10.81c14.72,14.67,28.34,30.46,40.63,46.87c6.16,8.21,11.92,16.58,17.4,25.07
	c5.53,8.55,11.07,17.43,17.79,25.82c3.37,4.19,7.06,8.25,11.18,11.97c4.12,3.72,8.7,7.09,13.69,9.84
	c4.98,2.78,10.31,4.79,15.55,6.19c5.26,1.41,10.46,2.23,15.48,2.73c10.07,0.99,19.47,0.8,28.18,0.81c4.35-0.02,8.52,0.12,12.68,0.17
	c4.15,0.09,8.22,0.34,12.22,0.5c32,1.78,58.84,7.09,78.24,11.88c19.44,4.78,31.49,9.25,34.57,10.09c3.69,1.2,7.28,2.27,10.77,3.23
	c9.29,21.32,18.9,42.86,29.33,64.38c11.28,23.25,23.51,46.49,37.37,69.19c7.47,12.23,15.44,24.3,23.94,36.09
	c-1.44-0.25-2.86-0.51-4.32-0.75c-1.36-0.23-2.72-0.47-4.1-0.7c-1.37-0.22-2.76-0.39-4.15-0.6c-2.78-0.39-5.58-0.78-8.41-1.17
	c-2.82-0.43-5.69-0.7-8.57-1.02c-2.88-0.31-5.79-0.62-8.71-0.93c-2.93-0.28-5.89-0.46-8.87-0.7c-2.98-0.2-5.97-0.5-8.99-0.62
	c-3.02-0.13-6.06-0.27-9.13-0.4c-1.53-0.06-3.06-0.15-4.61-0.19c-1.54-0.02-3.09-0.04-4.64-0.06c-16.79-0.28-34.14,0.29-51.78,1.91
	c-0.28-0.32-0.57-0.64-0.87-0.95c-1.43-1.52-2.98-3.02-4.63-4.49c-0.83-0.72-2.89-2.59-6.27-5.11c-1.67-1.27-3.63-2.77-5.87-4.48
	c-2.28-1.64-4.89-3.39-7.72-5.34c-2.8-2.01-6.06-3.89-9.47-6.02c-3.39-2.19-7.22-4.17-11.21-6.38c-1-0.54-2-1.12-3.05-1.65
	c-1.05-0.51-2.12-1.04-3.2-1.56c-2.16-1.05-4.37-2.13-6.63-3.23c-2.29-1.04-4.67-2.03-7.08-3.07c-1.21-0.52-2.42-1.04-3.66-1.57
	c-1.23-0.54-2.51-0.96-3.79-1.45c-2.55-0.95-5.16-1.92-7.8-2.91c-2.69-0.86-5.42-1.74-8.2-2.63c-1.39-0.43-2.77-0.92-4.2-1.29
	c-1.43-0.38-2.87-0.76-4.31-1.15c-1.45-0.38-2.9-0.77-4.37-1.16c-0.73-0.19-1.47-0.38-2.21-0.57c-0.75-0.16-1.5-0.32-2.25-0.48
	c-3-0.64-6.04-1.28-9.11-1.93c-3.1-0.5-6.23-1.01-9.39-1.52c-0.79-0.13-1.58-0.25-2.37-0.38l-2.4-0.27
	c-1.6-0.18-3.22-0.35-4.83-0.53c-1.62-0.17-3.24-0.37-4.87-0.51c-1.64-0.1-3.28-0.19-4.93-0.29c-6.61-0.48-13.25-0.53-19.87-0.5
	c-6.52,0.11-13.11,0.22-19.74,0.33c-13.07,0.18-26.09,0.11-38.51-2.03c-1.54-0.3-3.11-0.51-4.63-0.88l-4.55-1.09
	c-2.96-0.9-5.96-1.73-8.78-2.94c-5.7-2.28-11.15-5.09-16.03-8.76c-9.82-7.25-17.88-16.78-24.1-27.05
	c-6.31-10.25-11.02-21.11-14.82-31.64c-3.75-10.56-6.65-20.86-9.33-30.37c-2.67-9.51-5.13-18.26-7.59-25.92
	c-2.45-7.66-4.83-14.26-7.05-19.58c-2.21-5.32-4.16-9.4-5.56-12.14c-1.43-2.72-2.19-4.17-2.19-4.17s0.67,1.5,1.92,4.3
	c1.21,2.82,2.89,7,4.75,12.42c1.87,5.42,3.8,12.1,5.74,19.85c1.95,7.75,3.83,16.58,5.89,26.25c2.08,9.67,4.32,20.19,7.47,31.27
	c3.21,11.04,7.34,22.61,13.36,33.94c0.78,1.4,1.5,2.85,2.33,4.24c0.84,1.39,1.68,2.79,2.52,4.19c0.92,1.37,1.83,2.74,2.76,4.12
	c0.9,1.39,1.98,2.68,2.97,4.04c4.1,5.32,8.8,10.37,14.17,14.86c5.33,4.55,11.48,8.28,17.91,11.32c3.2,1.6,6.55,2.78,9.9,4.02
	l5.09,1.57c1.7,0.52,3.42,0.87,5.13,1.32c13.77,3.26,27.64,4.15,40.97,4.82c13.33,0.64,26.2,0.92,38.21,2.53
	c24.17,2.9,46.14,10.01,64.13,18.23c1.12,0.52,2.27,0.96,3.35,1.52c1.08,0.55,2.16,1.09,3.22,1.62c2.12,1.08,4.22,2.09,6.23,3.16
	c1.98,1.12,3.92,2.21,5.81,3.28c0.94,0.53,1.88,1.06,2.8,1.58c0.91,0.53,1.78,1.11,2.65,1.65c3.46,2.21,6.81,4.18,9.72,6.33
	c2.95,2.1,5.77,3.92,8.17,5.88c1.82,1.42,3.54,2.72,5.11,3.94c-10,1.69-20.04,3.81-30.08,6.15c-3.31,0.84-6.63,1.67-9.96,2.52
	l-2.49,0.63l-2.48,0.71l-4.96,1.43c-6.64,1.82-13.2,4.06-19.79,6.2c-3.29,1.09-6.53,2.35-9.8,3.52l-4.9,1.79
	c-1.85,0.66-3.65,1.47-5.48,2.17c-2.46,0.98-4.91,1.96-7.37,2.94c-3.74,1.63-7.48,3.27-11.22,4.91
	c-12.6,5.67-24.83,11.68-36.93,17.52c-24.15,11.67-47.95,22.67-72.31,28.92c-12.16,3.15-24.37,5.03-36.61,5.48
	c-12.23,0.48-24.44-0.38-36.33-2.29c-23.8-3.83-46.29-11.73-66.42-21.61c-10.08-4.94-19.67-10.27-28.61-15.97
	c-8.95-5.71-17.39-11.61-25.3-17.56c-15.75-11.98-29.49-23.96-41.29-34.97c-11.82-11.01-21.8-20.97-29.96-29.21
	c-8.16-8.25-14.48-14.82-18.8-19.28c-4.31-4.47-6.61-6.85-6.61-6.85s2.14,2.52,6.16,7.26c4.03,4.73,9.92,11.68,17.55,20.45
	c7.63,8.76,16.98,19.36,28.16,31.17c11.16,11.82,24.24,24.78,39.51,37.99c7.66,6.57,15.91,13.14,24.75,19.6
	c8.86,6.46,18.43,12.61,28.61,18.42c20.34,11.62,43.5,21.51,69,27.29c12.74,2.88,26.05,4.68,39.69,5.01
	c6.81,0.19,13.72-0.06,20.62-0.64c6.9-0.62,13.79-1.57,20.61-2.9c13.66-2.61,27.06-6.49,40.12-10.99
	c13.07-4.49,25.82-9.6,38.38-14.72c5.44-2.22,10.85-4.44,16.23-6.63c-6.15,12.74-14.75,30.64-24.94,51.88
	c-2.4,5.01-4.9,10.21-7.47,15.58c-2.58,5.34-5.22,10.96-7.9,16.38c-5.36,10.82-11.44,21.25-20.22,28.27
	c-4.41,3.47-9.62,6.21-15.41,8.21c-5.82,1.95-12.17,3.16-18.77,3.88c-6.61,0.68-13.47,0.87-20.44,0.84
	c-3.49-0.01-7.03-0.1-10.57-0.19c-3.54-0.1-7.09-0.15-10.63-0.28c-14.17-0.5-28.3-1.31-42.17-2.37c-13.86-1.16-27.48-2.43-40.6-4.1
	c-26.25-3.16-50.55-7.33-71.22-11.48c-20.67-4.17-37.75-8.24-49.63-11.34c-5.96-1.47-10.59-2.82-13.77-3.65
	c-3.17-0.86-4.86-1.31-4.86-1.31s1.66,0.56,4.77,1.6c3.12,1.02,7.67,2.64,13.53,4.47c11.69,3.81,28.52,8.91,49,14.32
	c20.48,5.4,44.63,11.04,70.89,15.8c13.11,2.47,26.76,4.57,40.7,6.56c13.94,1.91,28.18,3.57,42.5,4.92
	c3.58,0.35,7.17,0.61,10.75,0.92c3.58,0.3,7.16,0.6,10.8,0.83c7.27,0.45,14.65,0.7,22.13,0.37c7.48-0.37,15.08-1.31,22.58-3.34
	c7.48-2.08,14.85-5.33,21.38-9.88c6.5-4.61,11.87-10.24,16.26-16c4.42-5.77,7.99-11.65,11.22-17.29c3.22-5.67,6.1-10.98,8.99-16.19
	c2.87-5.21,5.66-10.26,8.35-15.13c21.5-38.97,36.59-66.43,38.63-70.4c0.59-1.14,1.14-2.28,1.65-3.41c1.07-0.93,2.48-2.16,3.55-3.09
	c1.34-0.42,2.66-0.89,3.99-1.31c6.07-1.16,12.34-2.93,17.19-3.59c10.33-1.41,20.67-2.7,31.03-3.82
	c40.58-4.39,81.62-6.27,122.32-2.36c23.05,2.21,45.93,6.3,68.18,12.75c8.98,2.6,17.83,5.58,26.67,8.64
	c40.87,29.59,89.28,52.22,126.96,87.02c51.91,47.94,94.37,108.49,110.18,177.36c0.18,0.76,0.33,1.53,0.5,2.3
	c-10.07-3.48-21.42-7.39-33.8-11.64c-22.51-7.72-48.39-16.59-75.91-26.02c-13.68-4.68-27.76-9.5-42.03-14.39
	c-6.74-2.36-12.86-4.8-17.81-7.8c-2.47-1.49-4.63-3.11-6.46-4.88c-1.83-1.76-3.34-3.68-4.76-6.1c-2.84-4.79-4.86-11.31-6.83-18.51
	c-1-3.61-2.01-7.41-3.22-11.34c-1.29-3.92-2.62-7.87-4.25-11.62c-3.16-7.55-6.98-14.66-11.22-21.27c-4.27-6.6-9.01-12.67-13.95-18.3
	c-4.95-5.63-10.15-10.79-15.5-15.47c-5.34-4.69-10.74-9.03-16.23-12.88c-5.47-3.88-10.9-7.42-16.29-10.56
	c-2.66-1.63-5.36-3.07-7.96-4.55c-2.65-1.4-5.21-2.82-7.79-4.09c-10.23-5.2-19.79-9.41-28.31-12.93c-8.53-3.52-16-6.38-22.17-8.7
	c-6.17-2.28-11.02-4.08-14.32-5.3c-3.31-1.21-5.07-1.85-5.07-1.85s1.68,0.84,4.83,2.41c3.14,1.58,7.75,3.9,13.63,6.86
	c5.86,2.98,12.95,6.65,20.95,11.06c8,4.4,16.91,9.59,26.24,15.72c2.35,1.51,4.67,3.16,7.07,4.79c2.34,1.71,4.78,3.37,7.14,5.21
	c4.8,3.57,9.56,7.5,14.27,11.69c4.72,4.17,9.28,8.76,13.7,13.61c4.43,4.84,8.62,10.05,12.47,15.57c3.85,5.52,7.42,11.32,10.46,17.41
	c3.02,6.1,5.55,12.46,7.46,18.99c1.01,3.26,1.7,6.56,2.42,9.91c0.65,3.38,1.19,6.99,1.8,10.8c0.61,3.81,1.28,7.81,2.26,12.01
	c0.97,4.19,2.26,8.61,4.2,13.08c1.91,4.45,4.59,8.99,7.82,12.96c3.21,3.97,6.87,7.38,10.62,10.29c7.53,5.82,15.33,9.78,22.51,13.25
	c13.77,6.46,27.35,12.84,40.55,19.04c0.19,0.09,0.37,0.17,0.56,0.26c-7.93,5.46-18.01,12.42-29.59,20.43
	c-3.31,2.29-6.75,4.67-10.3,7.12c-3.51,2.42-7.08,4.84-10.74,7.15c-7.31,4.64-15.02,8.83-23.26,11.46
	c-1.04,0.29-2.05,0.64-3.13,0.88c-1.07,0.26-2.15,0.52-3.24,0.78c-2.25,0.43-4.5,0.87-6.89,1.19c-4.74,0.7-9.71,1.2-14.89,1.76
	c-5.18,0.57-10.54,1.22-16.01,2.32c-5.46,1.1-11.11,2.66-16.49,5.35c-2.67,1.37-5.3,2.9-7.69,4.81c-1.26,0.86-2.34,1.93-3.44,2.98
	l-1.64,1.57c-0.51,0.56-1,1.15-1.49,1.72c-3.9,4.66-6.51,9.99-8.32,15.23c-1.8,5.26-2.87,10.48-3.68,15.54
	c-0.81,5.08-1.35,9.95-1.97,14.73c-2.4,19.14-4.63,36.95-6.54,52.2c-3.81,30.46-6.34,50.66-6.34,50.66s4.18-19.93,10.48-49.97
	c3.15-15.04,6.83-32.61,10.79-51.49c2.02-9.46,3.74-19.23,7.46-27.71c1.86-4.22,4.22-8.04,7.22-11.06c3.06-2.96,6.62-5.35,10.7-6.94
	c4.05-1.64,8.6-2.54,13.34-3.09c4.74-0.55,9.69-0.77,14.74-0.91c5.06-0.14,10.26-0.24,15.56-0.58c2.64-0.14,5.35-0.44,8.04-0.74
	c1.37-0.21,2.73-0.42,4.09-0.63c1.36-0.2,2.73-0.54,4.08-0.81c10.8-2.51,20.39-6.86,28.85-11.32c4.24-2.23,8.23-4.51,12.02-6.7
	c3.75-2.18,7.38-4.29,10.88-6.33c21.06-12.26,37.41-21.81,45.36-26.51c15.73,7.36,30.59,14.32,44.17,20.67
	c23.84,11.14,43.78,20.42,57.62,26.81c1.04,39.29-4.65,78.99-13.56,117.4c-13.46,58-34.08,114.07-50.11,171.41
	c-26.76,95.73-40.65,195.05-41.23,294.45c-2.45-0.96-4.91-1.9-7.4-2.87c-32.58-12.28-70.28-22.3-111.93-26.58
	c-2.6-0.26-5.21-0.56-7.84-0.78c-2.63-0.18-5.28-0.37-7.94-0.55c-5.3-0.43-10.68-0.58-16.1-0.75c-5.41-0.25-10.89-0.12-16.39-0.13
	c-2.78-0.02-5.47,0.09-8.17,0.21c-2.71,0.11-5.42,0.22-8.15,0.34c-18.75,0.94-37.23,2.97-55.32,5.53
	c-4.77-5.83-12.02-14.6-21.36-25.83c-7.65-9.17-16.68-20.01-26.86-32.22c-5.09-6.09-10.47-12.52-16.11-19.27
	c-5.61-6.72-11.34-13.53-16.97-20.58c-1.91-2.38-3.81-4.8-5.71-7.24c0.92-4.09,2.14-9.68,3.63-16.56c1.42-6.61,3.1-14.44,5-23.28
	c0.89-4.17,1.78-8.27,2.84-11.93c0.52-1.85,1.09-3.56,1.68-5.17c0.61-1.52,1.21-3.05,1.86-4.2c0.64-1.18,1.25-2.26,1.88-3.02
	c0.14-0.24,0.31-0.39,0.47-0.58c0.16-0.18,0.29-0.41,0.47-0.54c0.17-0.15,0.32-0.33,0.48-0.51c0.19-0.13,0.38-0.28,0.56-0.44
	l0.27-0.25l0.32-0.19c0.22-0.13,0.42-0.29,0.64-0.44c0.53-0.2,0.96-0.56,1.61-0.74c1.15-0.52,2.71-0.85,4.48-1.11
	c1.77-0.27,3.91-0.27,6.16-0.23c2.31,0.12,4.78,0.36,7.41,0.78c2.65,0.43,5.38,0.94,8.29,1.62c1.44,0.32,2.9,0.69,4.44,1.06
	c1.58,0.4,3.16,0.8,4.75,1.21c12.8,3.24,26.66,6.91,41.64,8.94c3.74,0.5,7.54,0.91,11.4,1.15c3.85,0.26,7.82,0.36,11.75,0.25
	c7.88-0.18,15.84-1.15,23.69-3.05c3.92-0.97,7.8-2.2,11.61-3.66c3.79-1.53,7.51-3.26,11.07-5.33c3.53-2.1,6.99-4.4,10.09-7.03
	c3.11-2.61,6-5.38,8.58-8.3c5.19-5.83,9.35-12.05,12.89-18.25c3.53-6.21,6.49-12.42,9.18-18.46c10.72-24.08,18.66-47.17,24.38-67.14
	c5.7-19.99,9.18-36.85,11.34-48.65c1.05-5.91,1.83-10.55,2.29-13.72c0.48-3.17,0.74-4.85,0.74-4.85s-0.46,1.64-1.33,4.73
	c-0.85,3.09-2.19,7.59-3.95,13.3c-3.57,11.4-9.06,27.58-17.02,46.41c-7.98,18.81-18.46,40.27-31.56,62.09
	c-6.5,10.81-13.66,21.42-22.5,29.14c-2.19,1.94-4.51,3.63-6.87,5.16c-2.35,1.55-4.85,2.75-7.41,3.88c-2.58,1.1-5.29,1.95-8.05,2.7
	c-2.79,0.67-5.63,1.21-8.54,1.55c-5.82,0.66-11.81,0.67-17.8,0.06c-3-0.29-5.95-0.72-8.96-1.3c-3.01-0.55-6.02-1.26-9.04-2.04
	c-12.06-3.14-24.11-7.86-36.44-12.62c-1.55-0.6-3.1-1.19-4.64-1.79c-1.59-0.6-3.24-1.23-4.91-1.82c-3.31-1.21-6.81-2.33-10.37-3.36
	c-3.59-1.02-7.34-1.9-11.23-2.59c-3.96-0.62-8-1.14-12.35-1.15c-4.32-0.02-8.81,0.26-13.43,1.27c-2.28,0.4-4.6,1.17-6.87,1.86
	c-1.13,0.41-2.26,0.87-3.38,1.33l-1.67,0.7l-1.62,0.82c-1.08,0.56-2.14,1.13-3.2,1.71c-1.02,0.64-2.03,1.29-3.03,1.96
	c-1.02,0.65-1.93,1.39-2.86,2.11c-0.93,0.73-1.86,1.45-2.68,2.23c-3.5,3.05-6.28,6.37-8.73,9.62c-2.47,3.28-4.32,6.49-6.05,9.62
	c-1.64,3.1-3.05,6.1-4.24,8.93c-0.95,2.25-1.79,4.4-2.56,6.46c-0.01,0,0,0-0.01,0c-2.72-8.74-4.17-17.61-4.34-26.74
	c-0.07-8.81,1.25-18.04,3.98-27.64c2.7-9.59,6.71-19.5,11.58-29.59c9.74-20.22,22.82-40.92,34.82-63.46
	c1.5-2.83,2.98-5.67,4.43-8.57c1.46-2.88,2.81-5.89,4.21-8.82c0.69-1.48,1.4-2.94,2.06-4.43l1.9-4.49l1.89-4.48l0.94-2.24l0.85-2.27
	c1.13-3.03,2.26-6.05,3.38-9.06c1.04-3.04,2.02-6.1,3.02-9.14c1.04-3.02,1.86-6.11,2.74-9.17c0.86-3.06,1.78-6.1,2.47-9.19
	c6.19-24.53,9.23-49.13,9.73-72.79c0.03-2.96,0.07-5.9,0.1-8.83c-0.07-2.92-0.13-5.84-0.2-8.73c-0.04-1.45-0.06-2.89-0.12-4.33
	c-0.09-1.44-0.17-2.87-0.26-4.3c-0.19-2.86-0.31-5.7-0.56-8.51c-0.56-5.63-1.01-11.19-1.82-16.64c-0.39-2.73-0.67-5.44-1.15-8.12
	c-0.46-2.67-0.91-5.33-1.36-7.97c-0.41-2.64-1.02-5.23-1.53-7.81c-0.56-2.58-1.03-5.14-1.64-7.66c-1.27-5.03-2.35-10.01-3.8-14.8
	c-0.68-2.4-1.36-4.79-2.04-7.15c-0.76-2.34-1.5-4.65-2.24-6.95c-1.41-4.6-3.12-9.02-4.69-13.35c-6.48-17.3-13.87-32.5-21.26-45.4
	c-7.38-12.92-14.77-23.53-21.09-32.01c-3.25-4.19-6.08-7.95-8.79-11.04c-2.65-3.13-4.85-5.82-6.8-7.87
	c-3.81-4.15-5.83-6.37-5.83-6.37s1.78,2.41,5.13,6.94c1.72,2.22,3.62,5.13,5.91,8.5c2.35,3.32,4.76,7.35,7.51,11.79
	c5.35,8.99,11.47,20.13,17.32,33.42c5.85,13.27,11.43,28.69,15.9,45.88c1.07,4.31,2.25,8.68,3.14,13.21
	c0.48,2.25,0.96,4.53,1.44,6.83c0.4,2.31,0.81,4.64,1.22,7c0.9,4.68,1.42,9.52,2.13,14.38c0.33,2.44,0.52,4.91,0.79,7.39
	c0.23,2.48,0.55,4.97,0.67,7.5c0.16,2.52,0.33,5.06,0.49,7.61c0.19,2.55,0.18,5.13,0.28,7.72c0.23,5.17,0.09,10.41,0.08,15.69
	c-0.04,2.64-0.21,5.3-0.31,7.96c-0.06,1.33-0.11,2.67-0.17,4.01c-0.08,1.34-0.21,2.68-0.31,4.02c-0.22,2.68-0.44,5.37-0.66,8.08
	c-0.31,2.69-0.63,5.4-0.95,8.12c-2.73,21.69-7.85,43.73-15.66,65.03c-0.9,2.69-2,5.31-3.05,7.95c-0.58,1.43-1.14,2.88-1.73,4.31
	c-5.64-6.35-12.64-14.19-20.61-23.08c-0.66-0.74-1.33-1.48-2-2.23c-0.7-0.77-1.38-1.55-2.13-2.34c-0.73-0.79-1.47-1.58-2.22-2.39
	c-0.78-0.8-1.56-1.61-2.35-2.42c-3.23-3.25-6.68-6.58-10.72-9.87c-4.04-3.28-8.55-6.55-13.88-9.45c-1.38-0.71-2.72-1.42-4.16-2.08
	c-1.49-0.64-3-1.26-4.51-1.85c-1.61-0.53-3.25-1.04-4.88-1.51c-1.69-0.43-3.47-0.75-5.2-1.08c-1.76-0.29-3.63-0.38-5.45-0.52
	c-0.91-0.09-1.84-0.04-2.77-0.01l-2.79,0.13c-0.46,0.03-0.93,0.04-1.39,0.1l-1.37,0.21l-2.74,0.47c-1.82,0.29-3.6,0.83-5.35,1.39
	c-7.06,2.31-12.96,6.29-17.55,10.33c-4.62,4.09-8.12,8.28-11.28,12.19c-3.12,3.9-5.88,7.61-8.56,10.81
	c-2.68,3.22-5.27,5.98-7.88,8.01c-1.3,1.02-2.6,1.9-3.95,2.59c-0.69,0.3-1.39,0.58-2.09,0.91c-0.34,0.19-0.72,0.26-1.08,0.37
	l-1.11,0.33c-5.93,1.58-13.4,0.41-20.35-2.86c-6.99-3.17-13.45-7.92-18.99-13.06c-2.73-2.57-5.36-5.33-7.87-8.13
	c-2.52-2.77-4.92-5.53-7.27-8.18c-4.69-5.31-9.1-10.18-13.34-14.19c-4.23-4.02-8.2-7.23-11.7-9.5c-0.84-0.61-1.72-1.08-2.5-1.57
	c-0.8-0.46-1.51-0.96-2.24-1.3c-1.44-0.72-2.62-1.4-3.64-1.82c-2.02-0.86-3.1-1.31-3.1-1.31s0.97,0.64,2.8,1.84
	c0.92,0.58,1.95,1.46,3.2,2.4c0.64,0.45,1.24,1.06,1.92,1.64c0.67,0.61,1.41,1.19,2.11,1.93c2.92,2.76,6.12,6.47,9.42,10.98
	c3.31,4.51,6.67,9.9,10.3,15.9c1.82,3,3.71,6.16,5.75,9.44c2.02,3.28,4.24,6.67,6.82,10.17c5.18,6.87,11.49,13.71,19.74,19.48
	c4.1,2.89,8.77,5.46,14.08,7.31c5.28,1.84,11.28,2.92,17.53,2.58l2.34-0.2c0.78-0.07,1.57-0.13,2.34-0.31
	c1.54-0.31,3.11-0.63,4.65-1.02c3.08-0.86,6.01-2.08,8.75-3.47c5.5-2.8,10.11-6.31,14.19-9.72c4.1-3.43,7.67-6.81,11.07-9.77
	c3.36-2.94,6.54-5.48,9.38-7.12c2.85-1.65,5.21-2.39,7.1-2.46c0.49,0,0.94-0.06,1.41,0.05c0.23,0.03,0.46,0.06,0.68,0.07l0.33,0.01
	c0.11,0.01,0.22,0.07,0.32,0.09c0.22,0.07,0.43,0.12,0.63,0.16c0.21,0.05,0.41,0.05,0.62,0.17c0.43,0.21,0.82,0.28,1.25,0.49
	c3.31,1.36,7.76,5.2,11.84,10.05c2.06,2.41,4.04,5.15,5.95,7.9c0.48,0.7,0.95,1.4,1.42,2.09c0.47,0.72,0.93,1.43,1.39,2.14
	c0.93,1.48,1.85,2.94,2.75,4.37c15.76,25.14,26.94,42.78,28.72,45.15c0.21,0.28,0.45,0.52,0.67,0.79
	c-12.79,18.89-27.62,37.78-40.94,59.29c-6.83,11.08-13.25,22.93-18.39,35.81c-5.16,12.84-8.9,26.84-10.34,41.22l-0.27,2.69
	l-0.14,2.7c-0.07,1.8-0.15,3.6-0.22,5.39c-0.24,3.61,0,7.15,0.13,10.7c0.1,1.77,0.1,3.56,0.29,5.3c0.2,1.74,0.39,3.48,0.59,5.21
	c0.38,2.54,0.99,6.69,1.37,9.24l0.19,1c2.49,13.46,6.52,25.99,11.18,37.52c4.71,11.51,10.08,22.01,15.54,31.81
	c5.46,9.82,11.1,18.8,16.56,27.21c5.46,8.44,10.82,16.25,15.78,23.53c4.95,7.26,9.68,14.19,14.15,20.74
	c7.1,10.37,13.55,19.8,19.28,28.18c-13.6,2.12-26.98,3.93-40.13,5.1c-18.88,1.7-37.22,2.05-54.99,0.34
	c-17.7-1.74-35.52-5.67-53.07-11.82c-17.51-6.25-34.68-14.81-51.14-25.25c-16.5-10.39-32.07-22.98-46.66-36.92
	c-29.25-27.88-53.83-61.86-73.06-98.17c-9.64-18.17-17.85-37.01-24.63-56.13c-1.65-4.79-3.4-9.56-4.82-14.39
	c-0.75-2.41-1.5-4.82-2.25-7.22c-0.9-2.96-1.63-5.95-2.51-8.91c-0.41-1.49-0.83-2.98-1.24-4.47c-0.68-2.8-1.35-5.6-2.02-8.39
	c-1.23-4.8-2.22-9.76-3.25-14.67c-4.04-19.67-6.92-39.32-8.84-58.74c-1.9-19.42-2.85-38.6-3.09-57.35
	c-0.48-37.5,1.87-73.23,5.35-106.14c1.74-16.46,3.75-32.23,5.87-47.21c2.16-14.98,4.41-29.18,6.64-42.51
	c4.52-26.65,8.94-49.84,12.68-68.9c3.74-19.07,6.8-34.02,8.87-44.21c2.08-10.19,3.2-15.62,3.2-15.62s-1.72,5.27-4.95,15.16
	c-3.22,9.89-7.95,24.41-13.84,42.96c-5.88,18.56-12.92,41.15-20.48,67.31c-3.76,13.09-7.63,27.08-11.52,41.91
	c-3.85,14.84-7.69,30.54-11.36,47.05c-7.33,33.01-13.92,69.33-17.86,108.52c-0.34,3.43-0.66,6.89-0.96,10.37
	c0-0.01-0.01-0.01-0.01-0.01c-5.06-8.94-10.5-18.56-16.22-28.68c-5.67-10.04-11.43-20.44-16.84-31.25
	c-5.39-10.81-10.38-22.03-14.38-33.63c-2.01-5.81-3.69-11.68-5.14-17.68c-1.44-6-2.57-12.31-3.69-18.68
	c-2.18-12.83-4.03-26.17-7.23-39.45l-0.58-2.48l-0.68-2.48c-0.47-1.65-0.89-3.3-1.39-4.93c-1.09-3.28-2.07-6.53-3.41-9.73
	l-0.95-2.39l-0.48-1.19l-0.55-1.17c-0.74-1.55-1.48-3.1-2.21-4.65c-0.74-1.54-1.67-3-2.5-4.49l-1.27-2.21
	c-0.42-0.73-0.95-1.42-1.42-2.12c-0.97-1.39-1.94-2.78-2.9-4.16c-1.05-1.32-2.15-2.59-3.22-3.87l-1.61-1.9
	c-0.55-0.61-1.15-1.19-1.72-1.78c-1.13-1.2-2.34-2.29-3.54-3.39c-4.82-4.36-10.08-7.89-15.4-10.75
	c-10.67-5.74-21.53-8.71-31.44-10.45c-9.95-1.74-19.07-2.23-27.09-2.4c-8.03-0.12-14.98,0.13-20.68,0.43
	c-5.7,0.31-10.17,0.65-13.2,0.89c-3.04,0.25-4.65,0.39-4.65,0.39s1.62,0.07,4.66,0.22c3.04,0.15,7.5,0.38,13.17,0.79
	c5.66,0.41,12.53,1.04,20.32,2.13c7.78,1.14,16.51,2.7,25.62,5.45c9.08,2.74,18.6,6.67,27.15,12.66c4.27,2.98,8.31,6.43,11.84,10.45
	c0.88,1.01,1.77,2.01,2.57,3.09c0.41,0.53,0.84,1.05,1.23,1.6l1.12,1.7c0.74,1.13,1.52,2.24,2.25,3.39c0.65,1.2,1.3,2.41,1.96,3.63
	c0.32,0.61,0.69,1.19,0.96,1.83l0.83,1.92c0.54,1.3,1.17,2.53,1.64,3.87c0.47,1.34,0.94,2.69,1.41,4.04l0.35,1.01l0.29,1.05
	l0.58,2.1c0.84,2.76,1.38,5.71,2.02,8.6c0.28,1.47,0.5,2.98,0.76,4.47l0.37,2.24l0.29,2.29c1.63,12.19,2.14,25.15,3.06,38.56
	c0.51,6.74,1.06,13.57,2.03,20.54c0.99,6.97,2.3,13.93,3.96,20.69c1.67,6.75,3.57,13.38,5.7,19.81c2.14,6.41,4.42,12.69,6.83,18.75
	c4.81,12.12,9.95,23.52,14.89,34.17c4.95,10.57,9.65,20.61,14.02,29.95c14.58,30.99,25.72,54.28,30.19,63.37
	c0.37,11.38,1.04,22.9,2.09,34.54c0.51,5.47,0.99,10.96,1.75,16.55c0.35,2.79,0.7,5.59,1.05,8.39c0.4,2.79,0.87,5.58,1.3,8.38
	c0.46,2.8,0.86,5.62,1.37,8.42c0.54,2.8,1.07,5.6,1.61,8.4c1.01,5.64,2.35,11.21,3.6,16.84c0.56,2.42,1.15,4.84,1.75,7.26
	c-23.24-8.27-68.31-24.11-125.72-44.23c-9.69-3.42-19.34-6.87-28.41-10.98c-9.08-4.1-17.61-8.84-24.94-14.72
	c-3.66-2.91-7.05-6.23-10.33-9.94c-3.3-3.66-6.32-7.85-9.22-12.3c-2.92-4.44-5.58-9.3-8.13-14.39c-2.56-5.08-4.94-10.46-7.22-16.04
	c-4.59-11.12-8.78-23.18-13.23-35.51c-4.41-12.28-8.86-24.68-13.34-37.17c-8.97-24.97-18.05-50.25-27.11-75.48
	c-2.27-6.31-4.53-12.61-6.79-18.9c-2.27-6.35-4.69-12.91-7.54-19.45c-2.86-6.54-6.15-13.1-10.3-19.42
	c-4.17-6.29-9.33-12.33-15.65-17.28l-1.17-0.93c-0.4-0.3-0.83-0.57-1.24-0.86l-2.5-1.69c-1.7-1.08-3.5-2-5.26-2.96
	c-3.64-1.73-7.39-3.12-11.16-4.1c-7.55-1.91-15-2.39-22.03-2.16c-7.06,0.19-13.74,1.1-20.18,2.08c-6.43,1.03-12.54,2.11-18.71,3.14
	c-49.15,8.37-94.87,16.15-133.99,22.81c-78.22,13.33-130.04,22.16-130.04,22.16s52.28-5.51,131.19-13.83
	c39.46-4.17,85.59-9.04,135.17-14.27c6.18-0.64,12.51-1.35,18.64-1.93c6.12-0.54,12.17-0.95,17.96-0.73
	c5.8,0.17,11.34,0.98,16.31,2.59c2.48,0.82,4.79,1.88,6.99,3.09c1.05,0.71,2.14,1.32,3.15,2.07l1.5,1.17
	c0.25,0.2,0.51,0.38,0.75,0.58l0.7,0.66c3.8,3.43,7.11,7.71,9.94,12.64c2.81,4.95,5.19,10.45,7.29,16.25
	c2.11,5.82,3.94,11.92,5.78,18.28c1.86,6.42,3.72,12.85,5.59,19.29c7.46,25.74,14.94,51.55,22.33,77.03
	c3.7,12.74,7.37,25.4,11,37.93c3.65,12.46,7.14,25.06,11.47,37.77c2.15,6.34,4.48,12.68,7.17,18.98c2.68,6.29,5.6,12.54,9.06,18.63
	c0.51,0.92,1.05,1.83,1.59,2.74c-5.39,0.74-12.31,1.91-20.51,3.85c-8.89,2.08-19.26,5.06-30.52,9.42
	c-11.26,4.36-23.42,10.1-35.83,17.48c-6.23,3.65-12.44,7.83-18.69,12.33c-3.06,2.34-6.24,4.62-9.27,7.17
	c-1.53,1.26-3.1,2.49-4.61,3.81c-1.51,1.33-3.02,2.66-4.55,4c-6,5.47-11.97,11.28-17.55,17.66l-2.13,2.37l-2.05,2.46
	c-1.36,1.65-2.76,3.28-4.09,4.97c-1.31,1.71-2.62,3.43-3.95,5.16c-1.34,1.71-2.53,3.54-3.81,5.32l-1.89,2.69
	c-0.62,0.9-1.2,1.84-1.8,2.77c-1.18,1.86-2.41,3.7-3.56,5.6c-1.12,1.91-2.24,3.84-3.37,5.76c-1.14,1.92-2.12,3.93-3.19,5.9
	l-1.57,2.98l-1.45,3.05c-0.95,2.04-1.97,4.07-2.86,6.12c-1.81,4.09-3.51,8.19-5.15,12.3c-6.58,16.37-12.42,32.84-20.65,47.53
	c-4.13,7.31-8.88,14.11-14.57,19.81c-5.67,5.68-12.3,10.25-19.64,13.15c-7.3,2.94-15.19,4.22-23.07,4.03
	c-7.89-0.16-15.74-1.79-23.24-4.2c-15.03-4.9-28.63-12.84-40.67-21.37c-3.02-2.14-5.93-4.34-8.77-6.56
	c-2.82-2.21-5.59-4.51-8.32-6.72c-5.46-4.47-10.73-8.79-15.78-12.93c-10.19-8.24-19.88-15.43-28.97-21.02
	c-9.07-5.61-17.56-9.55-24.79-12c-0.9-0.32-1.78-0.62-2.63-0.92c-0.87-0.24-1.72-0.47-2.54-0.69c-1.64-0.43-3.16-0.9-4.6-1.22
	c-1.45-0.28-2.8-0.53-4.03-0.76c-1.23-0.21-2.34-0.5-3.36-0.56c-4.04-0.41-6.2-0.64-6.2-0.64s2.14,0.32,6.15,0.93
	c1.01,0.11,2.1,0.45,3.31,0.72c1.21,0.29,2.53,0.61,3.96,0.95c1.41,0.38,2.9,0.93,4.5,1.43c0.8,0.26,1.62,0.53,2.47,0.81
	c0.83,0.34,1.68,0.68,2.55,1.04c7.02,2.76,15.17,7.04,23.84,13c8.68,5.94,17.89,13.47,27.6,22.14c4.84,4.38,9.89,8.94,15.12,13.66
	c2.64,2.36,5.28,4.77,8.07,7.19c2.79,2.4,5.66,4.81,8.66,7.15c11.96,9.35,25.62,18.32,41.59,24.4c7.97,2.99,16.55,5.24,25.58,5.87
	c9,0.66,18.44-0.37,27.36-3.48c8.92-3.03,17.22-8.18,24.23-14.57c7.04-6.4,12.8-13.93,17.72-21.75
	c9.79-15.71,16.57-32.46,23.78-48.14c1.79-3.93,3.61-7.78,5.49-11.54c0.93-1.89,1.94-3.67,2.9-5.51l1.45-2.73l1.57-2.66
	c1.07-1.76,2.04-3.56,3.17-5.26c1.11-1.71,2.22-3.42,3.32-5.12c1.13-1.69,2.34-3.31,3.49-4.96c0.59-0.82,1.15-1.65,1.76-2.45
	l1.84-2.38c1.25-1.57,2.4-3.19,3.7-4.69c1.28-1.52,2.55-3.03,3.82-4.54c1.28-1.49,2.64-2.91,3.94-4.36l1.97-2.15l2.05-2.07
	c5.36-5.58,11.05-10.6,16.73-15.33c1.44-1.16,2.88-2.31,4.3-3.45c1.43-1.14,2.92-2.18,4.35-3.26c2.85-2.2,5.85-4.13,8.72-6.12
	c5.87-3.81,11.66-7.35,17.45-10.38c11.52-6.16,22.7-10.83,32.96-14.28c10.27-3.46,19.62-5.69,27.58-7.2
	c15.95-3.07,26.34-3.21,28.9-3.43c1.74-0.11,3.45-0.25,5.13-0.39c1.81,1.88,3.65,3.73,5.58,5.48c10.51,9.57,21.9,16.68,32.81,22.45
	c10.95,5.78,21.48,10.24,31.25,14.37c77.1,32.36,131.34,55.02,139.17,58.03c7.95,3.06,15.79,5.23,23.16,6.56
	c17.27,43.11,40.94,85.2,72.3,122.8c16.02,19.21,33.86,37.37,53.87,53.45c4.54,3.67,9.19,7.22,13.92,10.69
	c-0.12,0.21-0.25,0.4-0.37,0.61c-3.18,5.45-20.31,38.11-45.67,86.8c-2.99,1.82-8.88,5.46-17.29,10.22
	c-10.77,6.05-25.72,13.87-44.11,21.38c-9.33,3.82-18.72,7.44-27.49,9.12c-4.38,0.79-8.57,1.22-12.6,0.83
	c-4.1-0.3-8.36-1.3-12.75-3.09c-8.82-3.55-17.96-10.45-26.57-18.99c-4.32-4.27-8.55-8.95-12.72-13.87
	c-4.32-5.18-8.65-10.38-12.97-15.57c-8.93-10.56-18.66-21.36-30.45-30.17c-5.88-4.39-12.27-8.22-19.02-11.1
	c-6.74-2.91-13.82-4.78-20.72-5.72c-13.87-1.87-27.05-0.22-38.73,2.93c-11.7,3.19-22.03,8.04-30.87,13.19
	c-8.85,5.19-16.37,10.67-22.78,15.73c-6.42,5.06-11.75,9.72-16.11,13.58c-4.35,3.86-7.7,6.95-10,9.04c-2.29,2.1-3.51,3.22-3.51,3.22
	s1.35-0.95,3.89-2.75c2.54-1.78,6.26-4.42,11.04-7.69c4.79-3.26,10.63-7.18,17.51-11.31c3.43-2.09,7.15-4.17,11.09-6.28
	c3.96-2.07,8.18-4.11,12.65-6.03c8.95-3.8,18.9-6.97,29.64-8.48c10.69-1.49,22.13-1.33,32.92,1.57c5.39,1.45,10.54,3.56,15.36,6.42
	c4.83,2.84,9.35,6.38,13.59,10.47c8.49,8.18,15.77,18.45,22.92,29.45c3.64,5.68,7.28,11.36,10.91,17.02
	c3.84,5.88,7.93,11.75,12.43,17.48c4.5,5.72,9.42,11.31,14.98,16.53c5.55,5.22,11.77,10.07,18.79,14.09
	c6.99,4.02,14.8,7.14,22.9,8.88c8.15,1.87,16.22,2.11,23.61,1.72c7.39-0.45,14.18-1.59,20.41-2.91c3.11-0.66,6.08-1.38,8.95-2.09
	c2.85-0.72,5.55-1.46,8.23-2.19c3.27-0.89,6.44-1.81,9.53-2.74c-3.82,7.36-7.72,14.87-11.7,22.54c-5.02,9.68-10.17,19.59-15.41,29.7
	c-2.29,4.36-4.35,7.76-5.97,9.9c-0.21,0.27-0.4,0.5-0.52,0.69c-0.14,0.17-0.28,0.34-0.41,0.53c-0.15,0.16-0.3,0.33-0.44,0.51
	c-0.17,0.15-0.32,0.33-0.48,0.49c-0.18,0.14-0.33,0.32-0.51,0.46c-0.19,0.12-0.38,0.26-0.56,0.41c-0.33,0.36-0.78,0.5-1.16,0.81
	c-0.19,0.17-0.42,0.22-0.63,0.33c-0.22,0.1-0.43,0.23-0.64,0.35c-0.23,0.07-0.46,0.15-0.69,0.25c-0.23,0.09-0.43,0.22-0.76,0.27
	c-0.59,0.13-1.22,0.37-2.01,0.45l-1.13,0.2l-1.28,0.1c-3.45,0.31-7.85,0.06-12.72-0.71c-4.87-0.75-10.19-1.96-15.87-3.4
	c-5.98-1.55-11.99-3.1-18.02-4.66c-24.13-6.24-48.57-12.57-72.96-18.88c-6.1-1.58-12.19-3.15-18.27-4.72
	c-6.09-1.56-12.07-3.15-18.49-4.74c-6.38-1.56-13.02-3.06-20.02-4.08c-6.98-1.03-14.29-1.65-21.85-1.26l-2.83,0.16l-2.85,0.29
	c-1.89,0.16-3.81,0.55-5.7,0.84c-1.9,0.39-3.8,0.78-5.66,1.3c-1.86,0.55-3.71,1.1-5.53,1.69c-7.25,2.55-13.88,6.18-19.74,10.33
	c-5.88,4.16-11.02,8.85-15.61,13.74c-4.6,4.89-8.62,10-12.25,15.18c-3.64,5.17-6.91,10.41-9.93,15.63
	c-0.74,1.31-1.48,2.62-2.21,3.92c-0.69,1.3-1.38,2.61-2.07,3.9c-1.36,2.59-2.72,5.17-4.07,7.74c-0.69,1.27-1.32,2.57-1.94,3.87
	c-0.62,1.3-1.24,2.59-1.86,3.88c-1.23,2.58-2.45,5.14-3.66,7.69c-1.12,2.59-2.24,5.16-3.34,7.72c-1.08,2.56-2.26,5.06-3.21,7.64
	c-8.19,20.35-14.19,40.13-18.47,58.58c-4.27,18.46-6.92,35.56-8.39,50.75c-0.39,3.79-0.6,7.49-0.89,11.03
	c-0.13,1.77-0.28,3.51-0.38,5.22c-0.07,1.71-0.13,3.39-0.19,5.04c-0.12,3.28-0.23,6.44-0.34,9.44c0,3.01-0.01,5.88-0.01,8.6
	c-0.09,5.44,0.2,10.29,0.33,14.5c0.09,2.11,0.13,4.05,0.24,5.83c0.13,1.78,0.26,3.4,0.36,4.85c0.43,5.78,0.67,8.86,0.67,8.86
	s0.08-3.08,0.24-8.88c0.04-1.45,0.08-3.06,0.13-4.84c0.07-1.78,0.23-3.71,0.36-5.81c0.29-4.19,0.5-9,1.14-14.36
	c0.28-2.68,0.57-5.5,0.87-8.47c0.41-2.95,0.84-6.03,1.29-9.25c0.23-1.61,0.46-3.24,0.69-4.91c0.27-1.67,0.59-3.36,0.89-5.08
	c0.64-3.44,1.21-7.02,1.97-10.69c2.95-14.68,7.22-31.03,13.15-48.39c5.94-17.35,13.62-35.69,23.34-54.19
	c1.14-2.34,2.5-4.6,3.77-6.92c1.29-2.31,2.59-4.63,3.89-6.96c1.39-2.29,2.79-4.59,4.19-6.9c0.7-1.15,1.41-2.31,2.12-3.47
	c0.7-1.17,1.42-2.32,2.19-3.45c1.51-2.28,3.03-4.56,4.55-6.86c0.76-1.15,1.53-2.29,2.3-3.45c0.79-1.11,1.58-2.23,2.37-3.35
	c3.2-4.43,6.55-8.73,10.08-12.8c7.02-8.17,14.97-15.3,23.48-20.1C932.84,2174.6,937.22,2172.81,941.64,2171.77z"/>
</svg>
