<?xml version="1.0" encoding="UTF-8"?>
<svg id="Line" xmlns="http://www.w3.org/2000/svg" viewBox="0 0 64 64">
  <path d="m58.63965,12.8916h-7.41113c-.75,0-1.36035.61035-1.36035,1.36035v3.2627c-.00798.84634.75889,1.44761,1.57716,1.35935,0,.00003-3.05372,8.8721-3.05372,8.8721l-3.21387-9.33789c.09766-.15527.1543-.33789.1543-.53418v-3.62207c0-.75-.61035-1.36035-1.36035-1.36035h-16.83301c-.75,0-1.35986.61035-1.35986,1.36035v3.2627c0,.75.60986,1.35938,1.35986,1.35938h.70068l1.35651,3.9472-1.99664,5.81549-3.44287-10.00684c.21191-.18262.3457-.4541.3457-.75586v-3.62207c0-.75-.60986-1.36035-1.35986-1.36035H5.63818c-.90332,0-1.63818.73535-1.63818,1.63867v2.70605c0,.90332.73486,1.6377,1.63818,1.6377h.69092l10.69434,31.07422c.23828.69336.89209,1.16016,1.62646,1.16016h5.99414c.73389,0,1.3877-.46582,1.62598-1.15918l6.13452-17.79694,6.13062,17.79889c.23926.69238.89258,1.15723,1.625,1.15723h5.38086c.7334,0,1.38672-.46582,1.62695-1.16113l10.68164-31.07324h.79004c.75,0,1.36035-.60938,1.36035-1.35938v-3.2627c0-.75-.61035-1.36035-1.36035-1.36035ZM24.44434,49.1084h-5.59473l-10.77734-31.31543c-.30229-.92854-1.24676-.96751-2.07228-.91887.00002-.00007.00002-1.9825.00002-1.9825h16.10205v2.04102c-.18994.06738-.35742.19238-.47754.36035-.18799.26367-.23682.60059-.13184.90625l4.4209,12.84863c.36734,1.20003,2.20383,1.20252,2.57226-.00007,0,.00007,1.76649-5.14409,1.76649-5.14409l1.09467,3.17816-6.90265,20.02655ZM58,16.87402c-.78102-.06361-1.61722.07874-1.89256.91803-.00002-.00006-10.76564,31.31635-10.76564,31.31635h-4.98145c-.02603-.08918-9.14814-26.53446-9.16351-26.61891-.00007-.00023-1.61384-4.69652-1.61384-4.69652-.18848-.5498-.70557-.91895-1.28662-.91895h-.51758v-1.98242h15.55322v2.18555c-.0791.06055-.15039.13281-.20996.21582-.1875.26367-.23633.60059-.13086.90625l4.11426,11.95605c.3676,1.19941,2.2038,1.20319,2.57128-.00007,0,.00007,3.95215-11.47942,3.95215-11.47942.1416-.41406.07422-.875-.18066-1.23242-.34339-.52575-1.00164-.61129-1.5801-.56929.00002-.00005.00002-1.98247.00002-1.98247h6.13184v1.98242Z"/>
</svg>